G04 #@! TF.GenerationSoftware,KiCad,Pcbnew,9.0.1*
G04 #@! TF.CreationDate,2025-05-31T22:37:51+02:00*
G04 #@! TF.ProjectId,Sim-module,53696d2d-6d6f-4647-956c-652e6b696361,rev?*
G04 #@! TF.SameCoordinates,Original*
G04 #@! TF.FileFunction,Copper,L2,Bot*
G04 #@! TF.FilePolarity,Positive*
%FSLAX46Y46*%
G04 Gerber Fmt 4.6, Leading zero omitted, Abs format (unit mm)*
G04 Created by KiCad (PCBNEW 9.0.1) date 2025-05-31 22:37:51*
%MOMM*%
%LPD*%
G01*
G04 APERTURE LIST*
G04 Aperture macros list*
%AMRotRect*
0 Rectangle, with rotation*
0 The origin of the aperture is its center*
0 $1 length*
0 $2 width*
0 $3 Rotation angle, in degrees counterclockwise*
0 Add horizontal line*
21,1,$1,$2,0,0,$3*%
G04 Aperture macros list end*
G04 #@! TA.AperFunction,ComponentPad*
%ADD10RotRect,3.500000X2.000000X45.000000*%
G04 #@! TD*
G04 #@! TA.AperFunction,ComponentPad*
%ADD11R,1.800000X1.800000*%
G04 #@! TD*
G04 #@! TA.AperFunction,ComponentPad*
%ADD12C,1.800000*%
G04 #@! TD*
G04 #@! TA.AperFunction,ConnectorPad*
%ADD13R,1.900000X9.000000*%
G04 #@! TD*
G04 #@! TA.AperFunction,ViaPad*
%ADD14C,1.250000*%
G04 #@! TD*
G04 #@! TA.AperFunction,Conductor*
%ADD15C,0.500000*%
G04 #@! TD*
G04 APERTURE END LIST*
D10*
X177000000Y-44700000D03*
X178767767Y-46467767D03*
X180535534Y-48235534D03*
X180179111Y-55929111D03*
X181946878Y-57696878D03*
X183714645Y-59464645D03*
D11*
X164800000Y-44400000D03*
D12*
X159800000Y-44400000D03*
D10*
X192179111Y-43929111D03*
X193946878Y-45696878D03*
X195714645Y-47464645D03*
X168914466Y-52714466D03*
X170682233Y-54482233D03*
X172450000Y-56250000D03*
X172982233Y-48732233D03*
X174750000Y-50500000D03*
X176517767Y-52267767D03*
X188125989Y-47929111D03*
X189893756Y-49696878D03*
X191661523Y-51464645D03*
X184179111Y-51929111D03*
X185946878Y-53696878D03*
X187714645Y-55464645D03*
X164950000Y-56700000D03*
X166717767Y-58467767D03*
X168485534Y-60235534D03*
D13*
X198000000Y-69450000D03*
X158000000Y-69450000D03*
X162000000Y-69450000D03*
X178000000Y-69450000D03*
X166000000Y-69450000D03*
X182000000Y-69450000D03*
X194000000Y-69450000D03*
X170000000Y-69450000D03*
X174000000Y-69450000D03*
X190000000Y-69450000D03*
X186000000Y-69450000D03*
D14*
X170000000Y-63050000D03*
X174000000Y-63050000D03*
X178000000Y-63050000D03*
X182000000Y-63050000D03*
X186000000Y-63050000D03*
X166000000Y-63050000D03*
X162000000Y-63050000D03*
X158675000Y-63100000D03*
X190000000Y-63050000D03*
X194000000Y-63050000D03*
X197000000Y-63050000D03*
D15*
X170000000Y-63050000D02*
X170000000Y-69450000D01*
X174000000Y-63050000D02*
X174000000Y-69450000D01*
X178000000Y-63050000D02*
X178000000Y-69450000D01*
X182000000Y-63050000D02*
X182000000Y-69450000D01*
X186000000Y-63050000D02*
X186000000Y-69450000D01*
X166000000Y-63050000D02*
X166000000Y-69450000D01*
X162000000Y-69450000D02*
X162000000Y-63050000D01*
X158000000Y-63775000D02*
X158000000Y-69450000D01*
X158675000Y-63100000D02*
X158000000Y-63775000D01*
X190000000Y-63050000D02*
X190000000Y-69450000D01*
X194000000Y-63050000D02*
X194000000Y-69450000D01*
X198000000Y-64050000D02*
X198000000Y-69450000D01*
X197000000Y-63050000D02*
X198000000Y-64050000D01*
G04 #@! TA.AperFunction,Conductor*
G36*
X198442539Y-40520185D02*
G01*
X198488294Y-40572989D01*
X198499500Y-40624500D01*
X198499500Y-63188770D01*
X198493261Y-63210015D01*
X198491682Y-63232104D01*
X198483609Y-63242887D01*
X198479815Y-63255809D01*
X198463081Y-63270308D01*
X198449810Y-63288037D01*
X198437189Y-63292744D01*
X198427011Y-63301564D01*
X198405093Y-63304715D01*
X198384346Y-63312454D01*
X198371185Y-63309591D01*
X198357853Y-63311508D01*
X198337709Y-63302308D01*
X198316073Y-63297602D01*
X198298347Y-63284333D01*
X198294297Y-63282483D01*
X198287819Y-63276451D01*
X198161819Y-63150451D01*
X198128334Y-63089128D01*
X198125500Y-63062770D01*
X198125500Y-62961421D01*
X198097786Y-62786445D01*
X198043042Y-62617958D01*
X198043042Y-62617957D01*
X197962613Y-62460109D01*
X197858483Y-62316786D01*
X197733214Y-62191517D01*
X197589890Y-62087386D01*
X197432042Y-62006957D01*
X197432039Y-62006956D01*
X197263556Y-61952214D01*
X197176067Y-61938357D01*
X197088579Y-61924500D01*
X196911421Y-61924500D01*
X196853095Y-61933738D01*
X196736443Y-61952214D01*
X196567960Y-62006956D01*
X196567957Y-62006957D01*
X196410109Y-62087386D01*
X196328338Y-62146796D01*
X196266786Y-62191517D01*
X196266784Y-62191519D01*
X196266783Y-62191519D01*
X196141519Y-62316783D01*
X196141519Y-62316784D01*
X196141517Y-62316786D01*
X196096796Y-62378338D01*
X196037386Y-62460109D01*
X195956957Y-62617957D01*
X195956956Y-62617960D01*
X195902214Y-62786443D01*
X195902214Y-62786445D01*
X195874500Y-62961421D01*
X195874500Y-63138579D01*
X195882450Y-63188770D01*
X195902214Y-63313556D01*
X195956956Y-63482039D01*
X195956957Y-63482042D01*
X196037386Y-63639890D01*
X196141517Y-63783214D01*
X196266786Y-63908483D01*
X196410110Y-64012614D01*
X196487529Y-64052061D01*
X196567957Y-64093042D01*
X196567960Y-64093043D01*
X196652201Y-64120414D01*
X196736445Y-64147786D01*
X196911421Y-64175500D01*
X197012771Y-64175500D01*
X197042211Y-64184144D01*
X197072198Y-64190668D01*
X197077213Y-64194422D01*
X197079810Y-64195185D01*
X197100452Y-64211819D01*
X197126452Y-64237819D01*
X197159937Y-64299142D01*
X197154953Y-64368834D01*
X197113081Y-64424767D01*
X197047617Y-64449184D01*
X197038774Y-64449500D01*
X197002131Y-64449500D01*
X197002123Y-64449501D01*
X196942516Y-64455908D01*
X196846604Y-64491682D01*
X196803271Y-64499500D01*
X195196729Y-64499500D01*
X195153396Y-64491682D01*
X195057482Y-64455908D01*
X195057483Y-64455908D01*
X194997883Y-64449501D01*
X194997881Y-64449500D01*
X194997873Y-64449500D01*
X194997865Y-64449500D01*
X194874500Y-64449500D01*
X194807461Y-64429815D01*
X194761706Y-64377011D01*
X194750500Y-64325500D01*
X194750500Y-63942559D01*
X194770185Y-63875520D01*
X194786819Y-63854878D01*
X194858483Y-63783214D01*
X194962614Y-63639890D01*
X195043042Y-63482042D01*
X195097786Y-63313555D01*
X195125500Y-63138579D01*
X195125500Y-62961421D01*
X195097786Y-62786445D01*
X195043042Y-62617958D01*
X195043042Y-62617957D01*
X194962613Y-62460109D01*
X194858483Y-62316786D01*
X194733214Y-62191517D01*
X194589890Y-62087386D01*
X194432042Y-62006957D01*
X194432039Y-62006956D01*
X194263556Y-61952214D01*
X194176067Y-61938357D01*
X194088579Y-61924500D01*
X193911421Y-61924500D01*
X193853095Y-61933738D01*
X193736443Y-61952214D01*
X193567960Y-62006956D01*
X193567957Y-62006957D01*
X193410109Y-62087386D01*
X193328338Y-62146796D01*
X193266786Y-62191517D01*
X193266784Y-62191519D01*
X193266783Y-62191519D01*
X193141519Y-62316783D01*
X193141519Y-62316784D01*
X193141517Y-62316786D01*
X193096796Y-62378338D01*
X193037386Y-62460109D01*
X192956957Y-62617957D01*
X192956956Y-62617960D01*
X192902214Y-62786443D01*
X192902214Y-62786445D01*
X192874500Y-62961421D01*
X192874500Y-63138579D01*
X192882450Y-63188770D01*
X192902214Y-63313556D01*
X192956956Y-63482039D01*
X192956957Y-63482042D01*
X193037386Y-63639890D01*
X193141517Y-63783214D01*
X193141519Y-63783216D01*
X193213181Y-63854878D01*
X193246666Y-63916201D01*
X193249500Y-63942559D01*
X193249500Y-64325500D01*
X193229815Y-64392539D01*
X193177011Y-64438294D01*
X193125501Y-64449500D01*
X193002130Y-64449500D01*
X193002123Y-64449501D01*
X192942516Y-64455908D01*
X192846604Y-64491682D01*
X192803271Y-64499500D01*
X191196729Y-64499500D01*
X191153396Y-64491682D01*
X191057482Y-64455908D01*
X191057483Y-64455908D01*
X190997883Y-64449501D01*
X190997881Y-64449500D01*
X190997873Y-64449500D01*
X190997865Y-64449500D01*
X190874500Y-64449500D01*
X190807461Y-64429815D01*
X190761706Y-64377011D01*
X190750500Y-64325500D01*
X190750500Y-63942559D01*
X190770185Y-63875520D01*
X190786819Y-63854878D01*
X190858483Y-63783214D01*
X190962614Y-63639890D01*
X191043042Y-63482042D01*
X191097786Y-63313555D01*
X191125500Y-63138579D01*
X191125500Y-62961421D01*
X191097786Y-62786445D01*
X191043042Y-62617958D01*
X191043042Y-62617957D01*
X190962613Y-62460109D01*
X190858483Y-62316786D01*
X190733214Y-62191517D01*
X190589890Y-62087386D01*
X190432042Y-62006957D01*
X190432039Y-62006956D01*
X190263556Y-61952214D01*
X190176067Y-61938357D01*
X190088579Y-61924500D01*
X189911421Y-61924500D01*
X189853095Y-61933738D01*
X189736443Y-61952214D01*
X189567960Y-62006956D01*
X189567957Y-62006957D01*
X189410109Y-62087386D01*
X189328338Y-62146796D01*
X189266786Y-62191517D01*
X189266784Y-62191519D01*
X189266783Y-62191519D01*
X189141519Y-62316783D01*
X189141519Y-62316784D01*
X189141517Y-62316786D01*
X189096796Y-62378338D01*
X189037386Y-62460109D01*
X188956957Y-62617957D01*
X188956956Y-62617960D01*
X188902214Y-62786443D01*
X188902214Y-62786445D01*
X188874500Y-62961421D01*
X188874500Y-63138579D01*
X188882450Y-63188770D01*
X188902214Y-63313556D01*
X188956956Y-63482039D01*
X188956957Y-63482042D01*
X189037386Y-63639890D01*
X189141517Y-63783214D01*
X189141519Y-63783216D01*
X189213181Y-63854878D01*
X189246666Y-63916201D01*
X189249500Y-63942559D01*
X189249500Y-64325500D01*
X189229815Y-64392539D01*
X189177011Y-64438294D01*
X189125501Y-64449500D01*
X189002130Y-64449500D01*
X189002123Y-64449501D01*
X188942516Y-64455908D01*
X188846604Y-64491682D01*
X188803271Y-64499500D01*
X187196729Y-64499500D01*
X187153396Y-64491682D01*
X187057482Y-64455908D01*
X187057483Y-64455908D01*
X186997883Y-64449501D01*
X186997881Y-64449500D01*
X186997873Y-64449500D01*
X186997865Y-64449500D01*
X186874500Y-64449500D01*
X186807461Y-64429815D01*
X186761706Y-64377011D01*
X186750500Y-64325500D01*
X186750500Y-63942559D01*
X186770185Y-63875520D01*
X186786819Y-63854878D01*
X186858483Y-63783214D01*
X186962614Y-63639890D01*
X187043042Y-63482042D01*
X187097786Y-63313555D01*
X187125500Y-63138579D01*
X187125500Y-62961421D01*
X187097786Y-62786445D01*
X187043042Y-62617958D01*
X187043042Y-62617957D01*
X186962613Y-62460109D01*
X186858483Y-62316786D01*
X186733214Y-62191517D01*
X186589890Y-62087386D01*
X186432042Y-62006957D01*
X186432039Y-62006956D01*
X186263556Y-61952214D01*
X186176067Y-61938357D01*
X186088579Y-61924500D01*
X185911421Y-61924500D01*
X185853095Y-61933738D01*
X185736443Y-61952214D01*
X185567960Y-62006956D01*
X185567957Y-62006957D01*
X185410109Y-62087386D01*
X185328338Y-62146796D01*
X185266786Y-62191517D01*
X185266784Y-62191519D01*
X185266783Y-62191519D01*
X185141519Y-62316783D01*
X185141519Y-62316784D01*
X185141517Y-62316786D01*
X185096796Y-62378338D01*
X185037386Y-62460109D01*
X184956957Y-62617957D01*
X184956956Y-62617960D01*
X184902214Y-62786443D01*
X184902214Y-62786445D01*
X184874500Y-62961421D01*
X184874500Y-63138579D01*
X184882450Y-63188770D01*
X184902214Y-63313556D01*
X184956956Y-63482039D01*
X184956957Y-63482042D01*
X185037386Y-63639890D01*
X185141517Y-63783214D01*
X185141519Y-63783216D01*
X185213181Y-63854878D01*
X185246666Y-63916201D01*
X185249500Y-63942559D01*
X185249500Y-64325500D01*
X185229815Y-64392539D01*
X185177011Y-64438294D01*
X185125501Y-64449500D01*
X185002130Y-64449500D01*
X185002123Y-64449501D01*
X184942516Y-64455908D01*
X184846604Y-64491682D01*
X184803271Y-64499500D01*
X183196729Y-64499500D01*
X183153396Y-64491682D01*
X183057482Y-64455908D01*
X183057483Y-64455908D01*
X182997883Y-64449501D01*
X182997881Y-64449500D01*
X182997873Y-64449500D01*
X182997865Y-64449500D01*
X182874500Y-64449500D01*
X182807461Y-64429815D01*
X182761706Y-64377011D01*
X182750500Y-64325500D01*
X182750500Y-63942559D01*
X182770185Y-63875520D01*
X182786819Y-63854878D01*
X182858483Y-63783214D01*
X182962614Y-63639890D01*
X183043042Y-63482042D01*
X183097786Y-63313555D01*
X183125500Y-63138579D01*
X183125500Y-62961421D01*
X183097786Y-62786445D01*
X183043042Y-62617958D01*
X183043042Y-62617957D01*
X182962613Y-62460109D01*
X182858483Y-62316786D01*
X182733214Y-62191517D01*
X182589890Y-62087386D01*
X182432042Y-62006957D01*
X182432039Y-62006956D01*
X182263556Y-61952214D01*
X182176067Y-61938357D01*
X182088579Y-61924500D01*
X181911421Y-61924500D01*
X181853095Y-61933738D01*
X181736443Y-61952214D01*
X181567960Y-62006956D01*
X181567957Y-62006957D01*
X181410109Y-62087386D01*
X181328338Y-62146796D01*
X181266786Y-62191517D01*
X181266784Y-62191519D01*
X181266783Y-62191519D01*
X181141519Y-62316783D01*
X181141519Y-62316784D01*
X181141517Y-62316786D01*
X181096796Y-62378338D01*
X181037386Y-62460109D01*
X180956957Y-62617957D01*
X180956956Y-62617960D01*
X180902214Y-62786443D01*
X180902214Y-62786445D01*
X180874500Y-62961421D01*
X180874500Y-63138579D01*
X180882450Y-63188770D01*
X180902214Y-63313556D01*
X180956956Y-63482039D01*
X180956957Y-63482042D01*
X181037386Y-63639890D01*
X181141517Y-63783214D01*
X181141519Y-63783216D01*
X181213181Y-63854878D01*
X181246666Y-63916201D01*
X181249500Y-63942559D01*
X181249500Y-64325500D01*
X181229815Y-64392539D01*
X181177011Y-64438294D01*
X181125501Y-64449500D01*
X181002130Y-64449500D01*
X181002123Y-64449501D01*
X180942516Y-64455908D01*
X180846604Y-64491682D01*
X180803271Y-64499500D01*
X179196729Y-64499500D01*
X179153396Y-64491682D01*
X179057482Y-64455908D01*
X179057483Y-64455908D01*
X178997883Y-64449501D01*
X178997881Y-64449500D01*
X178997873Y-64449500D01*
X178997865Y-64449500D01*
X178874500Y-64449500D01*
X178807461Y-64429815D01*
X178761706Y-64377011D01*
X178750500Y-64325500D01*
X178750500Y-63942559D01*
X178770185Y-63875520D01*
X178786819Y-63854878D01*
X178858483Y-63783214D01*
X178962614Y-63639890D01*
X179043042Y-63482042D01*
X179097786Y-63313555D01*
X179125500Y-63138579D01*
X179125500Y-62961421D01*
X179097786Y-62786445D01*
X179043042Y-62617958D01*
X179043042Y-62617957D01*
X178962613Y-62460109D01*
X178858483Y-62316786D01*
X178733214Y-62191517D01*
X178589890Y-62087386D01*
X178432042Y-62006957D01*
X178432039Y-62006956D01*
X178263556Y-61952214D01*
X178176067Y-61938357D01*
X178088579Y-61924500D01*
X177911421Y-61924500D01*
X177853095Y-61933738D01*
X177736443Y-61952214D01*
X177567960Y-62006956D01*
X177567957Y-62006957D01*
X177410109Y-62087386D01*
X177328338Y-62146796D01*
X177266786Y-62191517D01*
X177266784Y-62191519D01*
X177266783Y-62191519D01*
X177141519Y-62316783D01*
X177141519Y-62316784D01*
X177141517Y-62316786D01*
X177096796Y-62378338D01*
X177037386Y-62460109D01*
X176956957Y-62617957D01*
X176956956Y-62617960D01*
X176902214Y-62786443D01*
X176902214Y-62786445D01*
X176874500Y-62961421D01*
X176874500Y-63138579D01*
X176882450Y-63188770D01*
X176902214Y-63313556D01*
X176956956Y-63482039D01*
X176956957Y-63482042D01*
X177037386Y-63639890D01*
X177141517Y-63783214D01*
X177141519Y-63783216D01*
X177213181Y-63854878D01*
X177246666Y-63916201D01*
X177249500Y-63942559D01*
X177249500Y-64325500D01*
X177229815Y-64392539D01*
X177177011Y-64438294D01*
X177125501Y-64449500D01*
X177002130Y-64449500D01*
X177002123Y-64449501D01*
X176942516Y-64455908D01*
X176846604Y-64491682D01*
X176803271Y-64499500D01*
X175196729Y-64499500D01*
X175153396Y-64491682D01*
X175057482Y-64455908D01*
X175057483Y-64455908D01*
X174997883Y-64449501D01*
X174997881Y-64449500D01*
X174997873Y-64449500D01*
X174997865Y-64449500D01*
X174874500Y-64449500D01*
X174807461Y-64429815D01*
X174761706Y-64377011D01*
X174750500Y-64325500D01*
X174750500Y-63942559D01*
X174770185Y-63875520D01*
X174786819Y-63854878D01*
X174858483Y-63783214D01*
X174962614Y-63639890D01*
X175043042Y-63482042D01*
X175097786Y-63313555D01*
X175125500Y-63138579D01*
X175125500Y-62961421D01*
X175097786Y-62786445D01*
X175043042Y-62617958D01*
X175043042Y-62617957D01*
X174962613Y-62460109D01*
X174858483Y-62316786D01*
X174733214Y-62191517D01*
X174589890Y-62087386D01*
X174432042Y-62006957D01*
X174432039Y-62006956D01*
X174263556Y-61952214D01*
X174176067Y-61938357D01*
X174088579Y-61924500D01*
X173911421Y-61924500D01*
X173853095Y-61933738D01*
X173736443Y-61952214D01*
X173567960Y-62006956D01*
X173567957Y-62006957D01*
X173410109Y-62087386D01*
X173328338Y-62146796D01*
X173266786Y-62191517D01*
X173266784Y-62191519D01*
X173266783Y-62191519D01*
X173141519Y-62316783D01*
X173141519Y-62316784D01*
X173141517Y-62316786D01*
X173096796Y-62378338D01*
X173037386Y-62460109D01*
X172956957Y-62617957D01*
X172956956Y-62617960D01*
X172902214Y-62786443D01*
X172902214Y-62786445D01*
X172874500Y-62961421D01*
X172874500Y-63138579D01*
X172882450Y-63188770D01*
X172902214Y-63313556D01*
X172956956Y-63482039D01*
X172956957Y-63482042D01*
X173037386Y-63639890D01*
X173141517Y-63783214D01*
X173141519Y-63783216D01*
X173213181Y-63854878D01*
X173246666Y-63916201D01*
X173249500Y-63942559D01*
X173249500Y-64325500D01*
X173229815Y-64392539D01*
X173177011Y-64438294D01*
X173125501Y-64449500D01*
X173002130Y-64449500D01*
X173002123Y-64449501D01*
X172942516Y-64455908D01*
X172846604Y-64491682D01*
X172803271Y-64499500D01*
X171196729Y-64499500D01*
X171153396Y-64491682D01*
X171057482Y-64455908D01*
X171057483Y-64455908D01*
X170997883Y-64449501D01*
X170997881Y-64449500D01*
X170997873Y-64449500D01*
X170997865Y-64449500D01*
X170874500Y-64449500D01*
X170807461Y-64429815D01*
X170761706Y-64377011D01*
X170750500Y-64325500D01*
X170750500Y-63942559D01*
X170770185Y-63875520D01*
X170786819Y-63854878D01*
X170858483Y-63783214D01*
X170962614Y-63639890D01*
X171043042Y-63482042D01*
X171097786Y-63313555D01*
X171125500Y-63138579D01*
X171125500Y-62961421D01*
X171097786Y-62786445D01*
X171043042Y-62617958D01*
X171043042Y-62617957D01*
X170962613Y-62460109D01*
X170858483Y-62316786D01*
X170733214Y-62191517D01*
X170589890Y-62087386D01*
X170432042Y-62006957D01*
X170432039Y-62006956D01*
X170263556Y-61952214D01*
X170176067Y-61938357D01*
X170088579Y-61924500D01*
X169911421Y-61924500D01*
X169853095Y-61933738D01*
X169736443Y-61952214D01*
X169567960Y-62006956D01*
X169567957Y-62006957D01*
X169410109Y-62087386D01*
X169328338Y-62146796D01*
X169266786Y-62191517D01*
X169266784Y-62191519D01*
X169266783Y-62191519D01*
X169141519Y-62316783D01*
X169141519Y-62316784D01*
X169141517Y-62316786D01*
X169096796Y-62378338D01*
X169037386Y-62460109D01*
X168956957Y-62617957D01*
X168956956Y-62617960D01*
X168902214Y-62786443D01*
X168902214Y-62786445D01*
X168874500Y-62961421D01*
X168874500Y-63138579D01*
X168882450Y-63188770D01*
X168902214Y-63313556D01*
X168956956Y-63482039D01*
X168956957Y-63482042D01*
X169037386Y-63639890D01*
X169141517Y-63783214D01*
X169141519Y-63783216D01*
X169213181Y-63854878D01*
X169246666Y-63916201D01*
X169249500Y-63942559D01*
X169249500Y-64325500D01*
X169229815Y-64392539D01*
X169177011Y-64438294D01*
X169125501Y-64449500D01*
X169002130Y-64449500D01*
X169002123Y-64449501D01*
X168942516Y-64455908D01*
X168846604Y-64491682D01*
X168803271Y-64499500D01*
X167196729Y-64499500D01*
X167153396Y-64491682D01*
X167057482Y-64455908D01*
X167057483Y-64455908D01*
X166997883Y-64449501D01*
X166997881Y-64449500D01*
X166997873Y-64449500D01*
X166997865Y-64449500D01*
X166874500Y-64449500D01*
X166807461Y-64429815D01*
X166761706Y-64377011D01*
X166750500Y-64325500D01*
X166750500Y-63942559D01*
X166770185Y-63875520D01*
X166786819Y-63854878D01*
X166858483Y-63783214D01*
X166962614Y-63639890D01*
X167043042Y-63482042D01*
X167097786Y-63313555D01*
X167125500Y-63138579D01*
X167125500Y-62961421D01*
X167097786Y-62786445D01*
X167043042Y-62617958D01*
X167043042Y-62617957D01*
X166962613Y-62460109D01*
X166858483Y-62316786D01*
X166733214Y-62191517D01*
X166589890Y-62087386D01*
X166432042Y-62006957D01*
X166432039Y-62006956D01*
X166263556Y-61952214D01*
X166176067Y-61938357D01*
X166088579Y-61924500D01*
X165911421Y-61924500D01*
X165853095Y-61933738D01*
X165736443Y-61952214D01*
X165567960Y-62006956D01*
X165567957Y-62006957D01*
X165410109Y-62087386D01*
X165328338Y-62146796D01*
X165266786Y-62191517D01*
X165266784Y-62191519D01*
X165266783Y-62191519D01*
X165141519Y-62316783D01*
X165141519Y-62316784D01*
X165141517Y-62316786D01*
X165096796Y-62378338D01*
X165037386Y-62460109D01*
X164956957Y-62617957D01*
X164956956Y-62617960D01*
X164902214Y-62786443D01*
X164902214Y-62786445D01*
X164874500Y-62961421D01*
X164874500Y-63138579D01*
X164882450Y-63188770D01*
X164902214Y-63313556D01*
X164956956Y-63482039D01*
X164956957Y-63482042D01*
X165037386Y-63639890D01*
X165141517Y-63783214D01*
X165141519Y-63783216D01*
X165213181Y-63854878D01*
X165246666Y-63916201D01*
X165249500Y-63942559D01*
X165249500Y-64325500D01*
X165229815Y-64392539D01*
X165177011Y-64438294D01*
X165125501Y-64449500D01*
X165002130Y-64449500D01*
X165002123Y-64449501D01*
X164942516Y-64455908D01*
X164846604Y-64491682D01*
X164803271Y-64499500D01*
X163196729Y-64499500D01*
X163153396Y-64491682D01*
X163057482Y-64455908D01*
X163057483Y-64455908D01*
X162997883Y-64449501D01*
X162997881Y-64449500D01*
X162997873Y-64449500D01*
X162997865Y-64449500D01*
X162874500Y-64449500D01*
X162807461Y-64429815D01*
X162761706Y-64377011D01*
X162750500Y-64325500D01*
X162750500Y-63942559D01*
X162770185Y-63875520D01*
X162786819Y-63854878D01*
X162858483Y-63783214D01*
X162962614Y-63639890D01*
X163043042Y-63482042D01*
X163097786Y-63313555D01*
X163125500Y-63138579D01*
X163125500Y-62961421D01*
X163097786Y-62786445D01*
X163043042Y-62617958D01*
X163043042Y-62617957D01*
X162962613Y-62460109D01*
X162858483Y-62316786D01*
X162733214Y-62191517D01*
X162589890Y-62087386D01*
X162432042Y-62006957D01*
X162432039Y-62006956D01*
X162263556Y-61952214D01*
X162176067Y-61938357D01*
X162088579Y-61924500D01*
X161911421Y-61924500D01*
X161853095Y-61933738D01*
X161736443Y-61952214D01*
X161567960Y-62006956D01*
X161567957Y-62006957D01*
X161410109Y-62087386D01*
X161328338Y-62146796D01*
X161266786Y-62191517D01*
X161266784Y-62191519D01*
X161266783Y-62191519D01*
X161141519Y-62316783D01*
X161141519Y-62316784D01*
X161141517Y-62316786D01*
X161096796Y-62378338D01*
X161037386Y-62460109D01*
X160956957Y-62617957D01*
X160956956Y-62617960D01*
X160902214Y-62786443D01*
X160902214Y-62786445D01*
X160874500Y-62961421D01*
X160874500Y-63138579D01*
X160882450Y-63188770D01*
X160902214Y-63313556D01*
X160956956Y-63482039D01*
X160956957Y-63482042D01*
X161037386Y-63639890D01*
X161141517Y-63783214D01*
X161141519Y-63783216D01*
X161213181Y-63854878D01*
X161246666Y-63916201D01*
X161249500Y-63942559D01*
X161249500Y-64325500D01*
X161229815Y-64392539D01*
X161177011Y-64438294D01*
X161125501Y-64449500D01*
X161002130Y-64449500D01*
X161002123Y-64449501D01*
X160942516Y-64455908D01*
X160846604Y-64491682D01*
X160803271Y-64499500D01*
X159195299Y-64499500D01*
X159151966Y-64491682D01*
X159057379Y-64456403D01*
X159057372Y-64456401D01*
X158997844Y-64450000D01*
X157624500Y-64450000D01*
X157557461Y-64430315D01*
X157511706Y-64377511D01*
X157500500Y-64326000D01*
X157500500Y-57230330D01*
X162499810Y-57230330D01*
X162520290Y-57372785D01*
X162520291Y-57372789D01*
X162580077Y-57503700D01*
X162580078Y-57503701D01*
X162580079Y-57503703D01*
X162617698Y-57550386D01*
X162617701Y-57550389D01*
X162617706Y-57550395D01*
X163747021Y-58679708D01*
X164099614Y-59032301D01*
X164146297Y-59069921D01*
X164146298Y-59069921D01*
X164146300Y-59069923D01*
X164243283Y-59114214D01*
X164296087Y-59159969D01*
X164304565Y-59175496D01*
X164348269Y-59271193D01*
X164385856Y-59317838D01*
X164949998Y-59881980D01*
X165704474Y-59127504D01*
X165721512Y-59191089D01*
X165787338Y-59305104D01*
X165880430Y-59398196D01*
X165994445Y-59464022D01*
X166058027Y-59481058D01*
X165303553Y-60235533D01*
X165303553Y-60235535D01*
X165867695Y-60799677D01*
X165914341Y-60837265D01*
X166010037Y-60880968D01*
X166062841Y-60926722D01*
X166071320Y-60942250D01*
X166115611Y-61039234D01*
X166115612Y-61039235D01*
X166115613Y-61039237D01*
X166153232Y-61085920D01*
X166153235Y-61085923D01*
X166153240Y-61085929D01*
X167384096Y-62316783D01*
X167635148Y-62567835D01*
X167681831Y-62605455D01*
X167681832Y-62605455D01*
X167681834Y-62605457D01*
X167812744Y-62665242D01*
X167812745Y-62665242D01*
X167812747Y-62665243D01*
X167955204Y-62685724D01*
X168097661Y-62665243D01*
X168228577Y-62605455D01*
X168275260Y-62567836D01*
X170817835Y-60025260D01*
X170855455Y-59978577D01*
X170915243Y-59847661D01*
X170935724Y-59705204D01*
X170915243Y-59562747D01*
X170870156Y-59464022D01*
X170855457Y-59431834D01*
X170855455Y-59431831D01*
X170817836Y-59385148D01*
X170817831Y-59385143D01*
X170817827Y-59385138D01*
X169335927Y-57903240D01*
X169335920Y-57903233D01*
X169289237Y-57865613D01*
X169221256Y-57834567D01*
X169192250Y-57821320D01*
X169139446Y-57775565D01*
X169130968Y-57760037D01*
X169087265Y-57664341D01*
X169049677Y-57617695D01*
X168485534Y-57053553D01*
X168485533Y-57053553D01*
X167731059Y-57808027D01*
X167714023Y-57744445D01*
X167648197Y-57630429D01*
X167555105Y-57537337D01*
X167441089Y-57471511D01*
X167377506Y-57454474D01*
X168131980Y-56700000D01*
X168131980Y-56699998D01*
X167567838Y-56135856D01*
X167521193Y-56098269D01*
X167425496Y-56054565D01*
X167372692Y-56008810D01*
X167364214Y-55993283D01*
X167319922Y-55896299D01*
X167319921Y-55896298D01*
X167319921Y-55896297D01*
X167282302Y-55849614D01*
X167282297Y-55849609D01*
X167282293Y-55849604D01*
X165800393Y-54367706D01*
X165800386Y-54367699D01*
X165753703Y-54330079D01*
X165753701Y-54330078D01*
X165753699Y-54330076D01*
X165622789Y-54270291D01*
X165622785Y-54270290D01*
X165480330Y-54249810D01*
X165337874Y-54270290D01*
X165337870Y-54270291D01*
X165206959Y-54330077D01*
X165160264Y-54367706D01*
X162617706Y-56910266D01*
X162617700Y-56910273D01*
X162580078Y-56956958D01*
X162580076Y-56956960D01*
X162520291Y-57087870D01*
X162520290Y-57087874D01*
X162499810Y-57230330D01*
X157500500Y-57230330D01*
X157500500Y-53244796D01*
X166464276Y-53244796D01*
X166484756Y-53387251D01*
X166484757Y-53387255D01*
X166544543Y-53518166D01*
X166544544Y-53518167D01*
X166544545Y-53518169D01*
X166582164Y-53564852D01*
X166582167Y-53564855D01*
X166582172Y-53564861D01*
X167710446Y-54693133D01*
X168064080Y-55046767D01*
X168110763Y-55084387D01*
X168110764Y-55084387D01*
X168110766Y-55084389D01*
X168207749Y-55128680D01*
X168260553Y-55174435D01*
X168269031Y-55189962D01*
X168312735Y-55285659D01*
X168350322Y-55332304D01*
X168914464Y-55896446D01*
X169668940Y-55141970D01*
X169685978Y-55205555D01*
X169751804Y-55319570D01*
X169844896Y-55412662D01*
X169958911Y-55478488D01*
X170022494Y-55495525D01*
X169268019Y-56250000D01*
X169832161Y-56814143D01*
X169878807Y-56851731D01*
X169974503Y-56895434D01*
X170027307Y-56941188D01*
X170035786Y-56956716D01*
X170080077Y-57053700D01*
X170080078Y-57053701D01*
X170080079Y-57053703D01*
X170117698Y-57100386D01*
X170117701Y-57100389D01*
X170117706Y-57100395D01*
X171261757Y-58244444D01*
X171599614Y-58582301D01*
X171646297Y-58619921D01*
X171646298Y-58619921D01*
X171646300Y-58619923D01*
X171777210Y-58679708D01*
X171777211Y-58679708D01*
X171777213Y-58679709D01*
X171919670Y-58700190D01*
X172062127Y-58679709D01*
X172193043Y-58619921D01*
X172239726Y-58582302D01*
X174362586Y-56459441D01*
X177728921Y-56459441D01*
X177749401Y-56601896D01*
X177749402Y-56601900D01*
X177809188Y-56732811D01*
X177809189Y-56732812D01*
X177809190Y-56732814D01*
X177846809Y-56779497D01*
X177846812Y-56779500D01*
X177846817Y-56779506D01*
X178961666Y-57894353D01*
X179328725Y-58261412D01*
X179375408Y-58299032D01*
X179375409Y-58299032D01*
X179375411Y-58299034D01*
X179472394Y-58343325D01*
X179525198Y-58389080D01*
X179533676Y-58404607D01*
X179577380Y-58500304D01*
X179614967Y-58546949D01*
X180179109Y-59111091D01*
X180933585Y-58356615D01*
X180950623Y-58420200D01*
X181016449Y-58534215D01*
X181109541Y-58627307D01*
X181223556Y-58693133D01*
X181287138Y-58710169D01*
X180532664Y-59464644D01*
X180532664Y-59464646D01*
X181096806Y-60028788D01*
X181143452Y-60066376D01*
X181239148Y-60110079D01*
X181291952Y-60155833D01*
X181300431Y-60171361D01*
X181344722Y-60268345D01*
X181344723Y-60268346D01*
X181344724Y-60268348D01*
X181382343Y-60315031D01*
X181382346Y-60315034D01*
X181382351Y-60315040D01*
X182864243Y-61796930D01*
X182864259Y-61796946D01*
X182910942Y-61834566D01*
X182910943Y-61834566D01*
X182910945Y-61834568D01*
X183041855Y-61894353D01*
X183041856Y-61894353D01*
X183041858Y-61894354D01*
X183184315Y-61914835D01*
X183326772Y-61894354D01*
X183457688Y-61834566D01*
X183504371Y-61796947D01*
X186046946Y-59254371D01*
X186084566Y-59207688D01*
X186144354Y-59076772D01*
X186164835Y-58934315D01*
X186144354Y-58791858D01*
X186084566Y-58660942D01*
X186046947Y-58614259D01*
X186046942Y-58614254D01*
X186046938Y-58614249D01*
X184565038Y-57132351D01*
X184565031Y-57132344D01*
X184518348Y-57094724D01*
X184421361Y-57050431D01*
X184368557Y-57004676D01*
X184360079Y-56989148D01*
X184316376Y-56893452D01*
X184278788Y-56846806D01*
X183714645Y-56282664D01*
X183714644Y-56282664D01*
X182960170Y-57037138D01*
X182943134Y-56973556D01*
X182877308Y-56859540D01*
X182784216Y-56766448D01*
X182670200Y-56700622D01*
X182606617Y-56683585D01*
X183361091Y-55929111D01*
X183361091Y-55929109D01*
X182796949Y-55364967D01*
X182750304Y-55327380D01*
X182654607Y-55283676D01*
X182601803Y-55237921D01*
X182593325Y-55222394D01*
X182549033Y-55125410D01*
X182549032Y-55125409D01*
X182549032Y-55125408D01*
X182511413Y-55078725D01*
X182511408Y-55078720D01*
X182511404Y-55078715D01*
X181029504Y-53596817D01*
X181029497Y-53596810D01*
X180982814Y-53559190D01*
X180982812Y-53559189D01*
X180982810Y-53559187D01*
X180851900Y-53499402D01*
X180851896Y-53499401D01*
X180709441Y-53478921D01*
X180566985Y-53499401D01*
X180566981Y-53499402D01*
X180436070Y-53559188D01*
X180389375Y-53596817D01*
X177846817Y-56139377D01*
X177846811Y-56139384D01*
X177809189Y-56186069D01*
X177809187Y-56186071D01*
X177749402Y-56316981D01*
X177749401Y-56316985D01*
X177728921Y-56459441D01*
X174362586Y-56459441D01*
X174782301Y-56039726D01*
X174819921Y-55993043D01*
X174879709Y-55862127D01*
X174900190Y-55719670D01*
X174879709Y-55577213D01*
X174819921Y-55446297D01*
X174782302Y-55399614D01*
X174782297Y-55399609D01*
X174782293Y-55399604D01*
X173300393Y-53917706D01*
X173300386Y-53917699D01*
X173253703Y-53880079D01*
X173156716Y-53835786D01*
X173103912Y-53790031D01*
X173095434Y-53774503D01*
X173051731Y-53678807D01*
X173014143Y-53632161D01*
X172450000Y-53068019D01*
X172449999Y-53068019D01*
X171695525Y-53822493D01*
X171678489Y-53758911D01*
X171612663Y-53644895D01*
X171519571Y-53551803D01*
X171405555Y-53485977D01*
X171341971Y-53468939D01*
X172096446Y-52714465D01*
X172096446Y-52714464D01*
X171532304Y-52150322D01*
X171485659Y-52112735D01*
X171389962Y-52069031D01*
X171337158Y-52023276D01*
X171328680Y-52007749D01*
X171284388Y-51910765D01*
X171284387Y-51910764D01*
X171284387Y-51910763D01*
X171246768Y-51864080D01*
X171246763Y-51864075D01*
X171246759Y-51864070D01*
X169764859Y-50382172D01*
X169764852Y-50382165D01*
X169718169Y-50344545D01*
X169718167Y-50344544D01*
X169718165Y-50344542D01*
X169587255Y-50284757D01*
X169587251Y-50284756D01*
X169444796Y-50264276D01*
X169302340Y-50284756D01*
X169302336Y-50284757D01*
X169171425Y-50344543D01*
X169124730Y-50382172D01*
X166582172Y-52924732D01*
X166582166Y-52924739D01*
X166544544Y-52971424D01*
X166544542Y-52971426D01*
X166484757Y-53102336D01*
X166484756Y-53102340D01*
X166464276Y-53244796D01*
X157500500Y-53244796D01*
X157500500Y-49262563D01*
X170532043Y-49262563D01*
X170552523Y-49405018D01*
X170552524Y-49405022D01*
X170612310Y-49535933D01*
X170612311Y-49535934D01*
X170612312Y-49535936D01*
X170649931Y-49582619D01*
X170649934Y-49582622D01*
X170649939Y-49582628D01*
X171790636Y-50723323D01*
X172131847Y-51064534D01*
X172178530Y-51102154D01*
X172178531Y-51102154D01*
X172178533Y-51102156D01*
X172275516Y-51146447D01*
X172328320Y-51192202D01*
X172336798Y-51207729D01*
X172380502Y-51303426D01*
X172418089Y-51350071D01*
X172982231Y-51914213D01*
X173736707Y-51159737D01*
X173753745Y-51223322D01*
X173819571Y-51337337D01*
X173912663Y-51430429D01*
X174026678Y-51496255D01*
X174090261Y-51513292D01*
X173335786Y-52267767D01*
X173899928Y-52831910D01*
X173946574Y-52869498D01*
X174042270Y-52913201D01*
X174095074Y-52958955D01*
X174103553Y-52974483D01*
X174147844Y-53071467D01*
X174147845Y-53071468D01*
X174147846Y-53071470D01*
X174185465Y-53118153D01*
X174185468Y-53118156D01*
X174185473Y-53118162D01*
X175317123Y-54249810D01*
X175667381Y-54600068D01*
X175714064Y-54637688D01*
X175714065Y-54637688D01*
X175714067Y-54637690D01*
X175844977Y-54697475D01*
X175844978Y-54697475D01*
X175844980Y-54697476D01*
X175987437Y-54717957D01*
X176129894Y-54697476D01*
X176260810Y-54637688D01*
X176307493Y-54600069D01*
X178448120Y-52459441D01*
X181728921Y-52459441D01*
X181749401Y-52601896D01*
X181749402Y-52601900D01*
X181809188Y-52732811D01*
X181809189Y-52732812D01*
X181809190Y-52732814D01*
X181846809Y-52779497D01*
X181846812Y-52779500D01*
X181846817Y-52779506D01*
X182961666Y-53894353D01*
X183328725Y-54261412D01*
X183375408Y-54299032D01*
X183375409Y-54299032D01*
X183375411Y-54299034D01*
X183472394Y-54343325D01*
X183525198Y-54389080D01*
X183533676Y-54404607D01*
X183577380Y-54500304D01*
X183614967Y-54546949D01*
X184179109Y-55111091D01*
X184933585Y-54356615D01*
X184950623Y-54420200D01*
X185016449Y-54534215D01*
X185109541Y-54627307D01*
X185223556Y-54693133D01*
X185287138Y-54710169D01*
X184532664Y-55464644D01*
X184532664Y-55464646D01*
X185096806Y-56028788D01*
X185143452Y-56066376D01*
X185239148Y-56110079D01*
X185291952Y-56155833D01*
X185300431Y-56171361D01*
X185344722Y-56268345D01*
X185344723Y-56268346D01*
X185344724Y-56268348D01*
X185382343Y-56315031D01*
X185382346Y-56315034D01*
X185382351Y-56315040D01*
X186504750Y-57437437D01*
X186864259Y-57796946D01*
X186910942Y-57834566D01*
X186910943Y-57834566D01*
X186910945Y-57834568D01*
X187041855Y-57894353D01*
X187041856Y-57894353D01*
X187041858Y-57894354D01*
X187184315Y-57914835D01*
X187326772Y-57894354D01*
X187457688Y-57834566D01*
X187504371Y-57796947D01*
X190046946Y-55254371D01*
X190084566Y-55207688D01*
X190144354Y-55076772D01*
X190164835Y-54934315D01*
X190144354Y-54791858D01*
X190084566Y-54660942D01*
X190046947Y-54614259D01*
X190046942Y-54614254D01*
X190046938Y-54614249D01*
X188565038Y-53132351D01*
X188565031Y-53132344D01*
X188518348Y-53094724D01*
X188467429Y-53071470D01*
X188421361Y-53050431D01*
X188368557Y-53004676D01*
X188360079Y-52989148D01*
X188316376Y-52893452D01*
X188278788Y-52846806D01*
X187714645Y-52282664D01*
X187714644Y-52282664D01*
X186960170Y-53037138D01*
X186943134Y-52973556D01*
X186877308Y-52859540D01*
X186784216Y-52766448D01*
X186670200Y-52700622D01*
X186606616Y-52683584D01*
X187361091Y-51929110D01*
X187361091Y-51929109D01*
X186796949Y-51364967D01*
X186750304Y-51327380D01*
X186654607Y-51283676D01*
X186601803Y-51237921D01*
X186593325Y-51222394D01*
X186549033Y-51125410D01*
X186549032Y-51125409D01*
X186549032Y-51125408D01*
X186511413Y-51078725D01*
X186511408Y-51078720D01*
X186511404Y-51078715D01*
X185029504Y-49596817D01*
X185029497Y-49596810D01*
X184982814Y-49559190D01*
X184982812Y-49559189D01*
X184982810Y-49559187D01*
X184851900Y-49499402D01*
X184851896Y-49499401D01*
X184709441Y-49478921D01*
X184566985Y-49499401D01*
X184566981Y-49499402D01*
X184436070Y-49559188D01*
X184389375Y-49596817D01*
X181846817Y-52139377D01*
X181846811Y-52139384D01*
X181809189Y-52186069D01*
X181809187Y-52186071D01*
X181749402Y-52316981D01*
X181749401Y-52316985D01*
X181728921Y-52459441D01*
X178448120Y-52459441D01*
X178850068Y-52057493D01*
X178887688Y-52010810D01*
X178947476Y-51879894D01*
X178967957Y-51737437D01*
X178947476Y-51594980D01*
X178887688Y-51464064D01*
X178850069Y-51417381D01*
X178850064Y-51417376D01*
X178850060Y-51417371D01*
X177368160Y-49935473D01*
X177368153Y-49935466D01*
X177321470Y-49897846D01*
X177313821Y-49894353D01*
X177224483Y-49853553D01*
X177171679Y-49807798D01*
X177163201Y-49792270D01*
X177119498Y-49696574D01*
X177081910Y-49649928D01*
X176517767Y-49085786D01*
X176517766Y-49085786D01*
X175763292Y-49840260D01*
X175746256Y-49776678D01*
X175680430Y-49662662D01*
X175587338Y-49569570D01*
X175473322Y-49503744D01*
X175409738Y-49486706D01*
X176164213Y-48732232D01*
X176164213Y-48732231D01*
X175600071Y-48168089D01*
X175553426Y-48130502D01*
X175457729Y-48086798D01*
X175404925Y-48041043D01*
X175396447Y-48025516D01*
X175352155Y-47928532D01*
X175352154Y-47928531D01*
X175352154Y-47928530D01*
X175314535Y-47881847D01*
X175314530Y-47881842D01*
X175314526Y-47881837D01*
X173832626Y-46399939D01*
X173832619Y-46399932D01*
X173785936Y-46362312D01*
X173785934Y-46362311D01*
X173785932Y-46362309D01*
X173655022Y-46302524D01*
X173655018Y-46302523D01*
X173512563Y-46282043D01*
X173370107Y-46302523D01*
X173370103Y-46302524D01*
X173239192Y-46362310D01*
X173192497Y-46399939D01*
X170649939Y-48942499D01*
X170649933Y-48942506D01*
X170612311Y-48989191D01*
X170612309Y-48989193D01*
X170552524Y-49120103D01*
X170552523Y-49120107D01*
X170532043Y-49262563D01*
X157500500Y-49262563D01*
X157500500Y-44289818D01*
X158400000Y-44289818D01*
X158400000Y-44510181D01*
X158434473Y-44727835D01*
X158502567Y-44937410D01*
X158602611Y-45133756D01*
X158648932Y-45197513D01*
X159235387Y-44611058D01*
X159240889Y-44631591D01*
X159319881Y-44768408D01*
X159431592Y-44880119D01*
X159568409Y-44959111D01*
X159588939Y-44964612D01*
X159002485Y-45551065D01*
X159002485Y-45551066D01*
X159066243Y-45597388D01*
X159262589Y-45697432D01*
X159472164Y-45765526D01*
X159689819Y-45800000D01*
X159910181Y-45800000D01*
X160127835Y-45765526D01*
X160337410Y-45697432D01*
X160533760Y-45597386D01*
X160597513Y-45551066D01*
X160597514Y-45551066D01*
X160011059Y-44964612D01*
X160031591Y-44959111D01*
X160168408Y-44880119D01*
X160280119Y-44768408D01*
X160359111Y-44631591D01*
X160364612Y-44611060D01*
X160951066Y-45197514D01*
X160951066Y-45197513D01*
X160997386Y-45133760D01*
X161097432Y-44937410D01*
X161165526Y-44727835D01*
X161200000Y-44510181D01*
X161200000Y-44289818D01*
X161165526Y-44072164D01*
X161097432Y-43862589D01*
X160997388Y-43666243D01*
X160951066Y-43602485D01*
X160951065Y-43602485D01*
X160364612Y-44188939D01*
X160359111Y-44168409D01*
X160280119Y-44031592D01*
X160168408Y-43919881D01*
X160031591Y-43840889D01*
X160011058Y-43835387D01*
X160394311Y-43452135D01*
X163399500Y-43452135D01*
X163399500Y-45347870D01*
X163399501Y-45347876D01*
X163405908Y-45407483D01*
X163456202Y-45542328D01*
X163456206Y-45542335D01*
X163542452Y-45657544D01*
X163542455Y-45657547D01*
X163657664Y-45743793D01*
X163657671Y-45743797D01*
X163792517Y-45794091D01*
X163792516Y-45794091D01*
X163799444Y-45794835D01*
X163852127Y-45800500D01*
X165747872Y-45800499D01*
X165807483Y-45794091D01*
X165942331Y-45743796D01*
X166057546Y-45657546D01*
X166143796Y-45542331D01*
X166194091Y-45407483D01*
X166200500Y-45347873D01*
X166200500Y-45230330D01*
X174549810Y-45230330D01*
X174570290Y-45372785D01*
X174570291Y-45372789D01*
X174630077Y-45503700D01*
X174630078Y-45503701D01*
X174630079Y-45503703D01*
X174667698Y-45550386D01*
X174667701Y-45550389D01*
X174667706Y-45550395D01*
X175808403Y-46691090D01*
X176149614Y-47032301D01*
X176196297Y-47069921D01*
X176196298Y-47069921D01*
X176196300Y-47069923D01*
X176293283Y-47114214D01*
X176346087Y-47159969D01*
X176354565Y-47175496D01*
X176398269Y-47271193D01*
X176435856Y-47317838D01*
X176999998Y-47881980D01*
X177754474Y-47127504D01*
X177771512Y-47191089D01*
X177837338Y-47305104D01*
X177930430Y-47398196D01*
X178044445Y-47464022D01*
X178108028Y-47481059D01*
X177353553Y-48235534D01*
X177917695Y-48799677D01*
X177964341Y-48837265D01*
X178060037Y-48880968D01*
X178112841Y-48926722D01*
X178121320Y-48942250D01*
X178165611Y-49039234D01*
X178165612Y-49039235D01*
X178165613Y-49039237D01*
X178203232Y-49085920D01*
X178203235Y-49085923D01*
X178203240Y-49085929D01*
X179378717Y-50261404D01*
X179685148Y-50567835D01*
X179731831Y-50605455D01*
X179731832Y-50605455D01*
X179731834Y-50605457D01*
X179862744Y-50665242D01*
X179862745Y-50665242D01*
X179862747Y-50665243D01*
X180005204Y-50685724D01*
X180147661Y-50665243D01*
X180278577Y-50605455D01*
X180325260Y-50567836D01*
X182433654Y-48459441D01*
X185675799Y-48459441D01*
X185696279Y-48601896D01*
X185696280Y-48601900D01*
X185756066Y-48732811D01*
X185756067Y-48732812D01*
X185756068Y-48732814D01*
X185793687Y-48779497D01*
X185793690Y-48779500D01*
X185793695Y-48779506D01*
X186908544Y-49894353D01*
X187275603Y-50261412D01*
X187322286Y-50299032D01*
X187322287Y-50299032D01*
X187322289Y-50299034D01*
X187419272Y-50343325D01*
X187472076Y-50389080D01*
X187480554Y-50404607D01*
X187524258Y-50500304D01*
X187561845Y-50546949D01*
X188125987Y-51111091D01*
X188880463Y-50356615D01*
X188897501Y-50420200D01*
X188963327Y-50534215D01*
X189056419Y-50627307D01*
X189170434Y-50693133D01*
X189234017Y-50710170D01*
X188479542Y-51464645D01*
X189043684Y-52028788D01*
X189090330Y-52066376D01*
X189186026Y-52110079D01*
X189238830Y-52155833D01*
X189247309Y-52171361D01*
X189291600Y-52268345D01*
X189291601Y-52268346D01*
X189291602Y-52268348D01*
X189329221Y-52315031D01*
X189329224Y-52315034D01*
X189329229Y-52315040D01*
X190466094Y-53451903D01*
X190811137Y-53796946D01*
X190857820Y-53834566D01*
X190857821Y-53834566D01*
X190857823Y-53834568D01*
X190988733Y-53894353D01*
X190988734Y-53894353D01*
X190988736Y-53894354D01*
X191131193Y-53914835D01*
X191273650Y-53894354D01*
X191404566Y-53834566D01*
X191451249Y-53796947D01*
X193993824Y-51254371D01*
X194031444Y-51207688D01*
X194091232Y-51076772D01*
X194111713Y-50934315D01*
X194091232Y-50791858D01*
X194031444Y-50660942D01*
X193993825Y-50614259D01*
X193993820Y-50614254D01*
X193993816Y-50614249D01*
X192511916Y-49132351D01*
X192511909Y-49132344D01*
X192465226Y-49094724D01*
X192368239Y-49050431D01*
X192315435Y-49004676D01*
X192306957Y-48989148D01*
X192263254Y-48893452D01*
X192225666Y-48846806D01*
X191661523Y-48282664D01*
X191661522Y-48282664D01*
X190907048Y-49037138D01*
X190890012Y-48973556D01*
X190824186Y-48859540D01*
X190731094Y-48766448D01*
X190617078Y-48700622D01*
X190553495Y-48683585D01*
X191307969Y-47929111D01*
X191307969Y-47929109D01*
X190743827Y-47364967D01*
X190697182Y-47327380D01*
X190601485Y-47283676D01*
X190548681Y-47237921D01*
X190540203Y-47222394D01*
X190495911Y-47125410D01*
X190495910Y-47125409D01*
X190495910Y-47125408D01*
X190458291Y-47078725D01*
X190458286Y-47078720D01*
X190458282Y-47078715D01*
X188976382Y-45596817D01*
X188976375Y-45596810D01*
X188929692Y-45559190D01*
X188929690Y-45559189D01*
X188929688Y-45559187D01*
X188798778Y-45499402D01*
X188798774Y-45499401D01*
X188656319Y-45478921D01*
X188513863Y-45499401D01*
X188513859Y-45499402D01*
X188382948Y-45559188D01*
X188336253Y-45596817D01*
X185793695Y-48139377D01*
X185793689Y-48139384D01*
X185756067Y-48186069D01*
X185756065Y-48186071D01*
X185696280Y-48316981D01*
X185696279Y-48316985D01*
X185675799Y-48459441D01*
X182433654Y-48459441D01*
X182867835Y-48025260D01*
X182905455Y-47978577D01*
X182965243Y-47847661D01*
X182985724Y-47705204D01*
X182965243Y-47562747D01*
X182905455Y-47431831D01*
X182867836Y-47385148D01*
X182867831Y-47385143D01*
X182867827Y-47385138D01*
X181385927Y-45903240D01*
X181385920Y-45903233D01*
X181339237Y-45865613D01*
X181242250Y-45821320D01*
X181189446Y-45775565D01*
X181180968Y-45760037D01*
X181137265Y-45664341D01*
X181099677Y-45617695D01*
X180535534Y-45053553D01*
X180535533Y-45053553D01*
X179781059Y-45808027D01*
X179764023Y-45744445D01*
X179698197Y-45630429D01*
X179605105Y-45537337D01*
X179491089Y-45471511D01*
X179427505Y-45454473D01*
X180181980Y-44699999D01*
X180020235Y-44538254D01*
X179941422Y-44459441D01*
X189728921Y-44459441D01*
X189749401Y-44601896D01*
X189749402Y-44601900D01*
X189809188Y-44732811D01*
X189809189Y-44732812D01*
X189809190Y-44732814D01*
X189846809Y-44779497D01*
X189846812Y-44779500D01*
X189846817Y-44779506D01*
X190970545Y-45903232D01*
X191328725Y-46261412D01*
X191375408Y-46299032D01*
X191375409Y-46299032D01*
X191375411Y-46299034D01*
X191472394Y-46343325D01*
X191525198Y-46389080D01*
X191533676Y-46404607D01*
X191577380Y-46500304D01*
X191614967Y-46546949D01*
X192179109Y-47111091D01*
X192933585Y-46356615D01*
X192950623Y-46420200D01*
X193016449Y-46534215D01*
X193109541Y-46627307D01*
X193223556Y-46693133D01*
X193287139Y-46710170D01*
X192532664Y-47464645D01*
X193096806Y-48028788D01*
X193143452Y-48066376D01*
X193239148Y-48110079D01*
X193291952Y-48155833D01*
X193300431Y-48171361D01*
X193344722Y-48268345D01*
X193344723Y-48268346D01*
X193344724Y-48268348D01*
X193382343Y-48315031D01*
X193382346Y-48315034D01*
X193382351Y-48315040D01*
X194536983Y-49469670D01*
X194864259Y-49796946D01*
X194910942Y-49834566D01*
X194910943Y-49834566D01*
X194910945Y-49834568D01*
X195041855Y-49894353D01*
X195041856Y-49894353D01*
X195041858Y-49894354D01*
X195184315Y-49914835D01*
X195326772Y-49894354D01*
X195457688Y-49834566D01*
X195504371Y-49796947D01*
X198046946Y-47254371D01*
X198084566Y-47207688D01*
X198144354Y-47076772D01*
X198164835Y-46934315D01*
X198144354Y-46791858D01*
X198084566Y-46660942D01*
X198046947Y-46614259D01*
X198046942Y-46614254D01*
X198046938Y-46614249D01*
X196565038Y-45132351D01*
X196565031Y-45132344D01*
X196518348Y-45094724D01*
X196421361Y-45050431D01*
X196368557Y-45004676D01*
X196360079Y-44989148D01*
X196316376Y-44893452D01*
X196278788Y-44846806D01*
X195714645Y-44282664D01*
X195714644Y-44282664D01*
X194960170Y-45037138D01*
X194943134Y-44973556D01*
X194877308Y-44859540D01*
X194784216Y-44766448D01*
X194670200Y-44700622D01*
X194606616Y-44683584D01*
X195361091Y-43929110D01*
X195361091Y-43929109D01*
X194796949Y-43364967D01*
X194750304Y-43327380D01*
X194654607Y-43283676D01*
X194601803Y-43237921D01*
X194593325Y-43222394D01*
X194549033Y-43125410D01*
X194549032Y-43125409D01*
X194549032Y-43125408D01*
X194511413Y-43078725D01*
X194511408Y-43078720D01*
X194511404Y-43078715D01*
X193029504Y-41596817D01*
X193029497Y-41596810D01*
X192982814Y-41559190D01*
X192982812Y-41559189D01*
X192982810Y-41559187D01*
X192851900Y-41499402D01*
X192851896Y-41499401D01*
X192709441Y-41478921D01*
X192566985Y-41499401D01*
X192566981Y-41499402D01*
X192436070Y-41559188D01*
X192389375Y-41596817D01*
X189846817Y-44139377D01*
X189846811Y-44139384D01*
X189809189Y-44186069D01*
X189809187Y-44186071D01*
X189749402Y-44316981D01*
X189749401Y-44316985D01*
X189728921Y-44459441D01*
X179941422Y-44459441D01*
X179617838Y-44135856D01*
X179571193Y-44098269D01*
X179475496Y-44054565D01*
X179422692Y-44008810D01*
X179414214Y-43993283D01*
X179369922Y-43896299D01*
X179369921Y-43896298D01*
X179369921Y-43896297D01*
X179332302Y-43849614D01*
X179332297Y-43849609D01*
X179332293Y-43849604D01*
X177850393Y-42367706D01*
X177850386Y-42367699D01*
X177803703Y-42330079D01*
X177803701Y-42330078D01*
X177803699Y-42330076D01*
X177672789Y-42270291D01*
X177672785Y-42270290D01*
X177530330Y-42249810D01*
X177387874Y-42270290D01*
X177387870Y-42270291D01*
X177256959Y-42330077D01*
X177210264Y-42367706D01*
X174667706Y-44910266D01*
X174667700Y-44910273D01*
X174630078Y-44956958D01*
X174630076Y-44956960D01*
X174570291Y-45087870D01*
X174570290Y-45087874D01*
X174549810Y-45230330D01*
X166200500Y-45230330D01*
X166200499Y-44400000D01*
X166200499Y-43452129D01*
X166200498Y-43452123D01*
X166200497Y-43452116D01*
X166194091Y-43392517D01*
X166169796Y-43327380D01*
X166143797Y-43257671D01*
X166143793Y-43257664D01*
X166057547Y-43142455D01*
X166057544Y-43142452D01*
X165942335Y-43056206D01*
X165942328Y-43056202D01*
X165807482Y-43005908D01*
X165807483Y-43005908D01*
X165747883Y-42999501D01*
X165747881Y-42999500D01*
X165747873Y-42999500D01*
X165747864Y-42999500D01*
X163852129Y-42999500D01*
X163852123Y-42999501D01*
X163792516Y-43005908D01*
X163657671Y-43056202D01*
X163657664Y-43056206D01*
X163542455Y-43142452D01*
X163542452Y-43142455D01*
X163456206Y-43257664D01*
X163456202Y-43257671D01*
X163405908Y-43392517D01*
X163399501Y-43452116D01*
X163399501Y-43452123D01*
X163399500Y-43452135D01*
X160394311Y-43452135D01*
X160485321Y-43361125D01*
X160597513Y-43248932D01*
X160533756Y-43202611D01*
X160337410Y-43102567D01*
X160127835Y-43034473D01*
X159910181Y-43000000D01*
X159689819Y-43000000D01*
X159472164Y-43034473D01*
X159262589Y-43102567D01*
X159066233Y-43202616D01*
X159002485Y-43248931D01*
X159002485Y-43248932D01*
X159588940Y-43835387D01*
X159568409Y-43840889D01*
X159431592Y-43919881D01*
X159319881Y-44031592D01*
X159240889Y-44168409D01*
X159235387Y-44188940D01*
X158648932Y-43602485D01*
X158648931Y-43602485D01*
X158602616Y-43666233D01*
X158502567Y-43862589D01*
X158434473Y-44072164D01*
X158400000Y-44289818D01*
X157500500Y-44289818D01*
X157500500Y-40624500D01*
X157520185Y-40557461D01*
X157572989Y-40511706D01*
X157624500Y-40500500D01*
X198375500Y-40500500D01*
X198442539Y-40520185D01*
G37*
G04 #@! TD.AperFunction*
M02*
