G04 #@! TF.GenerationSoftware,KiCad,Pcbnew,9.0.1*
G04 #@! TF.CreationDate,2025-06-01T13:14:11+02:00*
G04 #@! TF.ProjectId,Sim-module,53696d2d-6d6f-4647-956c-652e6b696361,rev?*
G04 #@! TF.SameCoordinates,Original*
G04 #@! TF.FileFunction,Copper,L1,Top*
G04 #@! TF.FilePolarity,Positive*
%FSLAX46Y46*%
G04 Gerber Fmt 4.6, Leading zero omitted, Abs format (unit mm)*
G04 Created by KiCad (PCBNEW 9.0.1) date 2025-06-01 13:14:11*
%MOMM*%
%LPD*%
G01*
G04 APERTURE LIST*
G04 Aperture macros list*
%AMRotRect*
0 Rectangle, with rotation*
0 The origin of the aperture is its center*
0 $1 length*
0 $2 width*
0 $3 Rotation angle, in degrees counterclockwise*
0 Add horizontal line*
21,1,$1,$2,0,0,$3*%
G04 Aperture macros list end*
G04 #@! TA.AperFunction,ConnectorPad*
%ADD10R,1.900000X9.000000*%
G04 #@! TD*
G04 #@! TA.AperFunction,ComponentPad*
%ADD11RotRect,3.500000X2.000000X45.000000*%
G04 #@! TD*
G04 #@! TA.AperFunction,ComponentPad*
%ADD12R,1.800000X1.800000*%
G04 #@! TD*
G04 #@! TA.AperFunction,ComponentPad*
%ADD13C,1.800000*%
G04 #@! TD*
G04 #@! TA.AperFunction,ViaPad*
%ADD14C,1.250000*%
G04 #@! TD*
G04 #@! TA.AperFunction,Conductor*
%ADD15C,0.500000*%
G04 #@! TD*
G04 APERTURE END LIST*
D10*
X170000000Y-69450000D03*
X178000000Y-69450000D03*
X194000000Y-69450000D03*
X158000000Y-69450000D03*
D11*
X177000000Y-44700000D03*
X178767767Y-46467767D03*
X180535534Y-48235534D03*
X180179111Y-55929111D03*
X181946878Y-57696878D03*
X183714645Y-59464645D03*
D12*
X164800000Y-44400000D03*
D13*
X159800000Y-44400000D03*
D11*
X192179111Y-43929111D03*
X193946878Y-45696878D03*
X195714645Y-47464645D03*
X168914466Y-52714466D03*
X170682233Y-54482233D03*
X172450000Y-56250000D03*
D10*
X162000000Y-69450000D03*
D11*
X172982233Y-48732233D03*
X174750000Y-50500000D03*
X176517767Y-52267767D03*
X188125989Y-47929111D03*
X189893756Y-49696878D03*
X191661523Y-51464645D03*
D10*
X182000000Y-69450000D03*
D11*
X184179111Y-51929111D03*
X185946878Y-53696878D03*
X187714645Y-55464645D03*
D10*
X174000000Y-69450000D03*
X190000000Y-69450000D03*
D11*
X164950000Y-56700000D03*
X166717767Y-58467767D03*
X168485534Y-60235534D03*
D10*
X186000000Y-69450000D03*
X198000000Y-69450000D03*
X166000000Y-69450000D03*
D14*
X170000000Y-63050000D03*
X174000000Y-63050000D03*
X178000000Y-63050000D03*
X182000000Y-63050000D03*
X186000000Y-63050000D03*
X166000000Y-63050000D03*
X162000000Y-63050000D03*
X158675000Y-63100000D03*
X190000000Y-63050000D03*
X194000000Y-63050000D03*
X197000000Y-63050000D03*
D15*
X170000000Y-63050000D02*
X170000000Y-69450000D01*
X170000000Y-61750000D02*
X168485534Y-60235534D01*
X170000000Y-63050000D02*
X170000000Y-61750000D01*
X174000000Y-63050000D02*
X174000000Y-69450000D01*
X172450000Y-56250000D02*
X172450000Y-59900000D01*
X172450000Y-59900000D02*
X174000000Y-61450000D01*
X174000000Y-61450000D02*
X174000000Y-63050000D01*
X178000000Y-63050000D02*
X175500000Y-60550000D01*
X175500000Y-53285534D02*
X176517767Y-52267767D01*
X175500000Y-60550000D02*
X175500000Y-53285534D01*
X178000000Y-63050000D02*
X178000000Y-69450000D01*
X176900000Y-57950000D02*
X176900000Y-55250000D01*
X182000000Y-63050000D02*
X176900000Y-57950000D01*
X180535534Y-51614466D02*
X180535534Y-48235534D01*
X176900000Y-55250000D02*
X180535534Y-51614466D01*
X182000000Y-63050000D02*
X182000000Y-69450000D01*
X186000000Y-63050000D02*
X186000000Y-69450000D01*
X186000000Y-63050000D02*
X186000000Y-61750000D01*
X186000000Y-61750000D02*
X183714645Y-59464645D01*
X162000000Y-63050000D02*
X162000000Y-69450000D01*
X166000000Y-63050000D02*
X166000000Y-69450000D01*
X158000000Y-63775000D02*
X158000000Y-69450000D01*
X158675000Y-63100000D02*
X158000000Y-63775000D01*
X190000000Y-63050000D02*
X190000000Y-57750000D01*
X190000000Y-63050000D02*
X190000000Y-69450000D01*
X190000000Y-57750000D02*
X187714645Y-55464645D01*
X194000000Y-53800000D02*
X193400000Y-53200000D01*
X193396878Y-53200000D02*
X191661523Y-51464645D01*
X194000000Y-63050000D02*
X194000000Y-53800000D01*
X193400000Y-53200000D02*
X193396878Y-53200000D01*
X194000000Y-63050000D02*
X194000000Y-69450000D01*
X195714645Y-47464645D02*
X197000000Y-48750000D01*
X198000000Y-64050000D02*
X198000000Y-69450000D01*
X197000000Y-48750000D02*
X197000000Y-63050000D01*
X197000000Y-63050000D02*
X198000000Y-64050000D01*
G04 #@! TA.AperFunction,Conductor*
G36*
X198442539Y-40520185D02*
G01*
X198488294Y-40572989D01*
X198499500Y-40624500D01*
X198499500Y-63188770D01*
X198493261Y-63210015D01*
X198491682Y-63232104D01*
X198483609Y-63242887D01*
X198479815Y-63255809D01*
X198463081Y-63270308D01*
X198449810Y-63288037D01*
X198437189Y-63292744D01*
X198427011Y-63301564D01*
X198405093Y-63304715D01*
X198384346Y-63312454D01*
X198371185Y-63309591D01*
X198357853Y-63311508D01*
X198337709Y-63302308D01*
X198316073Y-63297602D01*
X198298347Y-63284333D01*
X198294297Y-63282483D01*
X198287819Y-63276451D01*
X198161819Y-63150451D01*
X198128334Y-63089128D01*
X198125500Y-63062770D01*
X198125500Y-62961421D01*
X198105705Y-62836443D01*
X198097786Y-62786445D01*
X198065060Y-62685723D01*
X198043043Y-62617960D01*
X198043042Y-62617957D01*
X197962613Y-62460109D01*
X197858483Y-62316786D01*
X197786819Y-62245122D01*
X197753334Y-62183799D01*
X197750500Y-62157441D01*
X197750500Y-48676079D01*
X197721659Y-48531092D01*
X197721658Y-48531091D01*
X197721658Y-48531087D01*
X197721656Y-48531082D01*
X197665087Y-48394511D01*
X197665080Y-48394498D01*
X197582952Y-48271585D01*
X197579712Y-48268345D01*
X197478416Y-48167049D01*
X197394023Y-48082656D01*
X197360538Y-48021333D01*
X197365522Y-47951641D01*
X197394023Y-47907294D01*
X197596113Y-47705204D01*
X198046946Y-47254371D01*
X198084566Y-47207688D01*
X198144354Y-47076772D01*
X198164835Y-46934315D01*
X198144354Y-46791858D01*
X198084566Y-46660942D01*
X198046947Y-46614259D01*
X198046942Y-46614254D01*
X198046938Y-46614249D01*
X196565038Y-45132351D01*
X196565031Y-45132344D01*
X196518348Y-45094724D01*
X196518346Y-45094723D01*
X196518344Y-45094721D01*
X196422056Y-45050748D01*
X196369252Y-45004993D01*
X196360774Y-44989465D01*
X196316801Y-44893178D01*
X196316799Y-44893175D01*
X196279180Y-44846492D01*
X196279175Y-44846487D01*
X196279171Y-44846482D01*
X194797271Y-43364584D01*
X194797264Y-43364577D01*
X194750581Y-43326957D01*
X194750579Y-43326956D01*
X194750577Y-43326954D01*
X194654289Y-43282981D01*
X194601485Y-43237226D01*
X194593007Y-43221698D01*
X194549034Y-43125411D01*
X194549032Y-43125408D01*
X194511413Y-43078725D01*
X194511408Y-43078720D01*
X194511404Y-43078715D01*
X193029504Y-41596817D01*
X193029497Y-41596810D01*
X192982814Y-41559190D01*
X192982812Y-41559189D01*
X192982810Y-41559187D01*
X192851900Y-41499402D01*
X192851896Y-41499401D01*
X192709441Y-41478921D01*
X192566985Y-41499401D01*
X192566981Y-41499402D01*
X192436070Y-41559188D01*
X192389375Y-41596817D01*
X189846817Y-44139377D01*
X189846811Y-44139384D01*
X189809189Y-44186069D01*
X189809187Y-44186071D01*
X189749402Y-44316981D01*
X189749401Y-44316985D01*
X189728921Y-44459441D01*
X189749401Y-44601896D01*
X189749402Y-44601900D01*
X189809188Y-44732811D01*
X189809189Y-44732812D01*
X189809190Y-44732814D01*
X189846809Y-44779497D01*
X189846812Y-44779500D01*
X189846817Y-44779506D01*
X190970546Y-45903233D01*
X191328725Y-46261412D01*
X191375408Y-46299032D01*
X191375412Y-46299033D01*
X191375414Y-46299035D01*
X191471698Y-46343007D01*
X191524502Y-46388762D01*
X191532981Y-46404289D01*
X191576955Y-46500578D01*
X191576956Y-46500579D01*
X191576957Y-46500581D01*
X191614576Y-46547264D01*
X191614579Y-46547267D01*
X191614584Y-46547273D01*
X192772517Y-47705204D01*
X193096492Y-48029179D01*
X193143175Y-48066799D01*
X193143179Y-48066800D01*
X193143181Y-48066802D01*
X193239465Y-48110774D01*
X193292269Y-48156529D01*
X193300748Y-48172056D01*
X193344722Y-48268345D01*
X193344723Y-48268346D01*
X193344724Y-48268348D01*
X193382343Y-48315031D01*
X193382346Y-48315034D01*
X193382351Y-48315040D01*
X194546234Y-49478921D01*
X194864259Y-49796946D01*
X194910942Y-49834566D01*
X194910943Y-49834566D01*
X194910945Y-49834568D01*
X195041855Y-49894353D01*
X195041856Y-49894353D01*
X195041858Y-49894354D01*
X195184315Y-49914835D01*
X195326772Y-49894354D01*
X195457688Y-49834566D01*
X195504371Y-49796947D01*
X196037819Y-49263497D01*
X196099142Y-49230013D01*
X196168833Y-49234997D01*
X196224767Y-49276868D01*
X196249184Y-49342333D01*
X196249500Y-49351179D01*
X196249500Y-62157441D01*
X196229815Y-62224480D01*
X196213181Y-62245122D01*
X196141519Y-62316783D01*
X196141519Y-62316784D01*
X196141517Y-62316786D01*
X196105192Y-62366783D01*
X196037386Y-62460109D01*
X195956957Y-62617957D01*
X195956956Y-62617960D01*
X195902214Y-62786443D01*
X195876381Y-62949548D01*
X195874500Y-62961421D01*
X195874500Y-63138579D01*
X195878547Y-63164132D01*
X195902214Y-63313556D01*
X195956956Y-63482039D01*
X195956957Y-63482042D01*
X195982434Y-63532042D01*
X196037386Y-63639890D01*
X196141517Y-63783214D01*
X196266786Y-63908483D01*
X196410110Y-64012614D01*
X196487529Y-64052061D01*
X196567957Y-64093042D01*
X196567960Y-64093043D01*
X196652201Y-64120414D01*
X196736445Y-64147786D01*
X196911421Y-64175500D01*
X197012771Y-64175500D01*
X197042211Y-64184144D01*
X197072198Y-64190668D01*
X197077213Y-64194422D01*
X197079810Y-64195185D01*
X197100452Y-64211819D01*
X197126452Y-64237819D01*
X197159937Y-64299142D01*
X197154953Y-64368834D01*
X197113081Y-64424767D01*
X197047617Y-64449184D01*
X197038774Y-64449500D01*
X197002131Y-64449500D01*
X197002123Y-64449501D01*
X196942516Y-64455908D01*
X196846604Y-64491682D01*
X196803271Y-64499500D01*
X195196729Y-64499500D01*
X195153396Y-64491682D01*
X195057482Y-64455908D01*
X195057483Y-64455908D01*
X194997883Y-64449501D01*
X194997881Y-64449500D01*
X194997873Y-64449500D01*
X194997865Y-64449500D01*
X194874500Y-64449500D01*
X194807461Y-64429815D01*
X194761706Y-64377011D01*
X194750500Y-64325500D01*
X194750500Y-63942559D01*
X194770185Y-63875520D01*
X194786819Y-63854878D01*
X194808483Y-63833214D01*
X194858483Y-63783214D01*
X194962614Y-63639890D01*
X195043042Y-63482042D01*
X195097786Y-63313555D01*
X195125500Y-63138579D01*
X195125500Y-62961421D01*
X195097786Y-62786445D01*
X195065060Y-62685723D01*
X195043043Y-62617960D01*
X195043042Y-62617957D01*
X194962613Y-62460109D01*
X194858483Y-62316786D01*
X194786819Y-62245122D01*
X194753334Y-62183799D01*
X194750500Y-62157441D01*
X194750500Y-53726079D01*
X194721659Y-53581092D01*
X194721658Y-53581091D01*
X194721658Y-53581087D01*
X194695597Y-53518169D01*
X194665087Y-53444511D01*
X194665080Y-53444498D01*
X194582952Y-53321585D01*
X194582951Y-53321584D01*
X194478416Y-53217049D01*
X194332834Y-53071467D01*
X193878422Y-52617053D01*
X193873714Y-52613190D01*
X193873769Y-52613122D01*
X193860368Y-52602123D01*
X193573276Y-52315031D01*
X193340898Y-52082653D01*
X193307415Y-52021332D01*
X193312399Y-51951640D01*
X193340897Y-51907296D01*
X193993824Y-51254371D01*
X194031444Y-51207688D01*
X194091232Y-51076772D01*
X194111713Y-50934315D01*
X194091232Y-50791858D01*
X194031444Y-50660942D01*
X193993825Y-50614259D01*
X193993820Y-50614254D01*
X193993816Y-50614249D01*
X192511916Y-49132351D01*
X192511909Y-49132344D01*
X192465226Y-49094724D01*
X192465224Y-49094723D01*
X192465222Y-49094721D01*
X192368934Y-49050748D01*
X192316130Y-49004993D01*
X192307652Y-48989465D01*
X192263679Y-48893178D01*
X192254400Y-48881663D01*
X192226058Y-48846492D01*
X192226053Y-48846487D01*
X192226049Y-48846482D01*
X190744149Y-47364584D01*
X190744142Y-47364577D01*
X190697459Y-47326957D01*
X190697457Y-47326956D01*
X190697455Y-47326954D01*
X190601167Y-47282981D01*
X190548363Y-47237226D01*
X190539885Y-47221698D01*
X190495912Y-47125411D01*
X190486633Y-47113896D01*
X190458291Y-47078725D01*
X190458286Y-47078720D01*
X190458282Y-47078715D01*
X188976382Y-45596817D01*
X188976375Y-45596810D01*
X188929692Y-45559190D01*
X188929690Y-45559189D01*
X188929688Y-45559187D01*
X188798778Y-45499402D01*
X188798774Y-45499401D01*
X188656319Y-45478921D01*
X188513863Y-45499401D01*
X188513859Y-45499402D01*
X188382948Y-45559188D01*
X188336253Y-45596817D01*
X185793695Y-48139377D01*
X185793689Y-48139384D01*
X185756067Y-48186069D01*
X185756065Y-48186071D01*
X185696280Y-48316981D01*
X185696279Y-48316985D01*
X185675799Y-48459441D01*
X185696279Y-48601896D01*
X185696280Y-48601900D01*
X185756066Y-48732811D01*
X185756067Y-48732812D01*
X185756068Y-48732814D01*
X185793687Y-48779497D01*
X185793690Y-48779500D01*
X185793695Y-48779506D01*
X186908544Y-49894353D01*
X187275603Y-50261412D01*
X187322286Y-50299032D01*
X187322290Y-50299033D01*
X187322292Y-50299035D01*
X187418576Y-50343007D01*
X187471380Y-50388762D01*
X187479859Y-50404289D01*
X187523833Y-50500578D01*
X187523834Y-50500579D01*
X187523835Y-50500581D01*
X187561454Y-50547264D01*
X187561457Y-50547267D01*
X187561462Y-50547273D01*
X188702575Y-51688384D01*
X189043370Y-52029179D01*
X189090053Y-52066799D01*
X189090057Y-52066800D01*
X189090059Y-52066802D01*
X189186343Y-52110774D01*
X189239147Y-52156529D01*
X189247626Y-52172056D01*
X189291600Y-52268345D01*
X189291601Y-52268346D01*
X189291602Y-52268348D01*
X189329221Y-52315031D01*
X189329224Y-52315034D01*
X189329229Y-52315040D01*
X190458689Y-53444498D01*
X190811137Y-53796946D01*
X190857820Y-53834566D01*
X190857821Y-53834566D01*
X190857823Y-53834568D01*
X190988733Y-53894353D01*
X190988734Y-53894353D01*
X190988736Y-53894354D01*
X191131193Y-53914835D01*
X191273650Y-53894354D01*
X191404566Y-53834566D01*
X191451249Y-53796947D01*
X192104172Y-53144022D01*
X192165495Y-53110538D01*
X192235186Y-53115522D01*
X192279534Y-53144023D01*
X192918463Y-53782952D01*
X192923178Y-53786822D01*
X192923121Y-53786890D01*
X192936506Y-53797874D01*
X193213181Y-54074548D01*
X193246666Y-54135871D01*
X193249500Y-54162229D01*
X193249500Y-62157441D01*
X193229815Y-62224480D01*
X193213181Y-62245122D01*
X193141519Y-62316783D01*
X193141519Y-62316784D01*
X193141517Y-62316786D01*
X193105192Y-62366783D01*
X193037386Y-62460109D01*
X192956957Y-62617957D01*
X192956956Y-62617960D01*
X192902214Y-62786443D01*
X192876381Y-62949548D01*
X192874500Y-62961421D01*
X192874500Y-63138579D01*
X192878547Y-63164132D01*
X192902214Y-63313556D01*
X192956956Y-63482039D01*
X192956957Y-63482042D01*
X192982434Y-63532042D01*
X193037386Y-63639890D01*
X193141517Y-63783214D01*
X193141519Y-63783216D01*
X193213181Y-63854878D01*
X193246666Y-63916201D01*
X193249500Y-63942559D01*
X193249500Y-64325500D01*
X193229815Y-64392539D01*
X193177011Y-64438294D01*
X193125501Y-64449500D01*
X193002130Y-64449500D01*
X193002123Y-64449501D01*
X192942516Y-64455908D01*
X192846604Y-64491682D01*
X192803271Y-64499500D01*
X191196729Y-64499500D01*
X191153396Y-64491682D01*
X191057482Y-64455908D01*
X191057483Y-64455908D01*
X190997883Y-64449501D01*
X190997881Y-64449500D01*
X190997873Y-64449500D01*
X190997865Y-64449500D01*
X190874500Y-64449500D01*
X190807461Y-64429815D01*
X190761706Y-64377011D01*
X190750500Y-64325500D01*
X190750500Y-63942559D01*
X190770185Y-63875520D01*
X190786819Y-63854878D01*
X190808483Y-63833214D01*
X190858483Y-63783214D01*
X190962614Y-63639890D01*
X191043042Y-63482042D01*
X191097786Y-63313555D01*
X191125500Y-63138579D01*
X191125500Y-62961421D01*
X191097786Y-62786445D01*
X191065060Y-62685723D01*
X191043043Y-62617960D01*
X191043042Y-62617957D01*
X190962613Y-62460109D01*
X190858483Y-62316786D01*
X190786819Y-62245122D01*
X190753334Y-62183799D01*
X190750500Y-62157441D01*
X190750500Y-57676079D01*
X190721659Y-57531092D01*
X190721658Y-57531091D01*
X190721658Y-57531087D01*
X190665084Y-57394505D01*
X190607955Y-57309005D01*
X190582952Y-57271584D01*
X189394023Y-56082655D01*
X189360538Y-56021332D01*
X189365522Y-55951640D01*
X189394023Y-55907293D01*
X189451712Y-55849604D01*
X190046946Y-55254371D01*
X190084566Y-55207688D01*
X190097100Y-55180244D01*
X190144353Y-55076774D01*
X190144352Y-55076774D01*
X190144354Y-55076772D01*
X190164835Y-54934315D01*
X190144354Y-54791858D01*
X190084566Y-54660942D01*
X190046947Y-54614259D01*
X190046942Y-54614254D01*
X190046938Y-54614249D01*
X188565038Y-53132351D01*
X188565031Y-53132344D01*
X188518348Y-53094724D01*
X188518346Y-53094723D01*
X188518344Y-53094721D01*
X188422056Y-53050748D01*
X188369252Y-53004993D01*
X188360774Y-52989465D01*
X188316801Y-52893178D01*
X188298062Y-52869924D01*
X188279180Y-52846492D01*
X188279175Y-52846487D01*
X188279171Y-52846482D01*
X186797271Y-51364584D01*
X186797264Y-51364577D01*
X186750581Y-51326957D01*
X186750579Y-51326956D01*
X186750577Y-51326954D01*
X186654289Y-51282981D01*
X186601485Y-51237226D01*
X186593007Y-51221698D01*
X186549034Y-51125411D01*
X186530295Y-51102157D01*
X186511413Y-51078725D01*
X186511408Y-51078720D01*
X186511404Y-51078715D01*
X185029504Y-49596817D01*
X185029497Y-49596810D01*
X184982814Y-49559190D01*
X184982812Y-49559189D01*
X184982810Y-49559187D01*
X184851900Y-49499402D01*
X184851896Y-49499401D01*
X184709441Y-49478921D01*
X184566985Y-49499401D01*
X184566981Y-49499402D01*
X184436070Y-49559188D01*
X184389375Y-49596817D01*
X181846817Y-52139377D01*
X181846811Y-52139384D01*
X181809189Y-52186069D01*
X181809187Y-52186071D01*
X181749402Y-52316981D01*
X181749401Y-52316985D01*
X181728921Y-52459441D01*
X181749401Y-52601896D01*
X181749402Y-52601900D01*
X181809188Y-52732811D01*
X181809189Y-52732812D01*
X181809190Y-52732814D01*
X181846809Y-52779497D01*
X181846812Y-52779500D01*
X181846817Y-52779506D01*
X182961666Y-53894353D01*
X183328725Y-54261412D01*
X183375408Y-54299032D01*
X183375412Y-54299033D01*
X183375414Y-54299035D01*
X183471698Y-54343007D01*
X183524502Y-54388762D01*
X183532981Y-54404289D01*
X183576955Y-54500578D01*
X183576956Y-54500579D01*
X183576957Y-54500581D01*
X183614576Y-54547264D01*
X183614579Y-54547267D01*
X183614584Y-54547273D01*
X184916917Y-55849604D01*
X185096492Y-56029179D01*
X185143175Y-56066799D01*
X185143179Y-56066800D01*
X185143181Y-56066802D01*
X185239465Y-56110774D01*
X185292269Y-56156529D01*
X185300748Y-56172056D01*
X185344722Y-56268345D01*
X185344723Y-56268346D01*
X185344724Y-56268348D01*
X185382343Y-56315031D01*
X185382346Y-56315034D01*
X185382351Y-56315040D01*
X186571013Y-57503700D01*
X186864259Y-57796946D01*
X186910942Y-57834566D01*
X186910943Y-57834566D01*
X186910945Y-57834568D01*
X187041855Y-57894353D01*
X187041856Y-57894353D01*
X187041858Y-57894354D01*
X187184315Y-57914835D01*
X187326772Y-57894354D01*
X187457688Y-57834566D01*
X187504371Y-57796947D01*
X188157293Y-57144022D01*
X188218616Y-57110538D01*
X188288307Y-57115522D01*
X188332655Y-57144023D01*
X189213181Y-58024549D01*
X189246666Y-58085872D01*
X189249500Y-58112230D01*
X189249500Y-62157441D01*
X189229815Y-62224480D01*
X189213181Y-62245122D01*
X189141519Y-62316783D01*
X189141519Y-62316784D01*
X189141517Y-62316786D01*
X189105192Y-62366783D01*
X189037386Y-62460109D01*
X188956957Y-62617957D01*
X188956956Y-62617960D01*
X188902214Y-62786443D01*
X188876381Y-62949548D01*
X188874500Y-62961421D01*
X188874500Y-63138579D01*
X188878547Y-63164132D01*
X188902214Y-63313556D01*
X188956956Y-63482039D01*
X188956957Y-63482042D01*
X188982434Y-63532042D01*
X189037386Y-63639890D01*
X189141517Y-63783214D01*
X189141519Y-63783216D01*
X189213181Y-63854878D01*
X189246666Y-63916201D01*
X189249500Y-63942559D01*
X189249500Y-64325500D01*
X189229815Y-64392539D01*
X189177011Y-64438294D01*
X189125501Y-64449500D01*
X189002130Y-64449500D01*
X189002123Y-64449501D01*
X188942516Y-64455908D01*
X188846604Y-64491682D01*
X188803271Y-64499500D01*
X187196729Y-64499500D01*
X187153396Y-64491682D01*
X187057482Y-64455908D01*
X187057483Y-64455908D01*
X186997883Y-64449501D01*
X186997881Y-64449500D01*
X186997873Y-64449500D01*
X186997865Y-64449500D01*
X186874500Y-64449500D01*
X186807461Y-64429815D01*
X186761706Y-64377011D01*
X186750500Y-64325500D01*
X186750500Y-63942559D01*
X186770185Y-63875520D01*
X186786819Y-63854878D01*
X186808483Y-63833214D01*
X186858483Y-63783214D01*
X186962614Y-63639890D01*
X187043042Y-63482042D01*
X187097786Y-63313555D01*
X187125500Y-63138579D01*
X187125500Y-62961421D01*
X187097786Y-62786445D01*
X187065060Y-62685723D01*
X187043043Y-62617960D01*
X187043042Y-62617957D01*
X186962613Y-62460109D01*
X186858483Y-62316786D01*
X186786819Y-62245122D01*
X186753334Y-62183799D01*
X186750500Y-62157441D01*
X186750500Y-61676079D01*
X186721659Y-61531092D01*
X186721658Y-61531091D01*
X186721658Y-61531087D01*
X186721656Y-61531082D01*
X186665086Y-61394509D01*
X186665085Y-61394507D01*
X186632186Y-61345270D01*
X186632185Y-61345268D01*
X186582956Y-61271589D01*
X186582952Y-61271584D01*
X185394023Y-60082655D01*
X185360538Y-60021332D01*
X185365522Y-59951640D01*
X185394023Y-59907293D01*
X185675865Y-59625451D01*
X186046946Y-59254371D01*
X186084566Y-59207688D01*
X186144354Y-59076772D01*
X186164835Y-58934315D01*
X186144354Y-58791858D01*
X186084566Y-58660942D01*
X186046947Y-58614259D01*
X186046942Y-58614254D01*
X186046938Y-58614249D01*
X184565038Y-57132351D01*
X184565031Y-57132344D01*
X184518348Y-57094724D01*
X184518346Y-57094723D01*
X184518344Y-57094721D01*
X184422056Y-57050748D01*
X184369252Y-57004993D01*
X184360774Y-56989465D01*
X184316801Y-56893178D01*
X184316799Y-56893175D01*
X184279180Y-56846492D01*
X184279175Y-56846487D01*
X184279171Y-56846482D01*
X182797271Y-55364584D01*
X182797264Y-55364577D01*
X182750581Y-55326957D01*
X182750579Y-55326956D01*
X182750577Y-55326954D01*
X182654289Y-55282981D01*
X182601485Y-55237226D01*
X182593007Y-55221698D01*
X182549034Y-55125411D01*
X182549032Y-55125408D01*
X182511413Y-55078725D01*
X182511408Y-55078720D01*
X182511404Y-55078715D01*
X181029504Y-53596817D01*
X181029497Y-53596810D01*
X180982814Y-53559190D01*
X180982812Y-53559189D01*
X180982810Y-53559187D01*
X180851900Y-53499402D01*
X180851896Y-53499401D01*
X180709441Y-53478921D01*
X180566985Y-53499401D01*
X180566981Y-53499402D01*
X180436070Y-53559188D01*
X180389375Y-53596817D01*
X177862181Y-56124013D01*
X177800858Y-56157498D01*
X177731166Y-56152514D01*
X177675233Y-56110642D01*
X177650816Y-56045178D01*
X177650500Y-56036332D01*
X177650500Y-55612229D01*
X177670185Y-55545190D01*
X177686819Y-55524548D01*
X181118482Y-52092885D01*
X181118485Y-52092882D01*
X181200618Y-51969961D01*
X181257192Y-51833379D01*
X181265950Y-51789351D01*
X181286034Y-51688384D01*
X181286034Y-49658423D01*
X181305719Y-49591384D01*
X181322353Y-49570742D01*
X182093035Y-48800060D01*
X182867835Y-48025260D01*
X182905455Y-47978577D01*
X182917757Y-47951641D01*
X182965242Y-47847663D01*
X182965241Y-47847663D01*
X182965243Y-47847661D01*
X182985724Y-47705204D01*
X182965243Y-47562747D01*
X182905455Y-47431831D01*
X182867836Y-47385148D01*
X182867831Y-47385143D01*
X182867827Y-47385138D01*
X181385927Y-45903240D01*
X181385920Y-45903233D01*
X181339237Y-45865613D01*
X181339235Y-45865612D01*
X181339233Y-45865610D01*
X181242945Y-45821637D01*
X181190141Y-45775882D01*
X181181663Y-45760354D01*
X181137690Y-45664067D01*
X181137688Y-45664064D01*
X181100069Y-45617381D01*
X181100064Y-45617376D01*
X181100060Y-45617371D01*
X179618160Y-44135473D01*
X179618153Y-44135466D01*
X179571470Y-44097846D01*
X179571468Y-44097845D01*
X179571466Y-44097843D01*
X179475178Y-44053870D01*
X179422374Y-44008115D01*
X179413896Y-43992587D01*
X179369923Y-43896300D01*
X179369921Y-43896297D01*
X179332302Y-43849614D01*
X179332297Y-43849609D01*
X179332293Y-43849604D01*
X177850393Y-42367706D01*
X177850386Y-42367699D01*
X177803703Y-42330079D01*
X177803701Y-42330078D01*
X177803699Y-42330076D01*
X177672789Y-42270291D01*
X177672785Y-42270290D01*
X177530330Y-42249810D01*
X177387874Y-42270290D01*
X177387870Y-42270291D01*
X177256959Y-42330077D01*
X177210264Y-42367706D01*
X174667706Y-44910266D01*
X174667700Y-44910273D01*
X174630078Y-44956958D01*
X174630076Y-44956960D01*
X174570291Y-45087870D01*
X174570290Y-45087874D01*
X174549810Y-45230330D01*
X174570290Y-45372785D01*
X174570291Y-45372789D01*
X174630077Y-45503700D01*
X174630078Y-45503701D01*
X174630079Y-45503703D01*
X174667698Y-45550386D01*
X174667701Y-45550389D01*
X174667706Y-45550395D01*
X175909168Y-46791855D01*
X176149614Y-47032301D01*
X176196297Y-47069921D01*
X176196301Y-47069922D01*
X176196303Y-47069924D01*
X176292587Y-47113896D01*
X176345391Y-47159651D01*
X176353870Y-47175178D01*
X176397844Y-47271467D01*
X176397845Y-47271468D01*
X176397846Y-47271470D01*
X176435465Y-47318153D01*
X176435468Y-47318156D01*
X176435473Y-47318162D01*
X177576754Y-48459441D01*
X177917381Y-48800068D01*
X177964064Y-48837688D01*
X177964068Y-48837689D01*
X177964070Y-48837691D01*
X178060354Y-48881663D01*
X178113158Y-48927418D01*
X178121637Y-48942945D01*
X178165611Y-49039234D01*
X178165612Y-49039235D01*
X178165613Y-49039237D01*
X178203232Y-49085920D01*
X178203235Y-49085923D01*
X178203240Y-49085929D01*
X179378717Y-50261404D01*
X179685148Y-50567835D01*
X179731831Y-50605455D01*
X179731832Y-50605455D01*
X179737871Y-50610322D01*
X179735895Y-50612773D01*
X179772883Y-50653940D01*
X179785034Y-50707472D01*
X179785034Y-51252236D01*
X179765349Y-51319275D01*
X179748715Y-51339917D01*
X179167043Y-51921588D01*
X179105720Y-51955073D01*
X179036028Y-51950089D01*
X178980095Y-51908217D01*
X178955678Y-51842753D01*
X178956623Y-51816265D01*
X178967957Y-51737437D01*
X178947476Y-51594980D01*
X178887688Y-51464064D01*
X178850069Y-51417381D01*
X178850064Y-51417376D01*
X178850060Y-51417371D01*
X177368160Y-49935473D01*
X177368153Y-49935466D01*
X177321470Y-49897846D01*
X177321468Y-49897845D01*
X177321466Y-49897843D01*
X177225178Y-49853870D01*
X177172374Y-49808115D01*
X177163896Y-49792587D01*
X177119923Y-49696300D01*
X177119921Y-49696297D01*
X177082302Y-49649614D01*
X177082297Y-49649609D01*
X177082293Y-49649604D01*
X175600393Y-48167706D01*
X175600386Y-48167699D01*
X175553703Y-48130079D01*
X175553701Y-48130078D01*
X175553699Y-48130076D01*
X175457411Y-48086103D01*
X175404607Y-48040348D01*
X175396129Y-48024820D01*
X175352156Y-47928533D01*
X175335041Y-47907294D01*
X175314535Y-47881847D01*
X175314530Y-47881842D01*
X175314526Y-47881837D01*
X173832626Y-46399939D01*
X173832619Y-46399932D01*
X173785936Y-46362312D01*
X173785934Y-46362311D01*
X173785932Y-46362309D01*
X173655022Y-46302524D01*
X173655018Y-46302523D01*
X173512563Y-46282043D01*
X173370107Y-46302523D01*
X173370103Y-46302524D01*
X173239192Y-46362310D01*
X173192497Y-46399939D01*
X170649939Y-48942499D01*
X170649933Y-48942506D01*
X170612311Y-48989191D01*
X170612309Y-48989193D01*
X170552524Y-49120103D01*
X170552523Y-49120107D01*
X170532043Y-49262563D01*
X170552523Y-49405018D01*
X170552524Y-49405022D01*
X170612310Y-49535933D01*
X170612311Y-49535934D01*
X170612312Y-49535936D01*
X170649931Y-49582619D01*
X170649934Y-49582622D01*
X170649939Y-49582628D01*
X171774785Y-50707472D01*
X172131847Y-51064534D01*
X172178530Y-51102154D01*
X172178534Y-51102155D01*
X172178536Y-51102157D01*
X172274820Y-51146129D01*
X172327624Y-51191884D01*
X172336103Y-51207411D01*
X172380077Y-51303700D01*
X172380078Y-51303701D01*
X172380079Y-51303703D01*
X172417698Y-51350386D01*
X172417701Y-51350389D01*
X172417706Y-51350395D01*
X173669209Y-52601896D01*
X173899614Y-52832301D01*
X173946297Y-52869921D01*
X173946301Y-52869922D01*
X173946303Y-52869924D01*
X174042587Y-52913896D01*
X174095391Y-52959651D01*
X174103870Y-52975178D01*
X174147844Y-53071467D01*
X174147845Y-53071468D01*
X174147846Y-53071470D01*
X174185465Y-53118153D01*
X174185468Y-53118156D01*
X174185473Y-53118162D01*
X174713181Y-53645868D01*
X174746666Y-53707191D01*
X174749500Y-53733549D01*
X174749500Y-55067450D01*
X174729815Y-55134489D01*
X174677011Y-55180244D01*
X174607853Y-55190188D01*
X174544297Y-55161163D01*
X174537819Y-55155131D01*
X173300393Y-53917706D01*
X173300386Y-53917699D01*
X173253703Y-53880079D01*
X173253701Y-53880078D01*
X173253699Y-53880076D01*
X173157411Y-53836103D01*
X173104607Y-53790348D01*
X173096129Y-53774820D01*
X173052156Y-53678533D01*
X173052154Y-53678530D01*
X173014535Y-53631847D01*
X173014530Y-53631842D01*
X173014526Y-53631837D01*
X171532626Y-52149939D01*
X171532619Y-52149932D01*
X171485936Y-52112312D01*
X171485934Y-52112311D01*
X171485932Y-52112309D01*
X171389644Y-52068336D01*
X171336840Y-52022581D01*
X171328362Y-52007053D01*
X171284389Y-51910766D01*
X171282335Y-51908217D01*
X171246768Y-51864080D01*
X171246763Y-51864075D01*
X171246759Y-51864070D01*
X169764859Y-50382172D01*
X169764852Y-50382165D01*
X169718169Y-50344545D01*
X169718167Y-50344544D01*
X169718165Y-50344542D01*
X169587255Y-50284757D01*
X169587251Y-50284756D01*
X169444796Y-50264276D01*
X169302340Y-50284756D01*
X169302336Y-50284757D01*
X169171425Y-50344543D01*
X169124730Y-50382172D01*
X166582172Y-52924732D01*
X166582166Y-52924739D01*
X166544544Y-52971424D01*
X166544542Y-52971426D01*
X166484757Y-53102336D01*
X166484756Y-53102340D01*
X166464276Y-53244796D01*
X166484756Y-53387251D01*
X166484757Y-53387255D01*
X166544543Y-53518166D01*
X166544544Y-53518167D01*
X166544545Y-53518169D01*
X166582164Y-53564852D01*
X166582167Y-53564855D01*
X166582172Y-53564861D01*
X167788897Y-54771584D01*
X168064080Y-55046767D01*
X168110763Y-55084387D01*
X168110767Y-55084388D01*
X168110769Y-55084390D01*
X168207053Y-55128362D01*
X168259857Y-55174117D01*
X168268336Y-55189644D01*
X168312310Y-55285933D01*
X168312311Y-55285934D01*
X168312312Y-55285936D01*
X168349931Y-55332619D01*
X168349934Y-55332622D01*
X168349939Y-55332628D01*
X169476754Y-56459441D01*
X169831847Y-56814534D01*
X169878530Y-56852154D01*
X169878534Y-56852155D01*
X169878536Y-56852157D01*
X169974820Y-56896129D01*
X170027624Y-56941884D01*
X170036103Y-56957411D01*
X170080077Y-57053700D01*
X170080078Y-57053701D01*
X170080079Y-57053703D01*
X170117698Y-57100386D01*
X170117701Y-57100389D01*
X170117706Y-57100395D01*
X171269958Y-58252645D01*
X171599614Y-58582301D01*
X171646297Y-58619921D01*
X171646298Y-58619921D01*
X171652337Y-58624788D01*
X171650361Y-58627239D01*
X171687349Y-58668406D01*
X171699500Y-58721938D01*
X171699500Y-59973918D01*
X171699500Y-59973920D01*
X171699499Y-59973920D01*
X171728340Y-60118907D01*
X171728343Y-60118917D01*
X171784914Y-60255492D01*
X171817812Y-60304727D01*
X171817813Y-60304730D01*
X171867046Y-60378414D01*
X171867052Y-60378421D01*
X173213181Y-61724549D01*
X173246666Y-61785872D01*
X173249500Y-61812230D01*
X173249500Y-62157441D01*
X173229815Y-62224480D01*
X173213181Y-62245122D01*
X173141519Y-62316783D01*
X173141519Y-62316784D01*
X173141517Y-62316786D01*
X173105192Y-62366783D01*
X173037386Y-62460109D01*
X172956957Y-62617957D01*
X172956956Y-62617960D01*
X172902214Y-62786443D01*
X172876381Y-62949548D01*
X172874500Y-62961421D01*
X172874500Y-63138579D01*
X172878547Y-63164132D01*
X172902214Y-63313556D01*
X172956956Y-63482039D01*
X172956957Y-63482042D01*
X172982434Y-63532042D01*
X173037386Y-63639890D01*
X173141517Y-63783214D01*
X173141519Y-63783216D01*
X173213181Y-63854878D01*
X173246666Y-63916201D01*
X173249500Y-63942559D01*
X173249500Y-64325500D01*
X173229815Y-64392539D01*
X173177011Y-64438294D01*
X173125501Y-64449500D01*
X173002130Y-64449500D01*
X173002123Y-64449501D01*
X172942516Y-64455908D01*
X172846604Y-64491682D01*
X172803271Y-64499500D01*
X171196729Y-64499500D01*
X171153396Y-64491682D01*
X171057482Y-64455908D01*
X171057483Y-64455908D01*
X170997883Y-64449501D01*
X170997881Y-64449500D01*
X170997873Y-64449500D01*
X170997865Y-64449500D01*
X170874500Y-64449500D01*
X170807461Y-64429815D01*
X170761706Y-64377011D01*
X170750500Y-64325500D01*
X170750500Y-63942559D01*
X170770185Y-63875520D01*
X170786819Y-63854878D01*
X170808483Y-63833214D01*
X170858483Y-63783214D01*
X170962614Y-63639890D01*
X171043042Y-63482042D01*
X171097786Y-63313555D01*
X171125500Y-63138579D01*
X171125500Y-62961421D01*
X171097786Y-62786445D01*
X171065060Y-62685723D01*
X171043043Y-62617960D01*
X171043042Y-62617957D01*
X170962613Y-62460109D01*
X170858483Y-62316786D01*
X170786819Y-62245122D01*
X170753334Y-62183799D01*
X170750500Y-62157441D01*
X170750500Y-61676079D01*
X170721659Y-61531092D01*
X170721658Y-61531091D01*
X170721658Y-61531087D01*
X170721656Y-61531082D01*
X170665087Y-61394511D01*
X170665080Y-61394498D01*
X170582952Y-61271585D01*
X170542453Y-61231086D01*
X170478416Y-61167049D01*
X170164910Y-60853542D01*
X170131426Y-60792221D01*
X170136410Y-60722529D01*
X170164908Y-60678185D01*
X170817835Y-60025260D01*
X170855455Y-59978577D01*
X170915243Y-59847661D01*
X170935724Y-59705204D01*
X170915243Y-59562747D01*
X170903836Y-59537770D01*
X170855456Y-59431833D01*
X170855455Y-59431832D01*
X170855455Y-59431831D01*
X170817836Y-59385148D01*
X170817831Y-59385143D01*
X170817827Y-59385138D01*
X169335927Y-57903240D01*
X169335920Y-57903233D01*
X169289237Y-57865613D01*
X169289235Y-57865612D01*
X169289233Y-57865610D01*
X169192945Y-57821637D01*
X169140141Y-57775882D01*
X169131663Y-57760354D01*
X169087690Y-57664067D01*
X169087688Y-57664064D01*
X169050069Y-57617381D01*
X169050064Y-57617376D01*
X169050060Y-57617371D01*
X167568160Y-56135473D01*
X167568153Y-56135466D01*
X167521470Y-56097846D01*
X167521468Y-56097845D01*
X167521466Y-56097843D01*
X167425178Y-56053870D01*
X167372374Y-56008115D01*
X167363896Y-55992587D01*
X167319923Y-55896300D01*
X167319921Y-55896297D01*
X167282302Y-55849614D01*
X167282297Y-55849609D01*
X167282293Y-55849604D01*
X165800393Y-54367706D01*
X165800386Y-54367699D01*
X165753703Y-54330079D01*
X165753701Y-54330078D01*
X165753699Y-54330076D01*
X165622789Y-54270291D01*
X165622785Y-54270290D01*
X165480330Y-54249810D01*
X165337874Y-54270290D01*
X165337870Y-54270291D01*
X165206959Y-54330077D01*
X165160264Y-54367706D01*
X162617706Y-56910266D01*
X162617700Y-56910272D01*
X162617699Y-56910274D01*
X162607615Y-56922787D01*
X162580078Y-56956958D01*
X162580076Y-56956960D01*
X162520291Y-57087870D01*
X162520290Y-57087874D01*
X162499810Y-57230330D01*
X162520290Y-57372785D01*
X162520291Y-57372789D01*
X162580077Y-57503700D01*
X162580078Y-57503701D01*
X162580079Y-57503703D01*
X162617698Y-57550386D01*
X162617701Y-57550389D01*
X162617706Y-57550395D01*
X163735719Y-58668406D01*
X164099614Y-59032301D01*
X164146297Y-59069921D01*
X164146301Y-59069922D01*
X164146303Y-59069924D01*
X164242587Y-59113896D01*
X164295391Y-59159651D01*
X164303870Y-59175178D01*
X164347844Y-59271467D01*
X164347845Y-59271468D01*
X164347846Y-59271470D01*
X164385465Y-59318153D01*
X164385468Y-59318156D01*
X164385473Y-59318162D01*
X165691231Y-60623918D01*
X165867381Y-60800068D01*
X165914064Y-60837688D01*
X165914068Y-60837689D01*
X165914070Y-60837691D01*
X166010354Y-60881663D01*
X166063158Y-60927418D01*
X166071637Y-60942945D01*
X166115611Y-61039234D01*
X166115612Y-61039235D01*
X166115613Y-61039237D01*
X166153232Y-61085920D01*
X166153235Y-61085923D01*
X166153240Y-61085929D01*
X167276116Y-62208803D01*
X167635148Y-62567835D01*
X167681831Y-62605455D01*
X167681832Y-62605455D01*
X167681834Y-62605457D01*
X167812744Y-62665242D01*
X167812745Y-62665242D01*
X167812747Y-62665243D01*
X167955204Y-62685724D01*
X168097661Y-62665243D01*
X168228577Y-62605455D01*
X168275260Y-62567836D01*
X168928183Y-61914911D01*
X168936128Y-61910573D01*
X168941554Y-61903326D01*
X168966313Y-61894091D01*
X168989506Y-61881427D01*
X168998535Y-61882072D01*
X169007018Y-61878909D01*
X169032838Y-61884525D01*
X169059197Y-61886411D01*
X169068250Y-61892229D01*
X169075291Y-61893761D01*
X169103545Y-61914912D01*
X169213181Y-62024548D01*
X169246666Y-62085871D01*
X169249500Y-62112229D01*
X169249500Y-62157441D01*
X169229815Y-62224480D01*
X169213181Y-62245122D01*
X169141519Y-62316783D01*
X169141519Y-62316784D01*
X169141517Y-62316786D01*
X169105192Y-62366783D01*
X169037386Y-62460109D01*
X168956957Y-62617957D01*
X168956956Y-62617960D01*
X168902214Y-62786443D01*
X168876381Y-62949548D01*
X168874500Y-62961421D01*
X168874500Y-63138579D01*
X168878547Y-63164132D01*
X168902214Y-63313556D01*
X168956956Y-63482039D01*
X168956957Y-63482042D01*
X168982434Y-63532042D01*
X169037386Y-63639890D01*
X169141517Y-63783214D01*
X169141519Y-63783216D01*
X169213181Y-63854878D01*
X169246666Y-63916201D01*
X169249500Y-63942559D01*
X169249500Y-64325500D01*
X169229815Y-64392539D01*
X169177011Y-64438294D01*
X169125501Y-64449500D01*
X169002130Y-64449500D01*
X169002123Y-64449501D01*
X168942516Y-64455908D01*
X168846604Y-64491682D01*
X168803271Y-64499500D01*
X167195299Y-64499500D01*
X167151966Y-64491682D01*
X167057379Y-64456403D01*
X167057372Y-64456401D01*
X166997844Y-64450000D01*
X165002155Y-64450000D01*
X164942627Y-64456401D01*
X164942620Y-64456403D01*
X164848034Y-64491682D01*
X164804701Y-64499500D01*
X163195299Y-64499500D01*
X163151966Y-64491682D01*
X163057379Y-64456403D01*
X163057372Y-64456401D01*
X162997844Y-64450000D01*
X161002155Y-64450000D01*
X160942627Y-64456401D01*
X160942620Y-64456403D01*
X160848034Y-64491682D01*
X160804701Y-64499500D01*
X159196729Y-64499500D01*
X159153396Y-64491682D01*
X159057482Y-64455908D01*
X159057483Y-64455908D01*
X158997883Y-64449501D01*
X158997881Y-64449500D01*
X158997873Y-64449500D01*
X158997865Y-64449500D01*
X158924864Y-64449500D01*
X158857825Y-64429815D01*
X158812070Y-64377011D01*
X158802126Y-64307853D01*
X158831151Y-64244297D01*
X158889929Y-64206523D01*
X158905466Y-64203027D01*
X158909538Y-64202381D01*
X158938555Y-64197786D01*
X159107042Y-64143042D01*
X159264890Y-64062614D01*
X159408214Y-63958483D01*
X159533483Y-63833214D01*
X159637614Y-63689890D01*
X159718042Y-63532042D01*
X159772786Y-63363555D01*
X159800500Y-63188579D01*
X159800500Y-63011421D01*
X159772786Y-62836445D01*
X159745414Y-62752201D01*
X159718043Y-62667960D01*
X159718042Y-62667957D01*
X159667027Y-62567836D01*
X159637614Y-62510110D01*
X159533483Y-62366786D01*
X159408214Y-62241517D01*
X159264890Y-62137386D01*
X159215517Y-62112229D01*
X159107042Y-62056957D01*
X159107039Y-62056956D01*
X158938556Y-62002214D01*
X158851067Y-61988357D01*
X158763579Y-61974500D01*
X158586421Y-61974500D01*
X158528095Y-61983738D01*
X158411443Y-62002214D01*
X158242960Y-62056956D01*
X158242957Y-62056957D01*
X158085109Y-62137386D01*
X158021228Y-62183799D01*
X157941786Y-62241517D01*
X157941784Y-62241519D01*
X157941783Y-62241519D01*
X157816518Y-62366784D01*
X157724818Y-62492998D01*
X157669487Y-62535663D01*
X157599874Y-62541642D01*
X157538079Y-62509036D01*
X157503722Y-62448197D01*
X157500500Y-62420112D01*
X157500500Y-44289778D01*
X158399500Y-44289778D01*
X158399500Y-44510221D01*
X158433985Y-44727952D01*
X158502103Y-44937603D01*
X158502104Y-44937606D01*
X158559754Y-45050748D01*
X158582161Y-45094724D01*
X158602187Y-45134025D01*
X158731752Y-45312358D01*
X158731756Y-45312363D01*
X158887636Y-45468243D01*
X158887641Y-45468247D01*
X159012815Y-45559190D01*
X159065978Y-45597815D01*
X159182501Y-45657187D01*
X159262393Y-45697895D01*
X159262396Y-45697896D01*
X159367221Y-45731955D01*
X159472049Y-45766015D01*
X159689778Y-45800500D01*
X159689779Y-45800500D01*
X159910221Y-45800500D01*
X159910222Y-45800500D01*
X160127951Y-45766015D01*
X160337606Y-45697895D01*
X160534022Y-45597815D01*
X160712365Y-45468242D01*
X160868242Y-45312365D01*
X160997815Y-45134022D01*
X161097895Y-44937606D01*
X161166015Y-44727951D01*
X161200500Y-44510222D01*
X161200500Y-44289778D01*
X161166015Y-44072049D01*
X161131955Y-43967221D01*
X161097896Y-43862396D01*
X161097895Y-43862393D01*
X160997815Y-43665978D01*
X160893018Y-43521736D01*
X160893017Y-43521735D01*
X160868243Y-43487636D01*
X160832762Y-43452155D01*
X163400000Y-43452155D01*
X163400000Y-44150000D01*
X164251518Y-44150000D01*
X164240889Y-44168409D01*
X164200000Y-44321009D01*
X164200000Y-44478991D01*
X164240889Y-44631591D01*
X164251518Y-44650000D01*
X163400000Y-44650000D01*
X163400000Y-45347844D01*
X163406401Y-45407372D01*
X163406403Y-45407379D01*
X163456645Y-45542086D01*
X163456649Y-45542093D01*
X163542809Y-45657187D01*
X163542812Y-45657190D01*
X163657906Y-45743350D01*
X163657913Y-45743354D01*
X163792620Y-45793596D01*
X163792627Y-45793598D01*
X163852155Y-45799999D01*
X163852172Y-45800000D01*
X164550000Y-45800000D01*
X164550000Y-44948482D01*
X164568409Y-44959111D01*
X164721009Y-45000000D01*
X164878991Y-45000000D01*
X165031591Y-44959111D01*
X165050000Y-44948482D01*
X165050000Y-45800000D01*
X165747828Y-45800000D01*
X165747844Y-45799999D01*
X165807372Y-45793598D01*
X165807379Y-45793596D01*
X165942086Y-45743354D01*
X165942093Y-45743350D01*
X166057187Y-45657190D01*
X166057190Y-45657187D01*
X166143350Y-45542093D01*
X166143354Y-45542086D01*
X166193596Y-45407379D01*
X166193598Y-45407372D01*
X166199999Y-45347844D01*
X166200000Y-45347827D01*
X166200000Y-44650000D01*
X165348482Y-44650000D01*
X165359111Y-44631591D01*
X165400000Y-44478991D01*
X165400000Y-44321009D01*
X165359111Y-44168409D01*
X165348482Y-44150000D01*
X166200000Y-44150000D01*
X166200000Y-43452172D01*
X166199999Y-43452155D01*
X166193598Y-43392627D01*
X166193596Y-43392620D01*
X166143354Y-43257913D01*
X166143350Y-43257906D01*
X166057190Y-43142812D01*
X166057187Y-43142809D01*
X165942093Y-43056649D01*
X165942086Y-43056645D01*
X165807379Y-43006403D01*
X165807372Y-43006401D01*
X165747844Y-43000000D01*
X165050000Y-43000000D01*
X165050000Y-43851517D01*
X165031591Y-43840889D01*
X164878991Y-43800000D01*
X164721009Y-43800000D01*
X164568409Y-43840889D01*
X164550000Y-43851517D01*
X164550000Y-43000000D01*
X163852155Y-43000000D01*
X163792627Y-43006401D01*
X163792620Y-43006403D01*
X163657913Y-43056645D01*
X163657906Y-43056649D01*
X163542812Y-43142809D01*
X163542809Y-43142812D01*
X163456649Y-43257906D01*
X163456645Y-43257913D01*
X163406403Y-43392620D01*
X163406401Y-43392627D01*
X163400000Y-43452155D01*
X160832762Y-43452155D01*
X160712363Y-43331756D01*
X160712358Y-43331752D01*
X160534025Y-43202187D01*
X160534024Y-43202186D01*
X160534022Y-43202185D01*
X160471096Y-43170122D01*
X160337606Y-43102104D01*
X160337603Y-43102103D01*
X160127952Y-43033985D01*
X160019086Y-43016742D01*
X159910222Y-42999500D01*
X159689778Y-42999500D01*
X159617201Y-43010995D01*
X159472047Y-43033985D01*
X159262396Y-43102103D01*
X159262393Y-43102104D01*
X159065974Y-43202187D01*
X158887641Y-43331752D01*
X158887636Y-43331756D01*
X158731756Y-43487636D01*
X158731752Y-43487641D01*
X158602187Y-43665974D01*
X158502104Y-43862393D01*
X158502103Y-43862396D01*
X158433985Y-44072047D01*
X158399500Y-44289778D01*
X157500500Y-44289778D01*
X157500500Y-40624500D01*
X157520185Y-40557461D01*
X157572989Y-40511706D01*
X157624500Y-40500500D01*
X198375500Y-40500500D01*
X198442539Y-40520185D01*
G37*
G04 #@! TD.AperFunction*
G04 #@! TA.AperFunction,NonConductor*
G36*
X177855703Y-56788837D02*
G01*
X177862181Y-56794869D01*
X179328725Y-58261412D01*
X179375408Y-58299032D01*
X179477618Y-58345710D01*
X179483220Y-58349017D01*
X179502822Y-58369976D01*
X179524502Y-58388762D01*
X179530269Y-58399323D01*
X179530946Y-58400047D01*
X179531087Y-58400821D01*
X179532981Y-58404289D01*
X179576955Y-58500578D01*
X179576956Y-58500579D01*
X179576957Y-58500581D01*
X179614576Y-58547264D01*
X179614579Y-58547267D01*
X179614584Y-58547273D01*
X180772517Y-59705204D01*
X181096492Y-60029179D01*
X181143175Y-60066799D01*
X181143179Y-60066800D01*
X181143181Y-60066802D01*
X181239465Y-60110774D01*
X181292269Y-60156529D01*
X181300748Y-60172056D01*
X181344722Y-60268345D01*
X181344723Y-60268346D01*
X181344724Y-60268348D01*
X181382343Y-60315031D01*
X181382346Y-60315034D01*
X181382351Y-60315040D01*
X182598395Y-61531082D01*
X182864259Y-61796946D01*
X182910942Y-61834566D01*
X182910943Y-61834566D01*
X182910945Y-61834568D01*
X183041855Y-61894353D01*
X183041856Y-61894353D01*
X183041858Y-61894354D01*
X183184315Y-61914835D01*
X183326772Y-61894354D01*
X183457688Y-61834566D01*
X183504371Y-61796947D01*
X184157293Y-61144022D01*
X184218616Y-61110538D01*
X184288307Y-61115522D01*
X184332655Y-61144023D01*
X185213181Y-62024549D01*
X185227884Y-62051476D01*
X185244477Y-62077295D01*
X185245368Y-62083495D01*
X185246666Y-62085872D01*
X185249500Y-62112229D01*
X185249500Y-62157441D01*
X185229815Y-62224480D01*
X185213181Y-62245122D01*
X185141519Y-62316783D01*
X185141519Y-62316784D01*
X185141517Y-62316786D01*
X185105192Y-62366783D01*
X185037386Y-62460109D01*
X184956957Y-62617957D01*
X184956956Y-62617960D01*
X184902214Y-62786443D01*
X184876381Y-62949548D01*
X184874500Y-62961421D01*
X184874500Y-63138579D01*
X184878547Y-63164132D01*
X184902214Y-63313556D01*
X184956956Y-63482039D01*
X184956957Y-63482042D01*
X184982434Y-63532042D01*
X185037386Y-63639890D01*
X185141517Y-63783214D01*
X185141519Y-63783216D01*
X185213181Y-63854878D01*
X185246666Y-63916201D01*
X185249500Y-63942559D01*
X185249500Y-64325500D01*
X185229815Y-64392539D01*
X185177011Y-64438294D01*
X185125501Y-64449500D01*
X185002130Y-64449500D01*
X185002123Y-64449501D01*
X184942516Y-64455908D01*
X184846604Y-64491682D01*
X184803271Y-64499500D01*
X183196729Y-64499500D01*
X183153396Y-64491682D01*
X183057482Y-64455908D01*
X183057483Y-64455908D01*
X182997883Y-64449501D01*
X182997881Y-64449500D01*
X182997873Y-64449500D01*
X182997865Y-64449500D01*
X182874500Y-64449500D01*
X182807461Y-64429815D01*
X182761706Y-64377011D01*
X182750500Y-64325500D01*
X182750500Y-63942559D01*
X182770185Y-63875520D01*
X182786819Y-63854878D01*
X182808483Y-63833214D01*
X182858483Y-63783214D01*
X182962614Y-63639890D01*
X183043042Y-63482042D01*
X183097786Y-63313555D01*
X183125500Y-63138579D01*
X183125500Y-62961421D01*
X183097786Y-62786445D01*
X183065060Y-62685723D01*
X183043043Y-62617960D01*
X183043042Y-62617957D01*
X182962613Y-62460109D01*
X182858483Y-62316786D01*
X182733214Y-62191517D01*
X182589890Y-62087386D01*
X182582254Y-62083495D01*
X182432042Y-62006957D01*
X182432039Y-62006956D01*
X182263556Y-61952214D01*
X182176067Y-61938357D01*
X182088579Y-61924500D01*
X182088578Y-61924500D01*
X181987229Y-61924500D01*
X181920190Y-61904815D01*
X181899548Y-61888181D01*
X177686819Y-57675451D01*
X177653334Y-57614128D01*
X177650500Y-57587770D01*
X177650500Y-56882550D01*
X177670185Y-56815511D01*
X177722989Y-56769756D01*
X177792147Y-56759812D01*
X177855703Y-56788837D01*
G37*
G04 #@! TD.AperFunction*
G04 #@! TA.AperFunction,NonConductor*
G36*
X176455703Y-58567516D02*
G01*
X176462166Y-58573534D01*
X178611162Y-60722529D01*
X180838181Y-62949548D01*
X180871666Y-63010871D01*
X180874500Y-63037229D01*
X180874500Y-63138579D01*
X180878547Y-63164132D01*
X180902214Y-63313556D01*
X180956956Y-63482039D01*
X180956957Y-63482042D01*
X180982434Y-63532042D01*
X181037386Y-63639890D01*
X181141517Y-63783214D01*
X181141519Y-63783216D01*
X181213181Y-63854878D01*
X181246666Y-63916201D01*
X181249500Y-63942559D01*
X181249500Y-64325500D01*
X181229815Y-64392539D01*
X181177011Y-64438294D01*
X181125501Y-64449500D01*
X181002130Y-64449500D01*
X181002123Y-64449501D01*
X180942516Y-64455908D01*
X180846604Y-64491682D01*
X180803271Y-64499500D01*
X179196729Y-64499500D01*
X179153396Y-64491682D01*
X179057482Y-64455908D01*
X179057483Y-64455908D01*
X178997883Y-64449501D01*
X178997881Y-64449500D01*
X178997873Y-64449500D01*
X178997865Y-64449500D01*
X178874500Y-64449500D01*
X178807461Y-64429815D01*
X178761706Y-64377011D01*
X178750500Y-64325500D01*
X178750500Y-63942559D01*
X178770185Y-63875520D01*
X178786819Y-63854878D01*
X178808483Y-63833214D01*
X178858483Y-63783214D01*
X178962614Y-63639890D01*
X179043042Y-63482042D01*
X179097786Y-63313555D01*
X179125500Y-63138579D01*
X179125500Y-62961421D01*
X179097786Y-62786445D01*
X179065060Y-62685723D01*
X179043043Y-62617960D01*
X179043042Y-62617957D01*
X178962613Y-62460109D01*
X178858483Y-62316786D01*
X178733214Y-62191517D01*
X178589890Y-62087386D01*
X178582254Y-62083495D01*
X178432042Y-62006957D01*
X178432039Y-62006956D01*
X178263556Y-61952214D01*
X178176067Y-61938357D01*
X178088579Y-61924500D01*
X178088578Y-61924500D01*
X177987230Y-61924500D01*
X177920191Y-61904815D01*
X177899549Y-61888181D01*
X176286819Y-60275451D01*
X176253334Y-60214128D01*
X176250500Y-60187770D01*
X176250500Y-58661229D01*
X176270185Y-58594190D01*
X176322989Y-58548435D01*
X176392147Y-58538491D01*
X176455703Y-58567516D01*
G37*
G04 #@! TD.AperFunction*
G04 #@! TA.AperFunction,NonConductor*
G36*
X174668834Y-56255707D02*
G01*
X174724767Y-56297579D01*
X174749184Y-56363043D01*
X174749500Y-56371889D01*
X174749500Y-60623918D01*
X174749500Y-60623920D01*
X174749499Y-60623920D01*
X174778340Y-60768907D01*
X174778343Y-60768917D01*
X174831823Y-60898031D01*
X174831826Y-60898036D01*
X174834916Y-60905495D01*
X174843243Y-60917957D01*
X174882171Y-60976218D01*
X174882182Y-60976235D01*
X174917046Y-61028414D01*
X174917052Y-61028421D01*
X176838181Y-62949549D01*
X176871666Y-63010872D01*
X176874500Y-63037229D01*
X176874500Y-63138579D01*
X176878547Y-63164132D01*
X176902214Y-63313556D01*
X176956956Y-63482039D01*
X176956957Y-63482042D01*
X176982434Y-63532042D01*
X177037386Y-63639890D01*
X177141517Y-63783214D01*
X177141519Y-63783216D01*
X177213181Y-63854878D01*
X177246666Y-63916201D01*
X177249500Y-63942559D01*
X177249500Y-64325500D01*
X177229815Y-64392539D01*
X177177011Y-64438294D01*
X177125501Y-64449500D01*
X177002130Y-64449500D01*
X177002123Y-64449501D01*
X176942516Y-64455908D01*
X176846604Y-64491682D01*
X176803271Y-64499500D01*
X175196729Y-64499500D01*
X175153396Y-64491682D01*
X175057482Y-64455908D01*
X175057483Y-64455908D01*
X174997883Y-64449501D01*
X174997881Y-64449500D01*
X174997873Y-64449500D01*
X174997865Y-64449500D01*
X174874500Y-64449500D01*
X174807461Y-64429815D01*
X174761706Y-64377011D01*
X174750500Y-64325500D01*
X174750500Y-63942559D01*
X174770185Y-63875520D01*
X174786819Y-63854878D01*
X174808483Y-63833214D01*
X174858483Y-63783214D01*
X174962614Y-63639890D01*
X175043042Y-63482042D01*
X175097786Y-63313555D01*
X175125500Y-63138579D01*
X175125500Y-62961421D01*
X175097786Y-62786445D01*
X175065060Y-62685723D01*
X175043043Y-62617960D01*
X175043042Y-62617957D01*
X174962613Y-62460109D01*
X174858483Y-62316786D01*
X174786819Y-62245122D01*
X174753334Y-62183799D01*
X174750500Y-62157441D01*
X174750500Y-61376079D01*
X174721659Y-61231092D01*
X174721658Y-61231091D01*
X174721658Y-61231087D01*
X174665084Y-61094505D01*
X174620925Y-61028416D01*
X174582952Y-60971584D01*
X173236819Y-59625451D01*
X173203334Y-59564128D01*
X173200500Y-59537770D01*
X173200500Y-57672889D01*
X173220185Y-57605850D01*
X173236819Y-57585208D01*
X174537819Y-56284208D01*
X174599142Y-56250723D01*
X174668834Y-56255707D01*
G37*
G04 #@! TD.AperFunction*
M02*
