G04 #@! TF.GenerationSoftware,KiCad,Pcbnew,9.0.1*
G04 #@! TF.CreationDate,2025-06-01T13:14:11+02:00*
G04 #@! TF.ProjectId,Sim-module,53696d2d-6d6f-4647-956c-652e6b696361,rev?*
G04 #@! TF.SameCoordinates,Original*
G04 #@! TF.FileFunction,Legend,Top*
G04 #@! TF.FilePolarity,Positive*
%FSLAX46Y46*%
G04 Gerber Fmt 4.6, Leading zero omitted, Abs format (unit mm)*
G04 Created by KiCad (PCBNEW 9.0.1) date 2025-06-01 13:14:11*
%MOMM*%
%LPD*%
G01*
G04 APERTURE LIST*
G04 Aperture macros list*
%AMRoundRect*
0 Rectangle with rounded corners*
0 $1 Rounding radius*
0 $2 $3 $4 $5 $6 $7 $8 $9 X,Y pos of 4 corners*
0 Add a 4 corners polygon primitive as box body*
4,1,4,$2,$3,$4,$5,$6,$7,$8,$9,$2,$3,0*
0 Add four circle primitives for the rounded corners*
1,1,$1+$1,$2,$3*
1,1,$1+$1,$4,$5*
1,1,$1+$1,$6,$7*
1,1,$1+$1,$8,$9*
0 Add four rect primitives between the rounded corners*
20,1,$1+$1,$2,$3,$4,$5,0*
20,1,$1+$1,$4,$5,$6,$7,0*
20,1,$1+$1,$6,$7,$8,$9,0*
20,1,$1+$1,$8,$9,$2,$3,0*%
%AMRotRect*
0 Rectangle, with rotation*
0 The origin of the aperture is its center*
0 $1 length*
0 $2 width*
0 $3 Rotation angle, in degrees counterclockwise*
0 Add horizontal line*
21,1,$1,$2,0,0,$3*%
G04 Aperture macros list end*
%ADD10C,0.300000*%
%ADD11C,0.200000*%
%ADD12C,0.127000*%
%ADD13R,1.900000X9.000000*%
%ADD14RotRect,3.500000X2.000000X45.000000*%
%ADD15RoundRect,0.102000X0.900000X0.900000X-0.900000X0.900000X-0.900000X-0.900000X0.900000X-0.900000X0*%
%ADD16C,2.004000*%
G04 APERTURE END LIST*
D10*
G36*
X182526225Y-51113149D02*
G01*
X182323123Y-50910047D01*
X182526678Y-50706492D01*
X182729780Y-50909594D01*
X182526225Y-51113149D01*
G37*
G36*
X182628877Y-50472174D02*
G01*
X182810801Y-50248282D01*
X182864831Y-50282282D01*
X182917883Y-50300931D01*
X182971288Y-50305923D01*
X183024219Y-50298094D01*
X183069923Y-50278728D01*
X183110014Y-50247505D01*
X183144235Y-50201631D01*
X183162438Y-50148829D01*
X183164740Y-50086435D01*
X183149786Y-50025229D01*
X183113091Y-49957823D01*
X183048552Y-49881779D01*
X182977235Y-49821770D01*
X182913164Y-49788027D01*
X182854064Y-49774982D01*
X182794105Y-49779199D01*
X182740018Y-49800040D01*
X182689691Y-49838840D01*
X182652664Y-49885246D01*
X182627170Y-49938885D01*
X182613019Y-50001360D01*
X182611196Y-50074842D01*
X182421695Y-50215770D01*
X181974171Y-49559575D01*
X182512560Y-49021186D01*
X182703227Y-49211853D01*
X182319173Y-49595908D01*
X182466059Y-49806522D01*
X182493494Y-49741278D01*
X182528596Y-49683976D01*
X182571496Y-49633730D01*
X182643495Y-49574400D01*
X182721324Y-49533611D01*
X182806439Y-49510035D01*
X182900889Y-49503812D01*
X182993894Y-49515743D01*
X183082769Y-49546163D01*
X183169090Y-49596229D01*
X183253986Y-49668444D01*
X183314438Y-49738629D01*
X183360863Y-49813647D01*
X183394210Y-49894239D01*
X183414796Y-49981452D01*
X183421334Y-50078165D01*
X183410204Y-50167828D01*
X183381918Y-50252304D01*
X183335686Y-50333120D01*
X183269464Y-50411359D01*
X183191010Y-50479103D01*
X183112425Y-50527171D01*
X183032845Y-50557899D01*
X182951081Y-50572624D01*
X182867519Y-50571730D01*
X182786842Y-50555187D01*
X182707673Y-50522515D01*
X182628877Y-50472174D01*
G37*
G36*
X186526225Y-47113149D02*
G01*
X186323123Y-46910047D01*
X186526678Y-46706492D01*
X186729780Y-46909594D01*
X186526225Y-47113149D01*
G37*
G36*
X186558796Y-45160794D02*
G01*
X186631891Y-45176785D01*
X186707847Y-45208237D01*
X186787810Y-45257318D01*
X186612751Y-45476417D01*
X186564719Y-45444672D01*
X186522399Y-45427935D01*
X186484193Y-45423245D01*
X186446270Y-45429044D01*
X186410514Y-45445152D01*
X186375906Y-45472855D01*
X186342185Y-45519380D01*
X186325542Y-45574465D01*
X186326491Y-45641567D01*
X186347493Y-45707365D01*
X186404621Y-45804055D01*
X186516122Y-45943500D01*
X186517333Y-45862285D01*
X186534299Y-45789995D01*
X186566601Y-45724558D01*
X186615341Y-45664493D01*
X186683056Y-45608871D01*
X186756991Y-45570441D01*
X186838595Y-45548104D01*
X186929903Y-45542153D01*
X187019629Y-45553525D01*
X187105091Y-45582593D01*
X187187814Y-45630399D01*
X187268882Y-45699272D01*
X187342094Y-45785459D01*
X187392089Y-45872394D01*
X187421650Y-45961282D01*
X187432089Y-46053794D01*
X187423654Y-46146920D01*
X187396844Y-46234053D01*
X187350980Y-46316967D01*
X187283907Y-46396917D01*
X187215918Y-46454622D01*
X187144037Y-46496560D01*
X187067373Y-46524028D01*
X186984662Y-46537425D01*
X186894348Y-46536226D01*
X186811063Y-46520201D01*
X186719931Y-46485448D01*
X186619027Y-46428536D01*
X186506487Y-46345027D01*
X186380505Y-46229630D01*
X186262412Y-46100550D01*
X186180745Y-45990065D01*
X186678487Y-45990065D01*
X186689520Y-46043944D01*
X186718845Y-46101181D01*
X186771036Y-46163699D01*
X186840103Y-46221312D01*
X186904761Y-46254672D01*
X186966884Y-46268230D01*
X187030301Y-46265360D01*
X187081713Y-46248016D01*
X187124133Y-46216806D01*
X187154976Y-46176258D01*
X187171729Y-46131073D01*
X187174973Y-46079311D01*
X187163025Y-46028619D01*
X187130579Y-45969698D01*
X187070637Y-45899589D01*
X186998539Y-45838248D01*
X186936309Y-45804370D01*
X186881265Y-45791432D01*
X186825179Y-45794606D01*
X186776349Y-45812479D01*
X186732630Y-45845640D01*
X186700519Y-45887796D01*
X186682627Y-45935267D01*
X186678487Y-45990065D01*
X186180745Y-45990065D01*
X186176936Y-45984912D01*
X186118695Y-45880902D01*
X186083195Y-45786640D01*
X186066979Y-45700179D01*
X186066328Y-45606985D01*
X186081023Y-45520826D01*
X186110692Y-45440152D01*
X186155930Y-45363707D01*
X186218269Y-45290607D01*
X186282697Y-45235382D01*
X186348466Y-45196029D01*
X186416319Y-45170851D01*
X186487302Y-45159005D01*
X186558796Y-45160794D01*
G37*
G36*
X178526225Y-55113149D02*
G01*
X178323123Y-54910047D01*
X178526678Y-54706492D01*
X178729780Y-54909594D01*
X178526225Y-55113149D01*
G37*
G36*
X179097709Y-53754128D02*
G01*
X179229569Y-53622267D01*
X179407802Y-53800499D01*
X179275941Y-53932360D01*
X179491478Y-54147897D01*
X179294399Y-54344976D01*
X179078862Y-54129439D01*
X178644097Y-54564204D01*
X178466577Y-54386684D01*
X178318842Y-53594871D01*
X178544294Y-53594871D01*
X178656402Y-54195434D01*
X178900630Y-53951207D01*
X178544294Y-53594871D01*
X178318842Y-53594871D01*
X178255185Y-53253691D01*
X178426229Y-53082648D01*
X179097709Y-53754128D01*
G37*
G36*
X167326225Y-51913149D02*
G01*
X167123123Y-51710047D01*
X167326678Y-51506492D01*
X167529780Y-51709594D01*
X167326225Y-51913149D01*
G37*
G36*
X168216092Y-51023283D02*
G01*
X168012472Y-51226903D01*
X167247342Y-50461773D01*
X167232786Y-50604080D01*
X167197312Y-50743238D01*
X167140156Y-50880606D01*
X166953634Y-50694084D01*
X166983973Y-50621737D01*
X167009053Y-50532017D01*
X167027725Y-50421813D01*
X167032013Y-50311997D01*
X167017643Y-50213235D01*
X166985628Y-50123248D01*
X167150842Y-49958034D01*
X168216092Y-51023283D01*
G37*
G36*
X168448560Y-42645000D02*
G01*
X168448560Y-41138510D01*
X168902486Y-41138510D01*
X169175061Y-42166161D01*
X169444521Y-41138510D01*
X169899546Y-41138510D01*
X169899546Y-42645000D01*
X169617720Y-42645000D01*
X169617720Y-41459170D01*
X169319591Y-42645000D01*
X169027507Y-42645000D01*
X168730386Y-41459170D01*
X168730386Y-42645000D01*
X168448560Y-42645000D01*
G37*
G36*
X162313221Y-54816244D02*
G01*
X162398044Y-54834347D01*
X162492033Y-54872012D01*
X162597296Y-54933076D01*
X162715910Y-55022397D01*
X162849926Y-55145702D01*
X162972694Y-55279203D01*
X163061871Y-55397776D01*
X163123051Y-55503393D01*
X163160974Y-55598063D01*
X163179384Y-55683831D01*
X163179708Y-55778057D01*
X163158658Y-55866217D01*
X163115583Y-55950701D01*
X163047587Y-56033237D01*
X162964990Y-56100436D01*
X162877332Y-56143578D01*
X162782675Y-56164796D01*
X162678299Y-56163932D01*
X162601812Y-56147155D01*
X162514142Y-56110819D01*
X162412700Y-56050351D01*
X162294857Y-55960061D01*
X162157915Y-55833308D01*
X162035819Y-55700498D01*
X161947059Y-55582381D01*
X161886107Y-55477016D01*
X161848278Y-55382430D01*
X161829882Y-55296603D01*
X161829569Y-55206645D01*
X162089135Y-55206645D01*
X162094948Y-55260718D01*
X162128512Y-55335915D01*
X162206251Y-55442835D01*
X162373128Y-55622499D01*
X162551151Y-55788752D01*
X162648508Y-55860185D01*
X162709789Y-55890467D01*
X162755272Y-55904027D01*
X162788982Y-55905715D01*
X162837003Y-55892366D01*
X162877645Y-55863294D01*
X162906718Y-55822491D01*
X162920066Y-55773854D01*
X162914296Y-55719723D01*
X162880754Y-55644519D01*
X162803638Y-55538245D01*
X162636915Y-55358713D01*
X162458841Y-55192411D01*
X162361535Y-55121026D01*
X162275699Y-55082079D01*
X162220672Y-55075108D01*
X162172316Y-55088195D01*
X162131556Y-55117205D01*
X162102524Y-55157958D01*
X162089135Y-55206645D01*
X161829569Y-55206645D01*
X161829554Y-55202373D01*
X161850596Y-55114223D01*
X161893652Y-55029762D01*
X161961614Y-54947263D01*
X162044114Y-54879439D01*
X162128930Y-54836491D01*
X162217819Y-54815606D01*
X162313221Y-54816244D01*
G37*
G36*
X163551068Y-55488307D02*
G01*
X163347966Y-55285205D01*
X163551521Y-55081649D01*
X163754623Y-55284751D01*
X163551068Y-55488307D01*
G37*
G36*
X163550485Y-53578980D02*
G01*
X163635309Y-53597083D01*
X163729297Y-53634748D01*
X163834561Y-53695812D01*
X163953174Y-53785133D01*
X164087190Y-53908437D01*
X164209959Y-54041939D01*
X164299135Y-54160511D01*
X164360315Y-54266129D01*
X164398238Y-54360798D01*
X164416648Y-54446567D01*
X164416972Y-54540793D01*
X164395922Y-54628953D01*
X164352847Y-54713437D01*
X164284852Y-54795972D01*
X164202254Y-54863172D01*
X164114596Y-54906314D01*
X164019939Y-54927532D01*
X163915563Y-54926667D01*
X163839076Y-54909891D01*
X163751406Y-54873555D01*
X163649965Y-54813087D01*
X163532121Y-54722797D01*
X163395179Y-54596044D01*
X163273083Y-54463234D01*
X163184323Y-54345117D01*
X163123371Y-54239752D01*
X163085543Y-54145166D01*
X163067146Y-54059339D01*
X163066834Y-53969381D01*
X163326399Y-53969381D01*
X163332213Y-54023454D01*
X163365776Y-54098651D01*
X163443515Y-54205571D01*
X163610392Y-54385235D01*
X163788415Y-54551488D01*
X163885772Y-54622921D01*
X163947054Y-54653203D01*
X163992536Y-54666763D01*
X164026246Y-54668451D01*
X164074267Y-54655102D01*
X164114909Y-54626030D01*
X164143982Y-54585227D01*
X164157330Y-54536590D01*
X164151560Y-54482459D01*
X164118018Y-54407255D01*
X164040902Y-54300981D01*
X163874179Y-54121448D01*
X163696105Y-53955147D01*
X163598799Y-53883762D01*
X163512963Y-53844815D01*
X163457936Y-53837844D01*
X163409580Y-53850931D01*
X163368820Y-53879941D01*
X163339788Y-53920694D01*
X163326399Y-53969381D01*
X163066834Y-53969381D01*
X163066819Y-53965109D01*
X163087860Y-53876959D01*
X163130916Y-53792498D01*
X163198878Y-53709998D01*
X163281379Y-53642174D01*
X163366194Y-53599226D01*
X163455083Y-53578342D01*
X163550485Y-53578980D01*
G37*
G36*
X175326225Y-43913149D02*
G01*
X175123123Y-43710047D01*
X175326678Y-43506492D01*
X175529780Y-43709594D01*
X175326225Y-43913149D01*
G37*
G36*
X175401935Y-43265568D02*
G01*
X175574080Y-43043554D01*
X175635373Y-43083712D01*
X175691781Y-43105872D01*
X175744929Y-43112982D01*
X175797740Y-43106499D01*
X175844367Y-43087234D01*
X175886439Y-43054499D01*
X175921034Y-43009205D01*
X175940260Y-42958566D01*
X175944728Y-42900489D01*
X175933727Y-42842909D01*
X175906001Y-42785963D01*
X175858655Y-42728150D01*
X175803913Y-42683435D01*
X175749977Y-42657480D01*
X175695384Y-42647518D01*
X175640283Y-42652166D01*
X175592362Y-42670556D01*
X175549663Y-42703216D01*
X175512445Y-42747323D01*
X175471428Y-42811891D01*
X175329463Y-42624980D01*
X175379817Y-42567608D01*
X175408530Y-42514290D01*
X175419875Y-42463328D01*
X175416162Y-42411555D01*
X175397646Y-42364146D01*
X175362882Y-42319291D01*
X175324868Y-42288882D01*
X175286294Y-42271755D01*
X175245982Y-42266249D01*
X175205661Y-42271935D01*
X175167228Y-42289068D01*
X175129535Y-42319226D01*
X175100242Y-42356629D01*
X175082716Y-42397886D01*
X175076298Y-42444352D01*
X175081939Y-42491048D01*
X175101085Y-42540505D01*
X175136400Y-42594217D01*
X174917107Y-42750300D01*
X174869714Y-42670227D01*
X174838650Y-42599385D01*
X174821255Y-42536317D01*
X174815160Y-42471630D01*
X174821235Y-42404929D01*
X174840231Y-42335094D01*
X174870148Y-42268775D01*
X174911496Y-42205075D01*
X174965356Y-42143520D01*
X175045455Y-42076252D01*
X175127270Y-42031093D01*
X175212081Y-42005534D01*
X175301679Y-41998641D01*
X175376604Y-42006792D01*
X175442509Y-42026679D01*
X175500996Y-42057906D01*
X175553225Y-42100969D01*
X175599876Y-42159282D01*
X175630240Y-42223985D01*
X175645169Y-42296837D01*
X175643799Y-42380273D01*
X175623624Y-42477187D01*
X175700097Y-42438416D01*
X175777389Y-42419407D01*
X175857425Y-42419029D01*
X175935494Y-42436896D01*
X176008114Y-42472939D01*
X176076848Y-42528999D01*
X176138302Y-42603418D01*
X176180913Y-42683977D01*
X176206001Y-42772143D01*
X176213436Y-42869985D01*
X176202506Y-42966989D01*
X176173514Y-43057083D01*
X176125928Y-43141998D01*
X176057872Y-43222952D01*
X175981069Y-43288464D01*
X175902171Y-43334895D01*
X175820233Y-43364226D01*
X175733919Y-43377351D01*
X175646372Y-43374208D01*
X175562760Y-43354993D01*
X175481660Y-43319281D01*
X175401935Y-43265568D01*
G37*
G36*
X171326225Y-47913149D02*
G01*
X171123123Y-47710047D01*
X171326678Y-47506492D01*
X171529780Y-47709594D01*
X171326225Y-47913149D01*
G37*
G36*
X172192064Y-46665976D02*
G01*
X172382731Y-46856643D01*
X171669089Y-47570285D01*
X171612171Y-47487776D01*
X171567877Y-47397401D01*
X171535998Y-47298079D01*
X171518225Y-47193354D01*
X171508480Y-47037440D01*
X171510934Y-46815129D01*
X171514151Y-46572629D01*
X171506271Y-46472913D01*
X171486973Y-46405486D01*
X171459420Y-46350750D01*
X171424020Y-46306597D01*
X171375660Y-46267268D01*
X171329168Y-46245648D01*
X171283027Y-46238789D01*
X171236763Y-46245532D01*
X171191353Y-46266260D01*
X171145402Y-46303359D01*
X171109093Y-46348814D01*
X171088753Y-46394947D01*
X171082386Y-46443186D01*
X171090468Y-46491310D01*
X171116526Y-46547313D01*
X171166321Y-46614035D01*
X170943207Y-46796607D01*
X170874611Y-46697200D01*
X170833052Y-46606211D01*
X170814035Y-46521525D01*
X170814908Y-46440854D01*
X170832909Y-46360041D01*
X170865617Y-46281621D01*
X170914191Y-46204610D01*
X170980576Y-46128300D01*
X171064819Y-46055845D01*
X171147350Y-46006502D01*
X171229300Y-45977083D01*
X171312171Y-45965741D01*
X171396823Y-45971338D01*
X171473932Y-45992985D01*
X171545289Y-46030752D01*
X171612161Y-46086073D01*
X171675701Y-46162555D01*
X171722585Y-46247920D01*
X171754586Y-46343667D01*
X171776404Y-46464817D01*
X171781748Y-46561209D01*
X171778218Y-46733202D01*
X171773101Y-46972248D01*
X171787803Y-47070237D01*
X172192064Y-46665976D01*
G37*
G36*
X190526225Y-43113149D02*
G01*
X190323123Y-42910047D01*
X190526678Y-42706492D01*
X190729780Y-42909594D01*
X190526225Y-43113149D01*
G37*
G36*
X190032977Y-41882103D02*
G01*
X189842310Y-41691435D01*
X190538660Y-40995086D01*
X190687878Y-41144304D01*
X190694024Y-41257714D01*
X190715874Y-41396202D01*
X190756982Y-41564173D01*
X190810603Y-41727020D01*
X190878085Y-41885027D01*
X190959760Y-42038704D01*
X191053594Y-42186234D01*
X191145053Y-42307301D01*
X191234232Y-42405142D01*
X191037866Y-42601509D01*
X190936030Y-42484953D01*
X190842064Y-42356341D01*
X190755922Y-42214843D01*
X190677710Y-42059493D01*
X190592735Y-41845732D01*
X190532494Y-41632623D01*
X190495980Y-41419100D01*
X190032977Y-41882103D01*
G37*
D11*
X174100862Y-45407107D02*
X177707107Y-41800862D01*
X177707107Y-41800862D02*
X183434672Y-47528427D01*
X179828427Y-51134672D02*
X174100862Y-45407107D01*
X183434672Y-47528427D02*
X179828427Y-51134672D01*
X177279973Y-56636218D02*
X180886218Y-53029973D01*
X180886218Y-53029973D02*
X186613783Y-58757538D01*
X183007538Y-62363783D02*
X177279973Y-56636218D01*
X186613783Y-58757538D02*
X183007538Y-62363783D01*
D12*
X157300000Y-40300000D02*
X167300000Y-40300000D01*
X157300000Y-48500000D02*
X157300000Y-40300000D01*
X167300000Y-40300000D02*
X167300000Y-48500000D01*
X167300000Y-48500000D02*
X157300000Y-48500000D01*
X167900000Y-40300000D02*
X167300000Y-40300000D01*
X167900000Y-40300000D02*
X167900000Y-48500000D01*
X167900000Y-48500000D02*
X167300000Y-48500000D01*
D11*
X189279973Y-44636218D02*
X192886218Y-41029973D01*
X192886218Y-41029973D02*
X198613783Y-46757538D01*
X195007538Y-50363783D02*
X189279973Y-44636218D01*
X198613783Y-46757538D02*
X195007538Y-50363783D01*
X166015328Y-53421573D02*
X169621573Y-49815328D01*
X169621573Y-49815328D02*
X175349138Y-55542893D01*
X171742893Y-59149138D02*
X166015328Y-53421573D01*
X175349138Y-55542893D02*
X171742893Y-59149138D01*
X170083095Y-49439340D02*
X173689340Y-45833095D01*
X173689340Y-45833095D02*
X179416905Y-51560660D01*
X175810660Y-55166905D02*
X170083095Y-49439340D01*
X179416905Y-51560660D02*
X175810660Y-55166905D01*
X185226851Y-48636218D02*
X188833096Y-45029973D01*
X188833096Y-45029973D02*
X194560661Y-50757538D01*
X190954416Y-54363783D02*
X185226851Y-48636218D01*
X194560661Y-50757538D02*
X190954416Y-54363783D01*
X181279973Y-52636218D02*
X184886218Y-49029973D01*
X184886218Y-49029973D02*
X190613783Y-54757538D01*
X187007538Y-58363783D02*
X181279973Y-52636218D01*
X190613783Y-54757538D02*
X187007538Y-58363783D01*
X162050862Y-57407107D02*
X165657107Y-53800862D01*
X165657107Y-53800862D02*
X171384672Y-59528427D01*
X167778427Y-63134672D02*
X162050862Y-57407107D01*
X171384672Y-59528427D02*
X167778427Y-63134672D01*
%LPC*%
D13*
X170000000Y-69450000D03*
X178000000Y-69450000D03*
X194000000Y-69450000D03*
X158000000Y-69450000D03*
D14*
X177000000Y-44700000D03*
X178767767Y-46467767D03*
X180535534Y-48235534D03*
X180179111Y-55929111D03*
X181946878Y-57696878D03*
X183714645Y-59464645D03*
D15*
X164800000Y-44400000D03*
D16*
X159800000Y-44400000D03*
D14*
X192179111Y-43929111D03*
X193946878Y-45696878D03*
X195714645Y-47464645D03*
X168914466Y-52714466D03*
X170682233Y-54482233D03*
X172450000Y-56250000D03*
D13*
X162000000Y-69450000D03*
D14*
X172982233Y-48732233D03*
X174750000Y-50500000D03*
X176517767Y-52267767D03*
X188125989Y-47929111D03*
X189893756Y-49696878D03*
X191661523Y-51464645D03*
D13*
X182000000Y-69450000D03*
D14*
X184179111Y-51929111D03*
X185946878Y-53696878D03*
X187714645Y-55464645D03*
D13*
X174000000Y-69450000D03*
X190000000Y-69450000D03*
D14*
X164950000Y-56700000D03*
X166717767Y-58467767D03*
X168485534Y-60235534D03*
D13*
X186000000Y-69450000D03*
X198000000Y-69450000D03*
X166000000Y-69450000D03*
%LPD*%
M02*
