M48
; DRILL file {KiCad 9.0.1} date 2025-05-31T22:38:18+0200
; FORMAT={-:-/ absolute / metric / decimal}
; #@! TF.CreationDate,2025-05-31T22:38:18+02:00
; #@! TF.GenerationSoftware,Kicad,Pcbnew,9.0.1
; #@! TF.FileFunction,Plated,1,2,PTH
FMAT,2
METRIC
; #@! TA.AperFunction,Plated,PTH,ViaDrill
T1C0.500
; #@! TA.AperFunction,Plated,PTH,ComponentDrill
T2C1.000
; #@! TA.AperFunction,Plated,PTH,ComponentDrill
T3C1.200
%
G90
G05
T1
X158.675Y-63.1
X162.0Y-63.05
X166.0Y-63.05
X170.0Y-63.05
X174.0Y-63.05
X178.0Y-63.05
X182.0Y-63.05
X186.0Y-63.05
X190.0Y-63.05
X194.0Y-63.05
X197.0Y-63.05
T3
X159.8Y-44.4
X164.8Y-44.4
T2
X164.42Y-57.23G85X165.48Y-56.17
G05
X166.187Y-58.998G85X167.248Y-57.937
G05
X167.955Y-60.766G85X169.016Y-59.705
G05
X168.384Y-53.245G85X169.445Y-52.184
G05
X170.152Y-55.013G85X171.213Y-53.952
G05
X171.92Y-56.78G85X172.98Y-55.72
G05
X172.452Y-49.263G85X173.513Y-48.202
G05
X174.22Y-51.03G85X175.28Y-49.97
G05
X175.987Y-52.798G85X177.048Y-51.737
G05
X176.47Y-45.23G85X177.53Y-44.17
G05
X178.237Y-46.998G85X179.298Y-45.937
G05
X179.649Y-56.459G85X180.709Y-55.399
G05
X180.005Y-48.766G85X181.066Y-47.705
G05
X181.417Y-58.227G85X182.477Y-57.167
G05
X183.184Y-59.995G85X184.245Y-58.934
G05
X183.649Y-52.459G85X184.709Y-51.399
G05
X185.417Y-54.227G85X186.477Y-53.167
G05
X187.184Y-55.995G85X188.245Y-54.934
G05
X187.596Y-48.459G85X188.656Y-47.399
G05
X189.363Y-50.227G85X190.424Y-49.167
G05
X191.131Y-51.995G85X192.192Y-50.934
G05
X191.649Y-44.459G85X192.709Y-43.399
G05
X193.417Y-46.227G85X194.477Y-45.167
G05
X195.184Y-47.995G85X196.245Y-46.934
G05
M30
