%TF.GenerationSoftware,KiCad,Pcbnew,9.0.1*%
%TF.CreationDate,2025-05-31T22:38:18+02:00*%
%TF.ProjectId,Sim-module,53696d2d-6d6f-4647-956c-652e6b696361,rev?*%
%TF.SameCoordinates,Original*%
%TF.FileFunction,Drillmap*%
%TF.FilePolarity,Positive*%
%FSLAX45Y45*%
G04 Gerber Fmt 4.5, Leading zero omitted, Abs format (unit mm)*
G04 Created by KiCad (PCBNEW 9.0.1) date 2025-05-31 22:38:18*
%MOMM*%
%LPD*%
G01*
G04 APERTURE LIST*
%ADD10C,0.050000*%
%ADD11C,0.200000*%
G04 APERTURE END LIST*
D10*
X18700000Y-6500000D02*
X18900000Y-6500000D01*
X17500000Y-6500000D02*
X17700000Y-6500000D01*
X19300000Y-6500000D02*
X19300000Y-7400000D01*
X19100000Y-6500000D02*
X19300000Y-6500000D01*
X18500000Y-7400000D02*
X18700000Y-7400000D01*
X18900000Y-6500000D02*
X18900000Y-7400000D01*
X16300000Y-7400000D02*
X16300000Y-6500000D01*
X17300000Y-6500000D02*
X17300000Y-7400000D01*
X18300000Y-6500000D02*
X18500000Y-6500000D01*
X18100000Y-6500000D02*
X18100000Y-7400000D01*
X18300000Y-7400000D02*
X18300000Y-6500000D01*
X16500000Y-6500000D02*
X16500000Y-7400000D01*
X19100000Y-7400000D02*
X19100000Y-6500000D01*
X19300000Y-7400000D02*
X19500000Y-7400000D01*
X17700000Y-7400000D02*
X17900000Y-7400000D01*
X19700000Y-7400000D02*
X19900000Y-7400000D01*
X16500000Y-7400000D02*
X16700000Y-7400000D01*
X17100000Y-6500000D02*
X17300000Y-6500000D01*
X18900000Y-7400000D02*
X19100000Y-7400000D01*
X17500000Y-7400000D02*
X17500000Y-6500000D01*
X19900000Y-4000000D02*
X15700000Y-4000000D01*
X16300000Y-6500000D02*
X16500000Y-6500000D01*
X15700000Y-4000000D02*
X15700000Y-7400000D01*
X19900000Y-4000000D02*
X19900000Y-6500000D01*
X19900000Y-7400000D02*
X19900000Y-6500000D01*
X16700000Y-6500000D02*
X16900000Y-6500000D01*
X18700000Y-7400000D02*
X18700000Y-6500000D01*
X17300000Y-7400000D02*
X17500000Y-7400000D01*
X16900000Y-6500000D02*
X16900000Y-7400000D01*
X15900000Y-7400000D02*
X15900000Y-6500000D01*
X16900000Y-7400000D02*
X17100000Y-7400000D01*
X18500000Y-6500000D02*
X18500000Y-7400000D01*
X16700000Y-7400000D02*
X16700000Y-6500000D01*
X16100000Y-7400000D02*
X16300000Y-7400000D01*
X18100000Y-7400000D02*
X18300000Y-7400000D01*
X17900000Y-7400000D02*
X17900000Y-6500000D01*
X16100000Y-6500000D02*
X16100000Y-7400000D01*
X17900000Y-6500000D02*
X18100000Y-6500000D01*
X19700000Y-6500000D02*
X19700000Y-7400000D01*
X15900000Y-6500000D02*
X16100000Y-6500000D01*
X17700000Y-6500000D02*
X17700000Y-7400000D01*
X15700000Y-7400000D02*
X15900000Y-7400000D01*
X19500000Y-7400000D02*
X19500000Y-6500000D01*
X17100000Y-7400000D02*
X17100000Y-6500000D01*
X19500000Y-6500000D02*
X19700000Y-6500000D01*
D11*
X15958277Y-7713984D02*
X15958277Y-7513984D01*
X15958277Y-7513984D02*
X16005896Y-7513984D01*
X16005896Y-7513984D02*
X16034467Y-7523508D01*
X16034467Y-7523508D02*
X16053515Y-7542555D01*
X16053515Y-7542555D02*
X16063039Y-7561603D01*
X16063039Y-7561603D02*
X16072562Y-7599698D01*
X16072562Y-7599698D02*
X16072562Y-7628269D01*
X16072562Y-7628269D02*
X16063039Y-7666365D01*
X16063039Y-7666365D02*
X16053515Y-7685412D01*
X16053515Y-7685412D02*
X16034467Y-7704460D01*
X16034467Y-7704460D02*
X16005896Y-7713984D01*
X16005896Y-7713984D02*
X15958277Y-7713984D01*
X16158277Y-7713984D02*
X16158277Y-7580650D01*
X16158277Y-7618746D02*
X16167801Y-7599698D01*
X16167801Y-7599698D02*
X16177324Y-7590174D01*
X16177324Y-7590174D02*
X16196372Y-7580650D01*
X16196372Y-7580650D02*
X16215420Y-7580650D01*
X16282086Y-7713984D02*
X16282086Y-7580650D01*
X16282086Y-7513984D02*
X16272562Y-7523508D01*
X16272562Y-7523508D02*
X16282086Y-7533031D01*
X16282086Y-7533031D02*
X16291610Y-7523508D01*
X16291610Y-7523508D02*
X16282086Y-7513984D01*
X16282086Y-7513984D02*
X16282086Y-7533031D01*
X16405896Y-7713984D02*
X16386848Y-7704460D01*
X16386848Y-7704460D02*
X16377324Y-7685412D01*
X16377324Y-7685412D02*
X16377324Y-7513984D01*
X16510658Y-7713984D02*
X16491610Y-7704460D01*
X16491610Y-7704460D02*
X16482086Y-7685412D01*
X16482086Y-7685412D02*
X16482086Y-7513984D01*
X16739229Y-7713984D02*
X16739229Y-7513984D01*
X16739229Y-7513984D02*
X16805896Y-7656841D01*
X16805896Y-7656841D02*
X16872563Y-7513984D01*
X16872563Y-7513984D02*
X16872563Y-7713984D01*
X17053515Y-7713984D02*
X17053515Y-7609222D01*
X17053515Y-7609222D02*
X17043991Y-7590174D01*
X17043991Y-7590174D02*
X17024944Y-7580650D01*
X17024944Y-7580650D02*
X16986848Y-7580650D01*
X16986848Y-7580650D02*
X16967801Y-7590174D01*
X17053515Y-7704460D02*
X17034467Y-7713984D01*
X17034467Y-7713984D02*
X16986848Y-7713984D01*
X16986848Y-7713984D02*
X16967801Y-7704460D01*
X16967801Y-7704460D02*
X16958277Y-7685412D01*
X16958277Y-7685412D02*
X16958277Y-7666365D01*
X16958277Y-7666365D02*
X16967801Y-7647317D01*
X16967801Y-7647317D02*
X16986848Y-7637793D01*
X16986848Y-7637793D02*
X17034467Y-7637793D01*
X17034467Y-7637793D02*
X17053515Y-7628269D01*
X17148753Y-7580650D02*
X17148753Y-7780650D01*
X17148753Y-7590174D02*
X17167801Y-7580650D01*
X17167801Y-7580650D02*
X17205896Y-7580650D01*
X17205896Y-7580650D02*
X17224944Y-7590174D01*
X17224944Y-7590174D02*
X17234467Y-7599698D01*
X17234467Y-7599698D02*
X17243991Y-7618746D01*
X17243991Y-7618746D02*
X17243991Y-7675888D01*
X17243991Y-7675888D02*
X17234467Y-7694936D01*
X17234467Y-7694936D02*
X17224944Y-7704460D01*
X17224944Y-7704460D02*
X17205896Y-7713984D01*
X17205896Y-7713984D02*
X17167801Y-7713984D01*
X17167801Y-7713984D02*
X17148753Y-7704460D01*
X17329705Y-7694936D02*
X17339229Y-7704460D01*
X17339229Y-7704460D02*
X17329705Y-7713984D01*
X17329705Y-7713984D02*
X17320182Y-7704460D01*
X17320182Y-7704460D02*
X17329705Y-7694936D01*
X17329705Y-7694936D02*
X17329705Y-7713984D01*
X17329705Y-7590174D02*
X17339229Y-7599698D01*
X17339229Y-7599698D02*
X17329705Y-7609222D01*
X17329705Y-7609222D02*
X17320182Y-7599698D01*
X17320182Y-7599698D02*
X17329705Y-7590174D01*
X17329705Y-7590174D02*
X17329705Y-7609222D01*
M02*
