G04 #@! TF.GenerationSoftware,KiCad,Pcbnew,9.0.1*
G04 #@! TF.CreationDate,2025-06-01T13:14:11+02:00*
G04 #@! TF.ProjectId,Sim-module,53696d2d-6d6f-4647-956c-652e6b696361,rev?*
G04 #@! TF.SameCoordinates,Original*
G04 #@! TF.FileFunction,Legend,Bot*
G04 #@! TF.FilePolarity,Positive*
%FSLAX46Y46*%
G04 Gerber Fmt 4.6, Leading zero omitted, Abs format (unit mm)*
G04 Created by KiCad (PCBNEW 9.0.1) date 2025-06-01 13:14:11*
%MOMM*%
%LPD*%
G01*
G04 APERTURE LIST*
G04 Aperture macros list*
%AMRoundRect*
0 Rectangle with rounded corners*
0 $1 Rounding radius*
0 $2 $3 $4 $5 $6 $7 $8 $9 X,Y pos of 4 corners*
0 Add a 4 corners polygon primitive as box body*
4,1,4,$2,$3,$4,$5,$6,$7,$8,$9,$2,$3,0*
0 Add four circle primitives for the rounded corners*
1,1,$1+$1,$2,$3*
1,1,$1+$1,$4,$5*
1,1,$1+$1,$6,$7*
1,1,$1+$1,$8,$9*
0 Add four rect primitives between the rounded corners*
20,1,$1+$1,$2,$3,$4,$5,0*
20,1,$1+$1,$4,$5,$6,$7,0*
20,1,$1+$1,$6,$7,$8,$9,0*
20,1,$1+$1,$8,$9,$2,$3,0*%
%AMRotRect*
0 Rectangle, with rotation*
0 The origin of the aperture is its center*
0 $1 length*
0 $2 width*
0 $3 Rotation angle, in degrees counterclockwise*
0 Add horizontal line*
21,1,$1,$2,0,0,$3*%
G04 Aperture macros list end*
%ADD10C,0.250000*%
%ADD11C,0.010000*%
%ADD12RotRect,3.500000X2.000000X45.000000*%
%ADD13RoundRect,0.102000X0.900000X0.900000X-0.900000X0.900000X-0.900000X-0.900000X0.900000X-0.900000X0*%
%ADD14C,2.004000*%
%ADD15R,1.900000X9.000000*%
G04 APERTURE END LIST*
D10*
G36*
X178224616Y-41095874D02*
G01*
X178203504Y-41146209D01*
X178178817Y-41184394D01*
X178150830Y-41212598D01*
X178117464Y-41233694D01*
X178080912Y-41246315D01*
X178040188Y-41250626D01*
X177995832Y-41244736D01*
X177954532Y-41227032D01*
X177918228Y-41198279D01*
X177885655Y-41155884D01*
X177860605Y-41104237D01*
X177840153Y-41035424D01*
X177828148Y-40959316D01*
X177823740Y-40864185D01*
X177824546Y-40836635D01*
X177825352Y-40809817D01*
X178224616Y-41095874D01*
G37*
G36*
X178084438Y-40478022D02*
G01*
X178125404Y-40495549D01*
X178161281Y-40524154D01*
X178193841Y-40567137D01*
X178219016Y-40619273D01*
X178239783Y-40688184D01*
X178252040Y-40764474D01*
X178256563Y-40860888D01*
X178256563Y-40890050D01*
X178254951Y-40917674D01*
X177853269Y-40631617D01*
X177875917Y-40579318D01*
X177901292Y-40539975D01*
X177929106Y-40511230D01*
X177962281Y-40489586D01*
X177998954Y-40476618D01*
X178040188Y-40472175D01*
X178084438Y-40478022D01*
G37*
G36*
X182837875Y-41095874D02*
G01*
X182816762Y-41146209D01*
X182792076Y-41184394D01*
X182764089Y-41212598D01*
X182730723Y-41233694D01*
X182694170Y-41246315D01*
X182653447Y-41250626D01*
X182609091Y-41244736D01*
X182567791Y-41227032D01*
X182531487Y-41198279D01*
X182498914Y-41155884D01*
X182473864Y-41104237D01*
X182453412Y-41035424D01*
X182441407Y-40959316D01*
X182436999Y-40864185D01*
X182437805Y-40836635D01*
X182438611Y-40809817D01*
X182837875Y-41095874D01*
G37*
G36*
X182697697Y-40478022D02*
G01*
X182738663Y-40495549D01*
X182774539Y-40524154D01*
X182807100Y-40567137D01*
X182832275Y-40619273D01*
X182853042Y-40688184D01*
X182865299Y-40764474D01*
X182869822Y-40860888D01*
X182869822Y-40890050D01*
X182868210Y-40917674D01*
X182466528Y-40631617D01*
X182489176Y-40579318D01*
X182514551Y-40539975D01*
X182542365Y-40511230D01*
X182575540Y-40489586D01*
X182612213Y-40476618D01*
X182653447Y-40472175D01*
X182697697Y-40478022D01*
G37*
G36*
X190067854Y-40899136D02*
G01*
X190117826Y-40912106D01*
X190163768Y-40929984D01*
X190202676Y-40950501D01*
X190199546Y-41028678D01*
X190191245Y-41087814D01*
X190176100Y-41140357D01*
X190156367Y-41179185D01*
X190129753Y-41209983D01*
X190098189Y-41230256D01*
X190061483Y-41241836D01*
X190017442Y-41245937D01*
X189979366Y-41242569D01*
X189946147Y-41232894D01*
X189916348Y-41216921D01*
X189891632Y-41195672D01*
X189871769Y-41169487D01*
X189856755Y-41138372D01*
X189847619Y-41104082D01*
X189844445Y-41065173D01*
X189846998Y-41028549D01*
X189854337Y-40996076D01*
X189867058Y-40966582D01*
X189885038Y-40942074D01*
X189908386Y-40922307D01*
X189938307Y-40906903D01*
X189972574Y-40897611D01*
X190015757Y-40894227D01*
X190067854Y-40899136D01*
G37*
G36*
X181041737Y-41002085D02*
G01*
X180736775Y-41002085D01*
X180736775Y-40520316D01*
X181041737Y-41002085D01*
G37*
G36*
X187422411Y-41231868D02*
G01*
X187281434Y-41231868D01*
X187234802Y-41228608D01*
X187196584Y-41219558D01*
X187162470Y-41204544D01*
X187135547Y-41185487D01*
X187113863Y-41161713D01*
X187098251Y-41134196D01*
X187088722Y-41103749D01*
X187085502Y-41070961D01*
X187091521Y-41027045D01*
X187108737Y-40991321D01*
X187137599Y-40961785D01*
X187174530Y-40941385D01*
X187226132Y-40927590D01*
X187296967Y-40922364D01*
X187422411Y-40922364D01*
X187422411Y-41231868D01*
G37*
G36*
X187422411Y-40767612D02*
G01*
X187300265Y-40767612D01*
X187253195Y-40764416D01*
X187217100Y-40755815D01*
X187185483Y-40741407D01*
X187161339Y-40723281D01*
X187142566Y-40700860D01*
X187130198Y-40675727D01*
X187123158Y-40648179D01*
X187120746Y-40617988D01*
X187123284Y-40588845D01*
X187130565Y-40563473D01*
X187143271Y-40541034D01*
X187162145Y-40522001D01*
X187186053Y-40507288D01*
X187217906Y-40495623D01*
X187253783Y-40488788D01*
X187300265Y-40486244D01*
X187422411Y-40486244D01*
X187422411Y-40767612D01*
G37*
G36*
X189261193Y-41020842D02*
G01*
X188980778Y-41020842D01*
X189120143Y-40519656D01*
X189261193Y-41020842D01*
G37*
G36*
X193879361Y-40795748D02*
G01*
X193797369Y-40795748D01*
X193751911Y-40793204D01*
X193712592Y-40786003D01*
X193676520Y-40773514D01*
X193647379Y-40756767D01*
X193623344Y-40734790D01*
X193605614Y-40708334D01*
X193594646Y-40677912D01*
X193590812Y-40642022D01*
X193597002Y-40592521D01*
X193613878Y-40556230D01*
X193640858Y-40529768D01*
X193675984Y-40512120D01*
X193724638Y-40500151D01*
X193790847Y-40495623D01*
X193879361Y-40495623D01*
X193879361Y-40795748D01*
G37*
G36*
X197565059Y-41020842D02*
G01*
X197284644Y-41020842D01*
X197424009Y-40519656D01*
X197565059Y-41020842D01*
G37*
G36*
X198925126Y-41707532D02*
G01*
X175698338Y-41707532D01*
X175698338Y-41056380D01*
X175831671Y-41056380D01*
X175835869Y-41112706D01*
X175848018Y-41163265D01*
X175867794Y-41209007D01*
X175910597Y-41270209D01*
X175967812Y-41321481D01*
X176036186Y-41361174D01*
X176118607Y-41391017D01*
X176207781Y-41408643D01*
X176307138Y-41414757D01*
X176361287Y-41413145D01*
X176419466Y-41409262D01*
X176476912Y-41403400D01*
X176528496Y-41396000D01*
X176528496Y-41222489D01*
X176421078Y-41239562D01*
X176297320Y-41245937D01*
X176216361Y-41239864D01*
X176155413Y-41223590D01*
X176135982Y-41213110D01*
X176746116Y-41213110D01*
X176746116Y-41396000D01*
X177473276Y-41396000D01*
X177473276Y-41249967D01*
X177219972Y-40995710D01*
X177105666Y-40872905D01*
X177092881Y-40856491D01*
X177622093Y-40856491D01*
X177622548Y-40864185D01*
X177629649Y-40984384D01*
X177650816Y-41092284D01*
X177673647Y-41159863D01*
X177701729Y-41218007D01*
X177734787Y-41267845D01*
X177774634Y-41312059D01*
X177819444Y-41348298D01*
X177869682Y-41377095D01*
X177923872Y-41397624D01*
X177984168Y-41410343D01*
X178051618Y-41414757D01*
X178137561Y-41406816D01*
X178214724Y-41383690D01*
X178261830Y-41359202D01*
X178304600Y-41326818D01*
X178343464Y-41285870D01*
X178375709Y-41239223D01*
X178388790Y-41213110D01*
X178591420Y-41213110D01*
X178591420Y-41396000D01*
X179318579Y-41396000D01*
X179318579Y-41249967D01*
X179065275Y-40995710D01*
X178950969Y-40872905D01*
X178911251Y-40821914D01*
X178884511Y-40780801D01*
X178864580Y-40740420D01*
X178853810Y-40705916D01*
X178846409Y-40634695D01*
X178848887Y-40605086D01*
X178856228Y-40577175D01*
X178868415Y-40551535D01*
X178884951Y-40529914D01*
X178905896Y-40512203D01*
X178932505Y-40498114D01*
X178962508Y-40489343D01*
X178998084Y-40486244D01*
X179059176Y-40493335D01*
X179115321Y-40514381D01*
X179167330Y-40546705D01*
X179217756Y-40589412D01*
X179323489Y-40452025D01*
X179249426Y-40393198D01*
X179166538Y-40347392D01*
X179107214Y-40325672D01*
X179044457Y-40312515D01*
X178977568Y-40308044D01*
X178901120Y-40313268D01*
X178834905Y-40328121D01*
X178774827Y-40353356D01*
X178725436Y-40387472D01*
X178685337Y-40431291D01*
X178654947Y-40485731D01*
X178636500Y-40547579D01*
X178629961Y-40621579D01*
X178634368Y-40683980D01*
X178647180Y-40740720D01*
X178668101Y-40794822D01*
X178697226Y-40848358D01*
X178733066Y-40899809D01*
X178777972Y-40953138D01*
X178887369Y-41063634D01*
X179043147Y-41213110D01*
X178591420Y-41213110D01*
X178388790Y-41213110D01*
X178403966Y-41182815D01*
X178427875Y-41115145D01*
X178444043Y-41045204D01*
X178454481Y-40962860D01*
X178458210Y-40866310D01*
X178450558Y-40738443D01*
X178429120Y-40630591D01*
X178406068Y-40562923D01*
X178377984Y-40504781D01*
X178345150Y-40455030D01*
X178305486Y-40410833D01*
X178260567Y-40374564D01*
X178209888Y-40345706D01*
X178155138Y-40325129D01*
X178094789Y-40312433D01*
X178027878Y-40308044D01*
X177941875Y-40316005D01*
X177864699Y-40339185D01*
X177817599Y-40363624D01*
X177775005Y-40395871D01*
X177736472Y-40436565D01*
X177704462Y-40482912D01*
X177676324Y-40539160D01*
X177652428Y-40606851D01*
X177646705Y-40631617D01*
X177636276Y-40676745D01*
X177625831Y-40759334D01*
X177622093Y-40856491D01*
X177092881Y-40856491D01*
X177065948Y-40821914D01*
X177039207Y-40780801D01*
X177019276Y-40740420D01*
X177008506Y-40705916D01*
X177001106Y-40634695D01*
X177003583Y-40605086D01*
X177010924Y-40577175D01*
X177023112Y-40551535D01*
X177039647Y-40529914D01*
X177060592Y-40512203D01*
X177087201Y-40498114D01*
X177117204Y-40489343D01*
X177152780Y-40486244D01*
X177213872Y-40493335D01*
X177270017Y-40514381D01*
X177322027Y-40546705D01*
X177372452Y-40589412D01*
X177478185Y-40452025D01*
X177404122Y-40393198D01*
X177321235Y-40347392D01*
X177261910Y-40325672D01*
X177199154Y-40312515D01*
X177132264Y-40308044D01*
X177055816Y-40313268D01*
X176989602Y-40328121D01*
X176929524Y-40353356D01*
X176880132Y-40387472D01*
X176840034Y-40431291D01*
X176809644Y-40485731D01*
X176791197Y-40547579D01*
X176784658Y-40621579D01*
X176789065Y-40683980D01*
X176801877Y-40740720D01*
X176822797Y-40794822D01*
X176851922Y-40848358D01*
X176887762Y-40899809D01*
X176932669Y-40953138D01*
X177042065Y-41063634D01*
X177197843Y-41213110D01*
X176746116Y-41213110D01*
X176135982Y-41213110D01*
X176110034Y-41199115D01*
X176074226Y-41163835D01*
X176053015Y-41121325D01*
X176045628Y-41069203D01*
X176052806Y-41014706D01*
X176072798Y-40972990D01*
X176105491Y-40940902D01*
X176147802Y-40919565D01*
X176210046Y-40904678D01*
X176298932Y-40898916D01*
X176508785Y-40898916D01*
X176508785Y-40326802D01*
X175890729Y-40326802D01*
X175890729Y-40514381D01*
X176321866Y-40514381D01*
X176321866Y-40734785D01*
X176244783Y-40734785D01*
X176163981Y-40738535D01*
X176088272Y-40749513D01*
X176017142Y-40770035D01*
X175956748Y-40800658D01*
X175905756Y-40843238D01*
X175865743Y-40899283D01*
X175847545Y-40942036D01*
X175835866Y-40993779D01*
X175831671Y-41056380D01*
X175698338Y-41056380D01*
X175698338Y-40237702D01*
X179520666Y-40237702D01*
X180093660Y-41574199D01*
X180287906Y-41574199D01*
X180043001Y-41002085D01*
X180381842Y-41002085D01*
X180381842Y-41180284D01*
X180544141Y-41180284D01*
X180544141Y-41396000D01*
X180739267Y-41396000D01*
X180739267Y-41213110D01*
X181359375Y-41213110D01*
X181359375Y-41396000D01*
X182086535Y-41396000D01*
X182086535Y-41249967D01*
X181833230Y-40995710D01*
X181718925Y-40872905D01*
X181706140Y-40856491D01*
X182235352Y-40856491D01*
X182235807Y-40864185D01*
X182242908Y-40984384D01*
X182264075Y-41092284D01*
X182286906Y-41159863D01*
X182314988Y-41218007D01*
X182348046Y-41267845D01*
X182387893Y-41312059D01*
X182432703Y-41348298D01*
X182482941Y-41377095D01*
X182537131Y-41397624D01*
X182597427Y-41410343D01*
X182664877Y-41414757D01*
X182750820Y-41406816D01*
X182827983Y-41383690D01*
X182875089Y-41359202D01*
X182917858Y-41326818D01*
X182956723Y-41285870D01*
X182988968Y-41239223D01*
X183002049Y-41213110D01*
X183204678Y-41213110D01*
X183204678Y-41396000D01*
X183931838Y-41396000D01*
X183931838Y-41249967D01*
X183749707Y-41067151D01*
X186868248Y-41067151D01*
X186868606Y-41070961D01*
X186875805Y-41147565D01*
X186897028Y-41213664D01*
X186930916Y-41268353D01*
X186978084Y-41313568D01*
X187034154Y-41347309D01*
X187103766Y-41373089D01*
X187189726Y-41389900D01*
X187295355Y-41396000D01*
X187622445Y-41396000D01*
X187622445Y-40495623D01*
X187854867Y-40495623D01*
X188295090Y-40495623D01*
X188295090Y-40762922D01*
X187875383Y-40762922D01*
X187875383Y-40927053D01*
X188295090Y-40927053D01*
X188295090Y-41227179D01*
X187854867Y-41227179D01*
X187854867Y-41396000D01*
X188499961Y-41396000D01*
X188653761Y-41396000D01*
X188876730Y-41396000D01*
X188935715Y-41184974D01*
X189309553Y-41184974D01*
X189370150Y-41396000D01*
X189570184Y-41396000D01*
X189469821Y-41057699D01*
X189636203Y-41057699D01*
X189636929Y-41065173D01*
X189643796Y-41135855D01*
X189665732Y-41204391D01*
X189701018Y-41265630D01*
X189747285Y-41317158D01*
X189803682Y-41358334D01*
X189871482Y-41389478D01*
X189945972Y-41408253D01*
X190029678Y-41414757D01*
X190122237Y-41406625D01*
X190157911Y-41396000D01*
X193303876Y-41396000D01*
X193540767Y-41396000D01*
X193691636Y-41053742D01*
X193717750Y-41010142D01*
X193751060Y-40980030D01*
X193791836Y-40961599D01*
X193840819Y-40955190D01*
X193879361Y-40955190D01*
X193879361Y-41396000D01*
X194081008Y-41396000D01*
X194081008Y-40490933D01*
X194309326Y-40490933D01*
X194545411Y-40490933D01*
X194545411Y-41231868D01*
X194309326Y-41231868D01*
X194309326Y-41396000D01*
X194986441Y-41396000D01*
X194986441Y-41231868D01*
X194750355Y-41231868D01*
X194750355Y-41072573D01*
X195195928Y-41072573D01*
X195204419Y-41156306D01*
X195228314Y-41224907D01*
X195267184Y-41283952D01*
X195318879Y-41331666D01*
X195381372Y-41367832D01*
X195457438Y-41394314D01*
X195539929Y-41409468D01*
X195632854Y-41414757D01*
X195716468Y-41412283D01*
X195795959Y-41405012D01*
X195874127Y-41392050D01*
X195951737Y-41372552D01*
X195951737Y-41175595D01*
X195873042Y-41199335D01*
X195790610Y-41218752D01*
X195708251Y-41231795D01*
X195628750Y-41236558D01*
X195573508Y-41233884D01*
X195531151Y-41226739D01*
X195493412Y-41214487D01*
X195465572Y-41199628D01*
X195443293Y-41180386D01*
X195428715Y-41158669D01*
X195420146Y-41133894D01*
X195417212Y-41106132D01*
X195422543Y-41072573D01*
X196118579Y-41072573D01*
X196127071Y-41156306D01*
X196150966Y-41224907D01*
X196189836Y-41283952D01*
X196241531Y-41331666D01*
X196304023Y-41367832D01*
X196380090Y-41394314D01*
X196462581Y-41409468D01*
X196555505Y-41414757D01*
X196639120Y-41412283D01*
X196718611Y-41405012D01*
X196772958Y-41396000D01*
X196957627Y-41396000D01*
X197180596Y-41396000D01*
X197239581Y-41184974D01*
X197613419Y-41184974D01*
X197674016Y-41396000D01*
X197874050Y-41396000D01*
X197556852Y-40326802D01*
X197886800Y-40326802D01*
X198238510Y-41017252D01*
X198238510Y-41396000D01*
X198443381Y-41396000D01*
X198443381Y-41018864D01*
X198791793Y-40326802D01*
X198568018Y-40326802D01*
X198410628Y-40657263D01*
X198338454Y-40819269D01*
X198266353Y-40652353D01*
X198101563Y-40326802D01*
X197886800Y-40326802D01*
X197556852Y-40326802D01*
X197274825Y-40326802D01*
X197068925Y-41020842D01*
X196957627Y-41396000D01*
X196772958Y-41396000D01*
X196796779Y-41392050D01*
X196874389Y-41372552D01*
X196874389Y-41175595D01*
X196795694Y-41199335D01*
X196713262Y-41218752D01*
X196630903Y-41231795D01*
X196551402Y-41236558D01*
X196496160Y-41233884D01*
X196453803Y-41226739D01*
X196416064Y-41214487D01*
X196388224Y-41199628D01*
X196365945Y-41180386D01*
X196351367Y-41158669D01*
X196342798Y-41133894D01*
X196339863Y-41106132D01*
X196345677Y-41069530D01*
X196362431Y-41040260D01*
X196387817Y-41015772D01*
X196421856Y-40993219D01*
X196505900Y-40956362D01*
X196601814Y-40921118D01*
X196697728Y-40878547D01*
X196742468Y-40851828D01*
X196781772Y-40819635D01*
X196814866Y-40781343D01*
X196841196Y-40735738D01*
X196857706Y-40683861D01*
X196863691Y-40618281D01*
X196857912Y-40556658D01*
X196840757Y-40498773D01*
X196811530Y-40446234D01*
X196768656Y-40400148D01*
X196714247Y-40363215D01*
X196642407Y-40333030D01*
X196560946Y-40314786D01*
X196456294Y-40308044D01*
X196389542Y-40311268D01*
X196320666Y-40319475D01*
X196255087Y-40331418D01*
X196197274Y-40345560D01*
X196197274Y-40528449D01*
X196254647Y-40509691D01*
X196318981Y-40494817D01*
X196385806Y-40484998D01*
X196449699Y-40481554D01*
X196500962Y-40483897D01*
X196539898Y-40490127D01*
X196574653Y-40500730D01*
X196600568Y-40513721D01*
X196621347Y-40530805D01*
X196635006Y-40550724D01*
X196642911Y-40573570D01*
X196645631Y-40599450D01*
X196639984Y-40630724D01*
X196623136Y-40657189D01*
X196597807Y-40679416D01*
X196563272Y-40700567D01*
X196478862Y-40736544D01*
X196382142Y-40772594D01*
X196285422Y-40816411D01*
X196240520Y-40843746D01*
X196200938Y-40876129D01*
X196167459Y-40914325D01*
X196141147Y-40959220D01*
X196124531Y-41009953D01*
X196118579Y-41072573D01*
X195422543Y-41072573D01*
X195423026Y-41069530D01*
X195439780Y-41040260D01*
X195465165Y-41015772D01*
X195499204Y-40993219D01*
X195583248Y-40956362D01*
X195679162Y-40921118D01*
X195775076Y-40878547D01*
X195819816Y-40851828D01*
X195859120Y-40819635D01*
X195892214Y-40781343D01*
X195918545Y-40735738D01*
X195935055Y-40683861D01*
X195941039Y-40618281D01*
X195935260Y-40556658D01*
X195918105Y-40498773D01*
X195888878Y-40446234D01*
X195846004Y-40400148D01*
X195791595Y-40363215D01*
X195719755Y-40333030D01*
X195638294Y-40314786D01*
X195533642Y-40308044D01*
X195466891Y-40311268D01*
X195398014Y-40319475D01*
X195332435Y-40331418D01*
X195274623Y-40345560D01*
X195274623Y-40528449D01*
X195331995Y-40509691D01*
X195396329Y-40494817D01*
X195463154Y-40484998D01*
X195527048Y-40481554D01*
X195578310Y-40483897D01*
X195617247Y-40490127D01*
X195652001Y-40500730D01*
X195677916Y-40513721D01*
X195698695Y-40530805D01*
X195712355Y-40550724D01*
X195720260Y-40573570D01*
X195722979Y-40599450D01*
X195717332Y-40630724D01*
X195700484Y-40657189D01*
X195675155Y-40679416D01*
X195640621Y-40700567D01*
X195556210Y-40736544D01*
X195459490Y-40772594D01*
X195362770Y-40816411D01*
X195317868Y-40843746D01*
X195278286Y-40876129D01*
X195244807Y-40914325D01*
X195218496Y-40959220D01*
X195201879Y-41009953D01*
X195195928Y-41072573D01*
X194750355Y-41072573D01*
X194750355Y-40490933D01*
X194986441Y-40490933D01*
X194986441Y-40326802D01*
X194309326Y-40326802D01*
X194309326Y-40490933D01*
X194081008Y-40490933D01*
X194081008Y-40326802D01*
X193768646Y-40326802D01*
X193682324Y-40330777D01*
X193608032Y-40341969D01*
X193539848Y-40362717D01*
X193485080Y-40392381D01*
X193440154Y-40432805D01*
X193406751Y-40484119D01*
X193386619Y-40544621D01*
X193379274Y-40622531D01*
X193380817Y-40642022D01*
X193383782Y-40679461D01*
X193396493Y-40727385D01*
X193417425Y-40770434D01*
X193444926Y-40806446D01*
X193478823Y-40836261D01*
X193519078Y-40860082D01*
X193563601Y-40877329D01*
X193612941Y-40888732D01*
X193576181Y-40903573D01*
X193540840Y-40933868D01*
X193509889Y-40975584D01*
X193475188Y-41039087D01*
X193303876Y-41396000D01*
X190157911Y-41396000D01*
X190199028Y-41383754D01*
X190263103Y-41347332D01*
X190316615Y-41297008D01*
X190356947Y-41236340D01*
X190387950Y-41158812D01*
X190408353Y-41060582D01*
X190409622Y-41039600D01*
X191624975Y-41039600D01*
X192134881Y-41039600D01*
X192134881Y-40861401D01*
X191624975Y-40861401D01*
X191624975Y-41039600D01*
X190409622Y-41039600D01*
X190415826Y-40937018D01*
X190413107Y-40849870D01*
X190405202Y-40769004D01*
X190390682Y-40691257D01*
X190369518Y-40621725D01*
X190340067Y-40557119D01*
X190302327Y-40499433D01*
X190255244Y-40449171D01*
X190196960Y-40406596D01*
X190129803Y-40373500D01*
X190047777Y-40347685D01*
X189958022Y-40332374D01*
X189847742Y-40326802D01*
X189725596Y-40326802D01*
X189725596Y-40495623D01*
X189868258Y-40495623D01*
X189953004Y-40500573D01*
X190016636Y-40513721D01*
X190072202Y-40536430D01*
X190114162Y-40565598D01*
X190147070Y-40602875D01*
X190170729Y-40647884D01*
X190186051Y-40698425D01*
X190195348Y-40757280D01*
X190196960Y-40776990D01*
X190152404Y-40758637D01*
X190099801Y-40743285D01*
X190044400Y-40733445D01*
X189985422Y-40730096D01*
X189901646Y-40736050D01*
X189832941Y-40752591D01*
X189771944Y-40780542D01*
X189723545Y-40817510D01*
X189685405Y-40864182D01*
X189657965Y-40920459D01*
X189641891Y-40983455D01*
X189636203Y-41057699D01*
X189469821Y-41057699D01*
X189252986Y-40326802D01*
X188970959Y-40326802D01*
X188765059Y-41020842D01*
X188653761Y-41396000D01*
X188499961Y-41396000D01*
X188499961Y-40326802D01*
X187854867Y-40326802D01*
X187854867Y-40495623D01*
X187622445Y-40495623D01*
X187622445Y-40326802D01*
X187276524Y-40326802D01*
X187182525Y-40331658D01*
X187107635Y-40344888D01*
X187048527Y-40364851D01*
X187002337Y-40390476D01*
X186962818Y-40425791D01*
X186934663Y-40468510D01*
X186917125Y-40520118D01*
X186910893Y-40582964D01*
X186912997Y-40617988D01*
X186913268Y-40622500D01*
X186920345Y-40660853D01*
X186932378Y-40697403D01*
X186949434Y-40730609D01*
X186971468Y-40760490D01*
X186998600Y-40786882D01*
X187030350Y-40808459D01*
X187068283Y-40825204D01*
X187029110Y-40834946D01*
X186991639Y-40851069D01*
X186957402Y-40873217D01*
X186927672Y-40901115D01*
X186903292Y-40934232D01*
X186884221Y-40973655D01*
X186872384Y-41017120D01*
X186868248Y-41067151D01*
X183749707Y-41067151D01*
X183722259Y-41039600D01*
X185166413Y-41039600D01*
X185676318Y-41039600D01*
X185676318Y-40861401D01*
X185166413Y-40861401D01*
X185166413Y-41039600D01*
X183722259Y-41039600D01*
X183678534Y-40995710D01*
X183564228Y-40872905D01*
X183524510Y-40821914D01*
X183497770Y-40780801D01*
X183477839Y-40740420D01*
X183467069Y-40705916D01*
X183459668Y-40634695D01*
X183462146Y-40605086D01*
X183469487Y-40577175D01*
X183481674Y-40551535D01*
X183498210Y-40529914D01*
X183519155Y-40512203D01*
X183545764Y-40498114D01*
X183575767Y-40489343D01*
X183611343Y-40486244D01*
X183672435Y-40493335D01*
X183728579Y-40514381D01*
X183780589Y-40546705D01*
X183831015Y-40589412D01*
X183936748Y-40452025D01*
X183862685Y-40393198D01*
X183779797Y-40347392D01*
X183720473Y-40325672D01*
X183657716Y-40312515D01*
X183590826Y-40308044D01*
X183514379Y-40313268D01*
X183448164Y-40328121D01*
X183388086Y-40353356D01*
X183338695Y-40387472D01*
X183298596Y-40431291D01*
X183268206Y-40485731D01*
X183249759Y-40547579D01*
X183243220Y-40621579D01*
X183247627Y-40683980D01*
X183260439Y-40740720D01*
X183281360Y-40794822D01*
X183310484Y-40848358D01*
X183346325Y-40899809D01*
X183391231Y-40953138D01*
X183500628Y-41063634D01*
X183656406Y-41213110D01*
X183204678Y-41213110D01*
X183002049Y-41213110D01*
X183017225Y-41182815D01*
X183041133Y-41115145D01*
X183057302Y-41045204D01*
X183067740Y-40962860D01*
X183071468Y-40866310D01*
X183063817Y-40738443D01*
X183042379Y-40630591D01*
X183019327Y-40562923D01*
X182991243Y-40504781D01*
X182958408Y-40455030D01*
X182918745Y-40410833D01*
X182873826Y-40374564D01*
X182823147Y-40345706D01*
X182768397Y-40325129D01*
X182708048Y-40312433D01*
X182641137Y-40308044D01*
X182555134Y-40316005D01*
X182477958Y-40339185D01*
X182430857Y-40363624D01*
X182388264Y-40395871D01*
X182349731Y-40436565D01*
X182317720Y-40482912D01*
X182289582Y-40539160D01*
X182265687Y-40606851D01*
X182259964Y-40631617D01*
X182249535Y-40676745D01*
X182239089Y-40759334D01*
X182235352Y-40856491D01*
X181706140Y-40856491D01*
X181679207Y-40821914D01*
X181652466Y-40780801D01*
X181632535Y-40740420D01*
X181621765Y-40705916D01*
X181614364Y-40634695D01*
X181616842Y-40605086D01*
X181624183Y-40577175D01*
X181636370Y-40551535D01*
X181652906Y-40529914D01*
X181673851Y-40512203D01*
X181700460Y-40498114D01*
X181730463Y-40489343D01*
X181766039Y-40486244D01*
X181827131Y-40493335D01*
X181883276Y-40514381D01*
X181935286Y-40546705D01*
X181985711Y-40589412D01*
X182091444Y-40452025D01*
X182017381Y-40393198D01*
X181934494Y-40347392D01*
X181875169Y-40325672D01*
X181812413Y-40312515D01*
X181745523Y-40308044D01*
X181669075Y-40313268D01*
X181602861Y-40328121D01*
X181542783Y-40353356D01*
X181493391Y-40387472D01*
X181453293Y-40431291D01*
X181422903Y-40485731D01*
X181404455Y-40547579D01*
X181397916Y-40621579D01*
X181402324Y-40683980D01*
X181415136Y-40740720D01*
X181436056Y-40794822D01*
X181465181Y-40848358D01*
X181501021Y-40899809D01*
X181545928Y-40953138D01*
X181655324Y-41063634D01*
X181811102Y-41213110D01*
X181359375Y-41213110D01*
X180739267Y-41213110D01*
X180739267Y-41180284D01*
X181237669Y-41180284D01*
X181237669Y-41006994D01*
X180819574Y-40326802D01*
X180544141Y-40326802D01*
X180544141Y-41002085D01*
X180381842Y-41002085D01*
X180043001Y-41002085D01*
X179715792Y-40237702D01*
X179520666Y-40237702D01*
X175698338Y-40237702D01*
X175698338Y-40104369D01*
X198925126Y-40104369D01*
X198925126Y-41707532D01*
G37*
D11*
X191723684Y-59432216D02*
X191764650Y-59445005D01*
X191815099Y-59466261D01*
X191839526Y-59477684D01*
X191857155Y-59479749D01*
X191861053Y-59463916D01*
X191861057Y-59463468D01*
X191869312Y-59448351D01*
X191897781Y-59440603D01*
X191952961Y-59438421D01*
X192044869Y-59438421D01*
X192044869Y-60240526D01*
X191861053Y-60240526D01*
X191861053Y-59687483D01*
X191815358Y-59645134D01*
X191801082Y-59633098D01*
X191758558Y-59612534D01*
X191706192Y-59611710D01*
X191634889Y-59629856D01*
X191610852Y-59631005D01*
X191582656Y-59613402D01*
X191545126Y-59571562D01*
X191526921Y-59548419D01*
X191505391Y-59515742D01*
X191502073Y-59494942D01*
X191514128Y-59477395D01*
X191551135Y-59455206D01*
X191608612Y-59437645D01*
X191670972Y-59428938D01*
X191723684Y-59432216D01*
G36*
X191723684Y-59432216D02*
G01*
X191764650Y-59445005D01*
X191815099Y-59466261D01*
X191839526Y-59477684D01*
X191857155Y-59479749D01*
X191861053Y-59463916D01*
X191861057Y-59463468D01*
X191869312Y-59448351D01*
X191897781Y-59440603D01*
X191952961Y-59438421D01*
X192044869Y-59438421D01*
X192044869Y-60240526D01*
X191861053Y-60240526D01*
X191861053Y-59687483D01*
X191815358Y-59645134D01*
X191801082Y-59633098D01*
X191758558Y-59612534D01*
X191706192Y-59611710D01*
X191634889Y-59629856D01*
X191610852Y-59631005D01*
X191582656Y-59613402D01*
X191545126Y-59571562D01*
X191526921Y-59548419D01*
X191505391Y-59515742D01*
X191502073Y-59494942D01*
X191514128Y-59477395D01*
X191551135Y-59455206D01*
X191608612Y-59437645D01*
X191670972Y-59428938D01*
X191723684Y-59432216D01*
G37*
X191967063Y-60702716D02*
X192017550Y-60726344D01*
X192061579Y-60760978D01*
X192061579Y-60726344D01*
X192062676Y-60713194D01*
X192072885Y-60699252D01*
X192100493Y-60693094D01*
X192153487Y-60691710D01*
X192245395Y-60691710D01*
X192245395Y-61510526D01*
X192061579Y-61510526D01*
X192061579Y-61243944D01*
X192061557Y-61228640D01*
X192059989Y-61121060D01*
X192056141Y-61033427D01*
X192050287Y-60970224D01*
X192042701Y-60935929D01*
X192035736Y-60922982D01*
X191992860Y-60882378D01*
X191934458Y-60864404D01*
X191870686Y-60872789D01*
X191855044Y-60878472D01*
X191821721Y-60888517D01*
X191798947Y-60885398D01*
X191776031Y-60864979D01*
X191742283Y-60823127D01*
X191687547Y-60754017D01*
X191726020Y-60722864D01*
X191762592Y-60704112D01*
X191826833Y-60691447D01*
X191899240Y-60691033D01*
X191967063Y-60702716D01*
G36*
X191967063Y-60702716D02*
G01*
X192017550Y-60726344D01*
X192061579Y-60760978D01*
X192061579Y-60726344D01*
X192062676Y-60713194D01*
X192072885Y-60699252D01*
X192100493Y-60693094D01*
X192153487Y-60691710D01*
X192245395Y-60691710D01*
X192245395Y-61510526D01*
X192061579Y-61510526D01*
X192061579Y-61243944D01*
X192061557Y-61228640D01*
X192059989Y-61121060D01*
X192056141Y-61033427D01*
X192050287Y-60970224D01*
X192042701Y-60935929D01*
X192035736Y-60922982D01*
X191992860Y-60882378D01*
X191934458Y-60864404D01*
X191870686Y-60872789D01*
X191855044Y-60878472D01*
X191821721Y-60888517D01*
X191798947Y-60885398D01*
X191776031Y-60864979D01*
X191742283Y-60823127D01*
X191687547Y-60754017D01*
X191726020Y-60722864D01*
X191762592Y-60704112D01*
X191826833Y-60691447D01*
X191899240Y-60691033D01*
X191967063Y-60702716D01*
G37*
X195453816Y-61510526D02*
X195286711Y-61510526D01*
X195286711Y-61252601D01*
X195286526Y-61192605D01*
X195284626Y-61093237D01*
X195279816Y-61019673D01*
X195271052Y-60966827D01*
X195257290Y-60929614D01*
X195237487Y-60902949D01*
X195210600Y-60881746D01*
X195181248Y-60865947D01*
X195146491Y-60861467D01*
X195097058Y-60871429D01*
X195081173Y-60875576D01*
X195041520Y-60881818D01*
X195013167Y-60872875D01*
X194980306Y-60845195D01*
X194974070Y-60839175D01*
X194939594Y-60801937D01*
X194917361Y-60771660D01*
X194914311Y-60764366D01*
X194920354Y-60737432D01*
X194950998Y-60715898D01*
X194999363Y-60700786D01*
X195058566Y-60693114D01*
X195121728Y-60693904D01*
X195181967Y-60704175D01*
X195232402Y-60724948D01*
X195248388Y-60734648D01*
X195275302Y-60748845D01*
X195285264Y-60745594D01*
X195286711Y-60724886D01*
X195287050Y-60717451D01*
X195295112Y-60700982D01*
X195320119Y-60693486D01*
X195370264Y-60691710D01*
X195453816Y-60691710D01*
X195453816Y-61510526D01*
G36*
X195453816Y-61510526D02*
G01*
X195286711Y-61510526D01*
X195286711Y-61252601D01*
X195286526Y-61192605D01*
X195284626Y-61093237D01*
X195279816Y-61019673D01*
X195271052Y-60966827D01*
X195257290Y-60929614D01*
X195237487Y-60902949D01*
X195210600Y-60881746D01*
X195181248Y-60865947D01*
X195146491Y-60861467D01*
X195097058Y-60871429D01*
X195081173Y-60875576D01*
X195041520Y-60881818D01*
X195013167Y-60872875D01*
X194980306Y-60845195D01*
X194974070Y-60839175D01*
X194939594Y-60801937D01*
X194917361Y-60771660D01*
X194914311Y-60764366D01*
X194920354Y-60737432D01*
X194950998Y-60715898D01*
X194999363Y-60700786D01*
X195058566Y-60693114D01*
X195121728Y-60693904D01*
X195181967Y-60704175D01*
X195232402Y-60724948D01*
X195248388Y-60734648D01*
X195275302Y-60748845D01*
X195285264Y-60745594D01*
X195286711Y-60724886D01*
X195287050Y-60717451D01*
X195295112Y-60700982D01*
X195320119Y-60693486D01*
X195370264Y-60691710D01*
X195453816Y-60691710D01*
X195453816Y-61510526D01*
G37*
X192379079Y-59698533D02*
X192380489Y-59815550D01*
X192386007Y-59910058D01*
X192397185Y-59978751D01*
X192415572Y-60025478D01*
X192442717Y-60054089D01*
X192480168Y-60068432D01*
X192529474Y-60072358D01*
X192576552Y-60068854D01*
X192614574Y-60055139D01*
X192642210Y-60027355D01*
X192661009Y-59981651D01*
X192672519Y-59914179D01*
X192678290Y-59821089D01*
X192679869Y-59698533D01*
X192679869Y-59438421D01*
X192846974Y-59438421D01*
X192846974Y-59752004D01*
X192846688Y-59835705D01*
X192844459Y-59943943D01*
X192838869Y-60026489D01*
X192828561Y-60088068D01*
X192812183Y-60133405D01*
X192788379Y-60167226D01*
X192755796Y-60194257D01*
X192713079Y-60219221D01*
X192623377Y-60250825D01*
X192529761Y-60252887D01*
X192441496Y-60223783D01*
X192402986Y-60204917D01*
X192383880Y-60202097D01*
X192379079Y-60215428D01*
X192371109Y-60230396D01*
X192342578Y-60238281D01*
X192287172Y-60240526D01*
X192195264Y-60240526D01*
X192195264Y-59438421D01*
X192379079Y-59438421D01*
X192379079Y-59698533D01*
G36*
X192379079Y-59698533D02*
G01*
X192380489Y-59815550D01*
X192386007Y-59910058D01*
X192397185Y-59978751D01*
X192415572Y-60025478D01*
X192442717Y-60054089D01*
X192480168Y-60068432D01*
X192529474Y-60072358D01*
X192576552Y-60068854D01*
X192614574Y-60055139D01*
X192642210Y-60027355D01*
X192661009Y-59981651D01*
X192672519Y-59914179D01*
X192678290Y-59821089D01*
X192679869Y-59698533D01*
X192679869Y-59438421D01*
X192846974Y-59438421D01*
X192846974Y-59752004D01*
X192846688Y-59835705D01*
X192844459Y-59943943D01*
X192838869Y-60026489D01*
X192828561Y-60088068D01*
X192812183Y-60133405D01*
X192788379Y-60167226D01*
X192755796Y-60194257D01*
X192713079Y-60219221D01*
X192623377Y-60250825D01*
X192529761Y-60252887D01*
X192441496Y-60223783D01*
X192402986Y-60204917D01*
X192383880Y-60202097D01*
X192379079Y-60215428D01*
X192371109Y-60230396D01*
X192342578Y-60238281D01*
X192287172Y-60240526D01*
X192195264Y-60240526D01*
X192195264Y-59438421D01*
X192379079Y-59438421D01*
X192379079Y-59698533D01*
G37*
X195172937Y-59436840D02*
X195249112Y-59460773D01*
X195282699Y-59477040D01*
X195299592Y-59478720D01*
X195303422Y-59463916D01*
X195303425Y-59463468D01*
X195311680Y-59448351D01*
X195340149Y-59440603D01*
X195395329Y-59438421D01*
X195487237Y-59438421D01*
X195487237Y-60240526D01*
X195303422Y-60240526D01*
X195303422Y-59964043D01*
X195303296Y-59870680D01*
X195302436Y-59793988D01*
X195300137Y-59740322D01*
X195295690Y-59704212D01*
X195288390Y-59680191D01*
X195277530Y-59662791D01*
X195262405Y-59646543D01*
X195241801Y-59629261D01*
X195182555Y-59606042D01*
X195120366Y-59612857D01*
X195063398Y-59649581D01*
X195047115Y-59666673D01*
X195035426Y-59683971D01*
X195027586Y-59706990D01*
X195022827Y-59741271D01*
X195020379Y-59792353D01*
X195019473Y-59865777D01*
X195019343Y-59967081D01*
X195019343Y-60240526D01*
X194835527Y-60240526D01*
X194835894Y-59943914D01*
X194835919Y-59930702D01*
X194837513Y-59804535D01*
X194842408Y-59706528D01*
X194851864Y-59631915D01*
X194867139Y-59575931D01*
X194889490Y-59533809D01*
X194920175Y-59500784D01*
X194960454Y-59472090D01*
X195002043Y-59452226D01*
X195085800Y-59434178D01*
X195172937Y-59436840D01*
G36*
X195172937Y-59436840D02*
G01*
X195249112Y-59460773D01*
X195282699Y-59477040D01*
X195299592Y-59478720D01*
X195303422Y-59463916D01*
X195303425Y-59463468D01*
X195311680Y-59448351D01*
X195340149Y-59440603D01*
X195395329Y-59438421D01*
X195487237Y-59438421D01*
X195487237Y-60240526D01*
X195303422Y-60240526D01*
X195303422Y-59964043D01*
X195303296Y-59870680D01*
X195302436Y-59793988D01*
X195300137Y-59740322D01*
X195295690Y-59704212D01*
X195288390Y-59680191D01*
X195277530Y-59662791D01*
X195262405Y-59646543D01*
X195241801Y-59629261D01*
X195182555Y-59606042D01*
X195120366Y-59612857D01*
X195063398Y-59649581D01*
X195047115Y-59666673D01*
X195035426Y-59683971D01*
X195027586Y-59706990D01*
X195022827Y-59741271D01*
X195020379Y-59792353D01*
X195019473Y-59865777D01*
X195019343Y-59967081D01*
X195019343Y-60240526D01*
X194835527Y-60240526D01*
X194835894Y-59943914D01*
X194835919Y-59930702D01*
X194837513Y-59804535D01*
X194842408Y-59706528D01*
X194851864Y-59631915D01*
X194867139Y-59575931D01*
X194889490Y-59533809D01*
X194920175Y-59500784D01*
X194960454Y-59472090D01*
X195002043Y-59452226D01*
X195085800Y-59434178D01*
X195172937Y-59436840D01*
G37*
X191253610Y-59442247D02*
X191344791Y-59477771D01*
X191421907Y-59536413D01*
X191478864Y-59616956D01*
X191482710Y-59625169D01*
X191507130Y-59705267D01*
X191519330Y-59800948D01*
X191519234Y-59900569D01*
X191506764Y-59992488D01*
X191481843Y-60065066D01*
X191451073Y-60115650D01*
X191383344Y-60187310D01*
X191298657Y-60232862D01*
X191226202Y-60251282D01*
X191115875Y-60253293D01*
X191010302Y-60225513D01*
X190916682Y-60169142D01*
X190856088Y-60119196D01*
X190910664Y-60062887D01*
X190945144Y-60029530D01*
X190976332Y-60010958D01*
X191005250Y-60015047D01*
X191042237Y-60040000D01*
X191056985Y-60049768D01*
X191119291Y-60069762D01*
X191190903Y-60069749D01*
X191257950Y-60049143D01*
X191283196Y-60032595D01*
X191320228Y-59983730D01*
X191338792Y-59911958D01*
X191339987Y-59814136D01*
X191339983Y-59814081D01*
X191326171Y-59726562D01*
X191295744Y-59665881D01*
X191245676Y-59628345D01*
X191172941Y-59610261D01*
X191127137Y-59607829D01*
X191087116Y-59617789D01*
X191046070Y-59646642D01*
X190992954Y-59691336D01*
X190925688Y-59637279D01*
X190901113Y-59616570D01*
X190870416Y-59586899D01*
X190858422Y-59569413D01*
X190862669Y-59561533D01*
X190887135Y-59537340D01*
X190926110Y-59506571D01*
X190956605Y-59486549D01*
X191053424Y-59445419D01*
X191154457Y-59431057D01*
X191253610Y-59442247D01*
G36*
X191253610Y-59442247D02*
G01*
X191344791Y-59477771D01*
X191421907Y-59536413D01*
X191478864Y-59616956D01*
X191482710Y-59625169D01*
X191507130Y-59705267D01*
X191519330Y-59800948D01*
X191519234Y-59900569D01*
X191506764Y-59992488D01*
X191481843Y-60065066D01*
X191451073Y-60115650D01*
X191383344Y-60187310D01*
X191298657Y-60232862D01*
X191226202Y-60251282D01*
X191115875Y-60253293D01*
X191010302Y-60225513D01*
X190916682Y-60169142D01*
X190856088Y-60119196D01*
X190910664Y-60062887D01*
X190945144Y-60029530D01*
X190976332Y-60010958D01*
X191005250Y-60015047D01*
X191042237Y-60040000D01*
X191056985Y-60049768D01*
X191119291Y-60069762D01*
X191190903Y-60069749D01*
X191257950Y-60049143D01*
X191283196Y-60032595D01*
X191320228Y-59983730D01*
X191338792Y-59911958D01*
X191339987Y-59814136D01*
X191339983Y-59814081D01*
X191326171Y-59726562D01*
X191295744Y-59665881D01*
X191245676Y-59628345D01*
X191172941Y-59610261D01*
X191127137Y-59607829D01*
X191087116Y-59617789D01*
X191046070Y-59646642D01*
X190992954Y-59691336D01*
X190925688Y-59637279D01*
X190901113Y-59616570D01*
X190870416Y-59586899D01*
X190858422Y-59569413D01*
X190862669Y-59561533D01*
X190887135Y-59537340D01*
X190926110Y-59506571D01*
X190956605Y-59486549D01*
X191053424Y-59445419D01*
X191154457Y-59431057D01*
X191253610Y-59442247D01*
G37*
X193644982Y-59897116D02*
X193640320Y-59950001D01*
X193619714Y-60050965D01*
X193582857Y-60128007D01*
X193526761Y-60186201D01*
X193448434Y-60230617D01*
X193418023Y-60241188D01*
X193339263Y-60254377D01*
X193256384Y-60254018D01*
X193186450Y-60239531D01*
X193185076Y-60239005D01*
X193128718Y-60205852D01*
X193071780Y-60154530D01*
X193024535Y-60095840D01*
X192997255Y-60040584D01*
X192989169Y-60000193D01*
X192982246Y-59924569D01*
X192981085Y-59857161D01*
X193149442Y-59857161D01*
X193159507Y-59938014D01*
X193183151Y-60004451D01*
X193218973Y-60047862D01*
X193232551Y-60055316D01*
X193284327Y-60068864D01*
X193344213Y-60071651D01*
X193394596Y-60062237D01*
X193414260Y-60048736D01*
X193441862Y-60001523D01*
X193459230Y-59927630D01*
X193465264Y-59830663D01*
X193465167Y-59802750D01*
X193463071Y-59746190D01*
X193456100Y-59709294D01*
X193441475Y-59682031D01*
X193416418Y-59654372D01*
X193368736Y-59620849D01*
X193306663Y-59607143D01*
X193246689Y-59620197D01*
X193196891Y-59657951D01*
X193165345Y-59718349D01*
X193154358Y-59770502D01*
X193149442Y-59857161D01*
X192981085Y-59857161D01*
X192980763Y-59838442D01*
X192984478Y-59752719D01*
X192993145Y-59678305D01*
X193006522Y-59626106D01*
X193037679Y-59567006D01*
X193103808Y-59494340D01*
X193188331Y-59448310D01*
X193288734Y-59430090D01*
X193402505Y-59440858D01*
X193421435Y-59445445D01*
X193509595Y-59485000D01*
X193576028Y-59549941D01*
X193620735Y-59640271D01*
X193643718Y-59755994D01*
X193644387Y-59830663D01*
X193644982Y-59897116D01*
G36*
X193644982Y-59897116D02*
G01*
X193640320Y-59950001D01*
X193619714Y-60050965D01*
X193582857Y-60128007D01*
X193526761Y-60186201D01*
X193448434Y-60230617D01*
X193418023Y-60241188D01*
X193339263Y-60254377D01*
X193256384Y-60254018D01*
X193186450Y-60239531D01*
X193185076Y-60239005D01*
X193128718Y-60205852D01*
X193071780Y-60154530D01*
X193024535Y-60095840D01*
X192997255Y-60040584D01*
X192989169Y-60000193D01*
X192982246Y-59924569D01*
X192981085Y-59857161D01*
X193149442Y-59857161D01*
X193159507Y-59938014D01*
X193183151Y-60004451D01*
X193218973Y-60047862D01*
X193232551Y-60055316D01*
X193284327Y-60068864D01*
X193344213Y-60071651D01*
X193394596Y-60062237D01*
X193414260Y-60048736D01*
X193441862Y-60001523D01*
X193459230Y-59927630D01*
X193465264Y-59830663D01*
X193465167Y-59802750D01*
X193463071Y-59746190D01*
X193456100Y-59709294D01*
X193441475Y-59682031D01*
X193416418Y-59654372D01*
X193368736Y-59620849D01*
X193306663Y-59607143D01*
X193246689Y-59620197D01*
X193196891Y-59657951D01*
X193165345Y-59718349D01*
X193154358Y-59770502D01*
X193149442Y-59857161D01*
X192981085Y-59857161D01*
X192980763Y-59838442D01*
X192984478Y-59752719D01*
X192993145Y-59678305D01*
X193006522Y-59626106D01*
X193037679Y-59567006D01*
X193103808Y-59494340D01*
X193188331Y-59448310D01*
X193288734Y-59430090D01*
X193402505Y-59440858D01*
X193421435Y-59445445D01*
X193509595Y-59485000D01*
X193576028Y-59549941D01*
X193620735Y-59640271D01*
X193643718Y-59755994D01*
X193644387Y-59830663D01*
X193644982Y-59897116D01*
G37*
X193778063Y-60954107D02*
X193800655Y-61021510D01*
X193827379Y-61096127D01*
X193849696Y-61152654D01*
X193865759Y-61186486D01*
X193873724Y-61193016D01*
X193875646Y-61187337D01*
X193886049Y-61152507D01*
X193902619Y-61094335D01*
X193923516Y-61019333D01*
X193946900Y-60934013D01*
X194010518Y-60700066D01*
X194107655Y-60694990D01*
X194115854Y-60694584D01*
X194168235Y-60694046D01*
X194193406Y-60699423D01*
X194196612Y-60711701D01*
X194192562Y-60723692D01*
X194179241Y-60764734D01*
X194158384Y-60829736D01*
X194131479Y-60914048D01*
X194100012Y-61013022D01*
X194065469Y-61122006D01*
X193942505Y-61510526D01*
X193788689Y-61510526D01*
X193716213Y-61264046D01*
X193702830Y-61218785D01*
X193678096Y-61136502D01*
X193656962Y-61067940D01*
X193641329Y-61019225D01*
X193633102Y-60996483D01*
X193630758Y-60994787D01*
X193619351Y-61009456D01*
X193603065Y-61048248D01*
X193584606Y-61105102D01*
X193583631Y-61108441D01*
X193558917Y-61192347D01*
X193530641Y-61287351D01*
X193504730Y-61373528D01*
X193462714Y-61512253D01*
X193307750Y-61502171D01*
X193235987Y-61276579D01*
X193204480Y-61177454D01*
X193169187Y-61066281D01*
X193135393Y-60959704D01*
X193107418Y-60871349D01*
X193050613Y-60691710D01*
X193240656Y-60691710D01*
X193286720Y-60862993D01*
X193298965Y-60908251D01*
X193322125Y-60992625D01*
X193343572Y-61069384D01*
X193359876Y-61126184D01*
X193386969Y-61218092D01*
X193473374Y-60959079D01*
X193559780Y-60700066D01*
X193625870Y-60695104D01*
X193691959Y-60690143D01*
X193778063Y-60954107D01*
G36*
X193778063Y-60954107D02*
G01*
X193800655Y-61021510D01*
X193827379Y-61096127D01*
X193849696Y-61152654D01*
X193865759Y-61186486D01*
X193873724Y-61193016D01*
X193875646Y-61187337D01*
X193886049Y-61152507D01*
X193902619Y-61094335D01*
X193923516Y-61019333D01*
X193946900Y-60934013D01*
X194010518Y-60700066D01*
X194107655Y-60694990D01*
X194115854Y-60694584D01*
X194168235Y-60694046D01*
X194193406Y-60699423D01*
X194196612Y-60711701D01*
X194192562Y-60723692D01*
X194179241Y-60764734D01*
X194158384Y-60829736D01*
X194131479Y-60914048D01*
X194100012Y-61013022D01*
X194065469Y-61122006D01*
X193942505Y-61510526D01*
X193788689Y-61510526D01*
X193716213Y-61264046D01*
X193702830Y-61218785D01*
X193678096Y-61136502D01*
X193656962Y-61067940D01*
X193641329Y-61019225D01*
X193633102Y-60996483D01*
X193630758Y-60994787D01*
X193619351Y-61009456D01*
X193603065Y-61048248D01*
X193584606Y-61105102D01*
X193583631Y-61108441D01*
X193558917Y-61192347D01*
X193530641Y-61287351D01*
X193504730Y-61373528D01*
X193462714Y-61512253D01*
X193307750Y-61502171D01*
X193235987Y-61276579D01*
X193204480Y-61177454D01*
X193169187Y-61066281D01*
X193135393Y-60959704D01*
X193107418Y-60871349D01*
X193050613Y-60691710D01*
X193240656Y-60691710D01*
X193286720Y-60862993D01*
X193298965Y-60908251D01*
X193322125Y-60992625D01*
X193343572Y-61069384D01*
X193359876Y-61126184D01*
X193386969Y-61218092D01*
X193473374Y-60959079D01*
X193559780Y-60700066D01*
X193625870Y-60695104D01*
X193691959Y-60690143D01*
X193778063Y-60954107D01*
G37*
X194917986Y-61163659D02*
X194915868Y-61235101D01*
X194911608Y-61284866D01*
X194910878Y-61289427D01*
X194882206Y-61371004D01*
X194829846Y-61440165D01*
X194761158Y-61487021D01*
X194687396Y-61506416D01*
X194596668Y-61504911D01*
X194513205Y-61478906D01*
X194491465Y-61467932D01*
X194463510Y-61456174D01*
X194452872Y-61459832D01*
X194451185Y-61478906D01*
X194450410Y-61488418D01*
X194440407Y-61502485D01*
X194412623Y-61508962D01*
X194359277Y-61510526D01*
X194267369Y-61510526D01*
X194267369Y-61109328D01*
X194451185Y-61109328D01*
X194452502Y-61178832D01*
X194457848Y-61225106D01*
X194469262Y-61256807D01*
X194488783Y-61283373D01*
X194540329Y-61322873D01*
X194600650Y-61336115D01*
X194659144Y-61319740D01*
X194708410Y-61274060D01*
X194721432Y-61240634D01*
X194731051Y-61181441D01*
X194735280Y-61109626D01*
X194733948Y-61035967D01*
X194726884Y-60971239D01*
X194713917Y-60926222D01*
X194709774Y-60918840D01*
X194669840Y-60881738D01*
X194615722Y-60865301D01*
X194557600Y-60869124D01*
X194505653Y-60892802D01*
X194470063Y-60935929D01*
X194468592Y-60939556D01*
X194459767Y-60980026D01*
X194453542Y-61040499D01*
X194451185Y-61109328D01*
X194267369Y-61109328D01*
X194267369Y-60374210D01*
X194451185Y-60374210D01*
X194451185Y-60763732D01*
X194485232Y-60732920D01*
X194518014Y-60713769D01*
X194580059Y-60697760D01*
X194652589Y-60692602D01*
X194723419Y-60698935D01*
X194780368Y-60717400D01*
X194821128Y-60743666D01*
X194863113Y-60788412D01*
X194891370Y-60848588D01*
X194908355Y-60929988D01*
X194916528Y-61038405D01*
X194917729Y-61082230D01*
X194917816Y-61109626D01*
X194917986Y-61163659D01*
G36*
X194917986Y-61163659D02*
G01*
X194915868Y-61235101D01*
X194911608Y-61284866D01*
X194910878Y-61289427D01*
X194882206Y-61371004D01*
X194829846Y-61440165D01*
X194761158Y-61487021D01*
X194687396Y-61506416D01*
X194596668Y-61504911D01*
X194513205Y-61478906D01*
X194491465Y-61467932D01*
X194463510Y-61456174D01*
X194452872Y-61459832D01*
X194451185Y-61478906D01*
X194450410Y-61488418D01*
X194440407Y-61502485D01*
X194412623Y-61508962D01*
X194359277Y-61510526D01*
X194267369Y-61510526D01*
X194267369Y-61109328D01*
X194451185Y-61109328D01*
X194452502Y-61178832D01*
X194457848Y-61225106D01*
X194469262Y-61256807D01*
X194488783Y-61283373D01*
X194540329Y-61322873D01*
X194600650Y-61336115D01*
X194659144Y-61319740D01*
X194708410Y-61274060D01*
X194721432Y-61240634D01*
X194731051Y-61181441D01*
X194735280Y-61109626D01*
X194733948Y-61035967D01*
X194726884Y-60971239D01*
X194713917Y-60926222D01*
X194709774Y-60918840D01*
X194669840Y-60881738D01*
X194615722Y-60865301D01*
X194557600Y-60869124D01*
X194505653Y-60892802D01*
X194470063Y-60935929D01*
X194468592Y-60939556D01*
X194459767Y-60980026D01*
X194453542Y-61040499D01*
X194451185Y-61109328D01*
X194267369Y-61109328D01*
X194267369Y-60374210D01*
X194451185Y-60374210D01*
X194451185Y-60763732D01*
X194485232Y-60732920D01*
X194518014Y-60713769D01*
X194580059Y-60697760D01*
X194652589Y-60692602D01*
X194723419Y-60698935D01*
X194780368Y-60717400D01*
X194821128Y-60743666D01*
X194863113Y-60788412D01*
X194891370Y-60848588D01*
X194908355Y-60929988D01*
X194916528Y-61038405D01*
X194917729Y-61082230D01*
X194917816Y-61109626D01*
X194917986Y-61163659D01*
G37*
X197807431Y-59885368D02*
X197805273Y-59937701D01*
X197800376Y-60001519D01*
X197792033Y-60046752D01*
X197778256Y-60082593D01*
X197757057Y-60118236D01*
X197756154Y-60119587D01*
X197703953Y-60177335D01*
X197640083Y-60221380D01*
X197565813Y-60247517D01*
X197468110Y-60256003D01*
X197372350Y-60239316D01*
X197286755Y-60199106D01*
X197219545Y-60137022D01*
X197200250Y-60107688D01*
X197164216Y-60016496D01*
X197146344Y-59903984D01*
X197146650Y-59875524D01*
X197326249Y-59875524D01*
X197326588Y-59928750D01*
X197332231Y-59964284D01*
X197345089Y-59991589D01*
X197367072Y-60020124D01*
X197397579Y-60048440D01*
X197458592Y-60073710D01*
X197524106Y-60069016D01*
X197586719Y-60033896D01*
X197604381Y-60017122D01*
X197623239Y-59988407D01*
X197633696Y-59948046D01*
X197639624Y-59885154D01*
X197641257Y-59837910D01*
X197632311Y-59741428D01*
X197604860Y-59672352D01*
X197558781Y-59630301D01*
X197504766Y-59610165D01*
X197440349Y-59611860D01*
X197380637Y-59645855D01*
X197366361Y-59658797D01*
X197348347Y-59681440D01*
X197337659Y-59711064D01*
X197331729Y-59756482D01*
X197327988Y-59826506D01*
X197326249Y-59875524D01*
X197146650Y-59875524D01*
X197147723Y-59775624D01*
X197149482Y-59757418D01*
X197174024Y-59640812D01*
X197219430Y-59550290D01*
X197285795Y-59485754D01*
X197373216Y-59447104D01*
X197481791Y-59434243D01*
X197522811Y-59435450D01*
X197606934Y-59450220D01*
X197675722Y-59485474D01*
X197739854Y-59545828D01*
X197750110Y-59557942D01*
X197777774Y-59598737D01*
X197795955Y-59644930D01*
X197806036Y-59703468D01*
X197809401Y-59781299D01*
X197808329Y-59837910D01*
X197807431Y-59885368D01*
G36*
X197807431Y-59885368D02*
G01*
X197805273Y-59937701D01*
X197800376Y-60001519D01*
X197792033Y-60046752D01*
X197778256Y-60082593D01*
X197757057Y-60118236D01*
X197756154Y-60119587D01*
X197703953Y-60177335D01*
X197640083Y-60221380D01*
X197565813Y-60247517D01*
X197468110Y-60256003D01*
X197372350Y-60239316D01*
X197286755Y-60199106D01*
X197219545Y-60137022D01*
X197200250Y-60107688D01*
X197164216Y-60016496D01*
X197146344Y-59903984D01*
X197146650Y-59875524D01*
X197326249Y-59875524D01*
X197326588Y-59928750D01*
X197332231Y-59964284D01*
X197345089Y-59991589D01*
X197367072Y-60020124D01*
X197397579Y-60048440D01*
X197458592Y-60073710D01*
X197524106Y-60069016D01*
X197586719Y-60033896D01*
X197604381Y-60017122D01*
X197623239Y-59988407D01*
X197633696Y-59948046D01*
X197639624Y-59885154D01*
X197641257Y-59837910D01*
X197632311Y-59741428D01*
X197604860Y-59672352D01*
X197558781Y-59630301D01*
X197504766Y-59610165D01*
X197440349Y-59611860D01*
X197380637Y-59645855D01*
X197366361Y-59658797D01*
X197348347Y-59681440D01*
X197337659Y-59711064D01*
X197331729Y-59756482D01*
X197327988Y-59826506D01*
X197326249Y-59875524D01*
X197146650Y-59875524D01*
X197147723Y-59775624D01*
X197149482Y-59757418D01*
X197174024Y-59640812D01*
X197219430Y-59550290D01*
X197285795Y-59485754D01*
X197373216Y-59447104D01*
X197481791Y-59434243D01*
X197522811Y-59435450D01*
X197606934Y-59450220D01*
X197675722Y-59485474D01*
X197739854Y-59545828D01*
X197750110Y-59557942D01*
X197777774Y-59598737D01*
X197795955Y-59644930D01*
X197806036Y-59703468D01*
X197809401Y-59781299D01*
X197808329Y-59837910D01*
X197807431Y-59885368D01*
G37*
X190836367Y-59785627D02*
X190834216Y-59913529D01*
X190833936Y-59916044D01*
X190809909Y-60033405D01*
X190766499Y-60124652D01*
X190702353Y-60191791D01*
X190616119Y-60236824D01*
X190600289Y-60241974D01*
X190502173Y-60257151D01*
X190400698Y-60248688D01*
X190306359Y-60218445D01*
X190229649Y-60168285D01*
X190172190Y-60115197D01*
X190233266Y-60066904D01*
X190294341Y-60018611D01*
X190367947Y-60054371D01*
X190453115Y-60083347D01*
X190528301Y-60084215D01*
X190589816Y-60057592D01*
X190634083Y-60004155D01*
X190649952Y-59972136D01*
X190658811Y-59944771D01*
X190653685Y-59926285D01*
X190630687Y-59914938D01*
X190585931Y-59908987D01*
X190515529Y-59906693D01*
X190415593Y-59906316D01*
X190173290Y-59906316D01*
X190173290Y-59790430D01*
X190175100Y-59739555D01*
X190345706Y-59739555D01*
X190353900Y-59748912D01*
X190378160Y-59753783D01*
X190424272Y-59755630D01*
X190498019Y-59755921D01*
X190537566Y-59755457D01*
X190599971Y-59752388D01*
X190642303Y-59747013D01*
X190657895Y-59739997D01*
X190653906Y-59714108D01*
X190625788Y-59664570D01*
X190578932Y-59623875D01*
X190523074Y-59599295D01*
X190467951Y-59598105D01*
X190426458Y-59617815D01*
X190379440Y-59662668D01*
X190349545Y-59718322D01*
X190347794Y-59724245D01*
X190345706Y-59739555D01*
X190175100Y-59739555D01*
X190175471Y-59729138D01*
X190181876Y-59668496D01*
X190191025Y-59627502D01*
X190197695Y-59611852D01*
X190246243Y-59542149D01*
X190316391Y-59484013D01*
X190398426Y-59445949D01*
X190441216Y-59435554D01*
X190543170Y-59430822D01*
X190634015Y-59454893D01*
X190711253Y-59505088D01*
X190772389Y-59578727D01*
X190814926Y-59673133D01*
X190827671Y-59739997D01*
X190836367Y-59785627D01*
G36*
X190836367Y-59785627D02*
G01*
X190834216Y-59913529D01*
X190833936Y-59916044D01*
X190809909Y-60033405D01*
X190766499Y-60124652D01*
X190702353Y-60191791D01*
X190616119Y-60236824D01*
X190600289Y-60241974D01*
X190502173Y-60257151D01*
X190400698Y-60248688D01*
X190306359Y-60218445D01*
X190229649Y-60168285D01*
X190172190Y-60115197D01*
X190233266Y-60066904D01*
X190294341Y-60018611D01*
X190367947Y-60054371D01*
X190453115Y-60083347D01*
X190528301Y-60084215D01*
X190589816Y-60057592D01*
X190634083Y-60004155D01*
X190649952Y-59972136D01*
X190658811Y-59944771D01*
X190653685Y-59926285D01*
X190630687Y-59914938D01*
X190585931Y-59908987D01*
X190515529Y-59906693D01*
X190415593Y-59906316D01*
X190173290Y-59906316D01*
X190173290Y-59790430D01*
X190175100Y-59739555D01*
X190345706Y-59739555D01*
X190353900Y-59748912D01*
X190378160Y-59753783D01*
X190424272Y-59755630D01*
X190498019Y-59755921D01*
X190537566Y-59755457D01*
X190599971Y-59752388D01*
X190642303Y-59747013D01*
X190657895Y-59739997D01*
X190653906Y-59714108D01*
X190625788Y-59664570D01*
X190578932Y-59623875D01*
X190523074Y-59599295D01*
X190467951Y-59598105D01*
X190426458Y-59617815D01*
X190379440Y-59662668D01*
X190349545Y-59718322D01*
X190347794Y-59724245D01*
X190345706Y-59739555D01*
X190175100Y-59739555D01*
X190175471Y-59729138D01*
X190181876Y-59668496D01*
X190191025Y-59627502D01*
X190197695Y-59611852D01*
X190246243Y-59542149D01*
X190316391Y-59484013D01*
X190398426Y-59445949D01*
X190441216Y-59435554D01*
X190543170Y-59430822D01*
X190634015Y-59454893D01*
X190711253Y-59505088D01*
X190772389Y-59578727D01*
X190814926Y-59673133D01*
X190827671Y-59739997D01*
X190836367Y-59785627D01*
G37*
X194131399Y-59437879D02*
X194227909Y-59462068D01*
X194298411Y-59506902D01*
X194343307Y-59572681D01*
X194362999Y-59659707D01*
X194359012Y-59743023D01*
X194330235Y-59813297D01*
X194275048Y-59865254D01*
X194192348Y-59899910D01*
X194081026Y-59918279D01*
X194008692Y-59927906D01*
X193942670Y-59948737D01*
X193908583Y-59978904D01*
X193906526Y-60018352D01*
X193920243Y-60042949D01*
X193962726Y-60072101D01*
X194023117Y-60085889D01*
X194093889Y-60084004D01*
X194167512Y-60066133D01*
X194236457Y-60031967D01*
X194305197Y-59986477D01*
X194426119Y-60108835D01*
X194375987Y-60149755D01*
X194356494Y-60163973D01*
X194301650Y-60196275D01*
X194242303Y-60224109D01*
X194195335Y-60240083D01*
X194126562Y-60251654D01*
X194041777Y-60251807D01*
X193937806Y-60239067D01*
X193844145Y-60206777D01*
X193777849Y-60155486D01*
X193738760Y-60085065D01*
X193726722Y-59995387D01*
X193735436Y-59916497D01*
X193763408Y-59851907D01*
X193813768Y-59805651D01*
X193889703Y-59774888D01*
X193994400Y-59756778D01*
X194006425Y-59755467D01*
X194071611Y-59747106D01*
X194124490Y-59738357D01*
X194154573Y-59730913D01*
X194164612Y-59724920D01*
X194181584Y-59694013D01*
X194178828Y-59654450D01*
X194156146Y-59620105D01*
X194144236Y-59612615D01*
X194094606Y-59600613D01*
X194030500Y-59601420D01*
X193963653Y-59614192D01*
X193905799Y-59638086D01*
X193845008Y-59673954D01*
X193797854Y-59618852D01*
X193786412Y-59604853D01*
X193760634Y-59567353D01*
X193750022Y-59541937D01*
X193761166Y-59526353D01*
X193795644Y-59502026D01*
X193845428Y-59475848D01*
X193852443Y-59472648D01*
X193918092Y-59447548D01*
X193981372Y-59435547D01*
X194059900Y-59433137D01*
X194131399Y-59437879D01*
G36*
X194131399Y-59437879D02*
G01*
X194227909Y-59462068D01*
X194298411Y-59506902D01*
X194343307Y-59572681D01*
X194362999Y-59659707D01*
X194359012Y-59743023D01*
X194330235Y-59813297D01*
X194275048Y-59865254D01*
X194192348Y-59899910D01*
X194081026Y-59918279D01*
X194008692Y-59927906D01*
X193942670Y-59948737D01*
X193908583Y-59978904D01*
X193906526Y-60018352D01*
X193920243Y-60042949D01*
X193962726Y-60072101D01*
X194023117Y-60085889D01*
X194093889Y-60084004D01*
X194167512Y-60066133D01*
X194236457Y-60031967D01*
X194305197Y-59986477D01*
X194426119Y-60108835D01*
X194375987Y-60149755D01*
X194356494Y-60163973D01*
X194301650Y-60196275D01*
X194242303Y-60224109D01*
X194195335Y-60240083D01*
X194126562Y-60251654D01*
X194041777Y-60251807D01*
X193937806Y-60239067D01*
X193844145Y-60206777D01*
X193777849Y-60155486D01*
X193738760Y-60085065D01*
X193726722Y-59995387D01*
X193735436Y-59916497D01*
X193763408Y-59851907D01*
X193813768Y-59805651D01*
X193889703Y-59774888D01*
X193994400Y-59756778D01*
X194006425Y-59755467D01*
X194071611Y-59747106D01*
X194124490Y-59738357D01*
X194154573Y-59730913D01*
X194164612Y-59724920D01*
X194181584Y-59694013D01*
X194178828Y-59654450D01*
X194156146Y-59620105D01*
X194144236Y-59612615D01*
X194094606Y-59600613D01*
X194030500Y-59601420D01*
X193963653Y-59614192D01*
X193905799Y-59638086D01*
X193845008Y-59673954D01*
X193797854Y-59618852D01*
X193786412Y-59604853D01*
X193760634Y-59567353D01*
X193750022Y-59541937D01*
X193761166Y-59526353D01*
X193795644Y-59502026D01*
X193845428Y-59475848D01*
X193852443Y-59472648D01*
X193918092Y-59447548D01*
X193981372Y-59435547D01*
X194059900Y-59433137D01*
X194131399Y-59437879D01*
G37*
X191693418Y-61101118D02*
X191691245Y-61163498D01*
X191671455Y-61282794D01*
X191630734Y-61376598D01*
X191568724Y-61445581D01*
X191485066Y-61490412D01*
X191458037Y-61498332D01*
X191361524Y-61509395D01*
X191259615Y-61500059D01*
X191167566Y-61471246D01*
X191135138Y-61454892D01*
X191088643Y-61426878D01*
X191060465Y-61403827D01*
X191056305Y-61398560D01*
X191048522Y-61379299D01*
X191059736Y-61358361D01*
X191093886Y-61326650D01*
X191110367Y-61312845D01*
X191142832Y-61287583D01*
X191159855Y-61277258D01*
X191164732Y-61278321D01*
X191192681Y-61289819D01*
X191234408Y-61310000D01*
X191248013Y-61316638D01*
X191328271Y-61341289D01*
X191397997Y-61334935D01*
X191459140Y-61297467D01*
X191466255Y-61290544D01*
X191500268Y-61247178D01*
X191519702Y-61205559D01*
X191530466Y-61159605D01*
X191025527Y-61159605D01*
X191025620Y-61071875D01*
X191025673Y-61063150D01*
X191032490Y-60992763D01*
X191209343Y-60992763D01*
X191211431Y-61007361D01*
X191222152Y-61017422D01*
X191247707Y-61023006D01*
X191294289Y-61025408D01*
X191368093Y-61025921D01*
X191409124Y-61025389D01*
X191469688Y-61022280D01*
X191511345Y-61017012D01*
X191526843Y-61010298D01*
X191513626Y-60955033D01*
X191474930Y-60903452D01*
X191419121Y-60867666D01*
X191354651Y-60855288D01*
X191307185Y-60869242D01*
X191259738Y-60903353D01*
X191223669Y-60947796D01*
X191209343Y-60992763D01*
X191032490Y-60992763D01*
X191036127Y-60955216D01*
X191066555Y-60867413D01*
X191119649Y-60791723D01*
X191152038Y-60759705D01*
X191218932Y-60716845D01*
X191298807Y-60696078D01*
X191399700Y-60694618D01*
X191448435Y-60700343D01*
X191538396Y-60730071D01*
X191607271Y-60784178D01*
X191655664Y-60863498D01*
X191684179Y-60968866D01*
X191687074Y-61010298D01*
X191693418Y-61101118D01*
G36*
X191693418Y-61101118D02*
G01*
X191691245Y-61163498D01*
X191671455Y-61282794D01*
X191630734Y-61376598D01*
X191568724Y-61445581D01*
X191485066Y-61490412D01*
X191458037Y-61498332D01*
X191361524Y-61509395D01*
X191259615Y-61500059D01*
X191167566Y-61471246D01*
X191135138Y-61454892D01*
X191088643Y-61426878D01*
X191060465Y-61403827D01*
X191056305Y-61398560D01*
X191048522Y-61379299D01*
X191059736Y-61358361D01*
X191093886Y-61326650D01*
X191110367Y-61312845D01*
X191142832Y-61287583D01*
X191159855Y-61277258D01*
X191164732Y-61278321D01*
X191192681Y-61289819D01*
X191234408Y-61310000D01*
X191248013Y-61316638D01*
X191328271Y-61341289D01*
X191397997Y-61334935D01*
X191459140Y-61297467D01*
X191466255Y-61290544D01*
X191500268Y-61247178D01*
X191519702Y-61205559D01*
X191530466Y-61159605D01*
X191025527Y-61159605D01*
X191025620Y-61071875D01*
X191025673Y-61063150D01*
X191032490Y-60992763D01*
X191209343Y-60992763D01*
X191211431Y-61007361D01*
X191222152Y-61017422D01*
X191247707Y-61023006D01*
X191294289Y-61025408D01*
X191368093Y-61025921D01*
X191409124Y-61025389D01*
X191469688Y-61022280D01*
X191511345Y-61017012D01*
X191526843Y-61010298D01*
X191513626Y-60955033D01*
X191474930Y-60903452D01*
X191419121Y-60867666D01*
X191354651Y-60855288D01*
X191307185Y-60869242D01*
X191259738Y-60903353D01*
X191223669Y-60947796D01*
X191209343Y-60992763D01*
X191032490Y-60992763D01*
X191036127Y-60955216D01*
X191066555Y-60867413D01*
X191119649Y-60791723D01*
X191152038Y-60759705D01*
X191218932Y-60716845D01*
X191298807Y-60696078D01*
X191399700Y-60694618D01*
X191448435Y-60700343D01*
X191538396Y-60730071D01*
X191607271Y-60784178D01*
X191655664Y-60863498D01*
X191684179Y-60968866D01*
X191687074Y-61010298D01*
X191693418Y-61101118D01*
G37*
X196268543Y-59739091D02*
X196274389Y-59856138D01*
X196272928Y-59907216D01*
X196256454Y-60018843D01*
X196220151Y-60106856D01*
X196162120Y-60174884D01*
X196080461Y-60226551D01*
X196001246Y-60250670D01*
X195901871Y-60255285D01*
X195801607Y-60237537D01*
X195712172Y-60198327D01*
X195679030Y-60176515D01*
X195642515Y-60148556D01*
X195625853Y-60130158D01*
X195626798Y-60122567D01*
X195645448Y-60096703D01*
X195680498Y-60065367D01*
X195741241Y-60019036D01*
X195812418Y-60054584D01*
X195831665Y-60063383D01*
X195888323Y-60082506D01*
X195935811Y-60090131D01*
X195970828Y-60083848D01*
X196025778Y-60053591D01*
X196071967Y-60006620D01*
X196098387Y-59952270D01*
X196109150Y-59906316D01*
X195604211Y-59906316D01*
X195604304Y-59818585D01*
X195605069Y-59790781D01*
X195610649Y-59731119D01*
X195788027Y-59731119D01*
X195788352Y-59734537D01*
X195797540Y-59745181D01*
X195823504Y-59751720D01*
X195871779Y-59755014D01*
X195947903Y-59755921D01*
X195972923Y-59755910D01*
X196037902Y-59755310D01*
X196076964Y-59752715D01*
X196095903Y-59746662D01*
X196100511Y-59735686D01*
X196096581Y-59718322D01*
X196095981Y-59716353D01*
X196062127Y-59655930D01*
X196008757Y-59614329D01*
X195945115Y-59598842D01*
X195921591Y-59600080D01*
X195877928Y-59614896D01*
X195836041Y-59652579D01*
X195824758Y-59665903D01*
X195798513Y-59703956D01*
X195788027Y-59731119D01*
X195610649Y-59731119D01*
X195611366Y-59723449D01*
X195621926Y-59667734D01*
X195633501Y-59636543D01*
X195674195Y-59568700D01*
X195728695Y-59507086D01*
X195786330Y-59464866D01*
X195802982Y-59457027D01*
X195899945Y-59431021D01*
X195998960Y-59433762D01*
X196092052Y-59464092D01*
X196171244Y-59520848D01*
X196214078Y-59573190D01*
X196249101Y-59646928D01*
X196267825Y-59735686D01*
X196268543Y-59739091D01*
G36*
X196268543Y-59739091D02*
G01*
X196274389Y-59856138D01*
X196272928Y-59907216D01*
X196256454Y-60018843D01*
X196220151Y-60106856D01*
X196162120Y-60174884D01*
X196080461Y-60226551D01*
X196001246Y-60250670D01*
X195901871Y-60255285D01*
X195801607Y-60237537D01*
X195712172Y-60198327D01*
X195679030Y-60176515D01*
X195642515Y-60148556D01*
X195625853Y-60130158D01*
X195626798Y-60122567D01*
X195645448Y-60096703D01*
X195680498Y-60065367D01*
X195741241Y-60019036D01*
X195812418Y-60054584D01*
X195831665Y-60063383D01*
X195888323Y-60082506D01*
X195935811Y-60090131D01*
X195970828Y-60083848D01*
X196025778Y-60053591D01*
X196071967Y-60006620D01*
X196098387Y-59952270D01*
X196109150Y-59906316D01*
X195604211Y-59906316D01*
X195604304Y-59818585D01*
X195605069Y-59790781D01*
X195610649Y-59731119D01*
X195788027Y-59731119D01*
X195788352Y-59734537D01*
X195797540Y-59745181D01*
X195823504Y-59751720D01*
X195871779Y-59755014D01*
X195947903Y-59755921D01*
X195972923Y-59755910D01*
X196037902Y-59755310D01*
X196076964Y-59752715D01*
X196095903Y-59746662D01*
X196100511Y-59735686D01*
X196096581Y-59718322D01*
X196095981Y-59716353D01*
X196062127Y-59655930D01*
X196008757Y-59614329D01*
X195945115Y-59598842D01*
X195921591Y-59600080D01*
X195877928Y-59614896D01*
X195836041Y-59652579D01*
X195824758Y-59665903D01*
X195798513Y-59703956D01*
X195788027Y-59731119D01*
X195610649Y-59731119D01*
X195611366Y-59723449D01*
X195621926Y-59667734D01*
X195633501Y-59636543D01*
X195674195Y-59568700D01*
X195728695Y-59507086D01*
X195786330Y-59464866D01*
X195802982Y-59457027D01*
X195899945Y-59431021D01*
X195998960Y-59433762D01*
X196092052Y-59464092D01*
X196171244Y-59520848D01*
X196214078Y-59573190D01*
X196249101Y-59646928D01*
X196267825Y-59735686D01*
X196268543Y-59739091D01*
G37*
X193055668Y-61290600D02*
X193035509Y-61366464D01*
X192991698Y-61431365D01*
X192925241Y-61478051D01*
X192918719Y-61480889D01*
X192846005Y-61501330D01*
X192764071Y-61509299D01*
X192686172Y-61504427D01*
X192625560Y-61486348D01*
X192601348Y-61474554D01*
X192583580Y-61471741D01*
X192579606Y-61486451D01*
X192572078Y-61500055D01*
X192542953Y-61508156D01*
X192486420Y-61510526D01*
X192393235Y-61510526D01*
X192398690Y-61188849D01*
X192399273Y-61159605D01*
X192579606Y-61159605D01*
X192579606Y-61218092D01*
X192585900Y-61261806D01*
X192613027Y-61310000D01*
X192623040Y-61318858D01*
X192664081Y-61337494D01*
X192725823Y-61342290D01*
X192762871Y-61340417D01*
X192832195Y-61326309D01*
X192875163Y-61300024D01*
X192889655Y-61263344D01*
X192873551Y-61218052D01*
X192864154Y-61206200D01*
X192822187Y-61179613D01*
X192755766Y-61164432D01*
X192661070Y-61159605D01*
X192579606Y-61159605D01*
X192399273Y-61159605D01*
X192400172Y-61114462D01*
X192404076Y-61003099D01*
X192410657Y-60917946D01*
X192421214Y-60854360D01*
X192437048Y-60807699D01*
X192459459Y-60773321D01*
X192489747Y-60746583D01*
X192529213Y-60722844D01*
X192549573Y-60713780D01*
X192620008Y-60696673D01*
X192704959Y-60689600D01*
X192792788Y-60692432D01*
X192871857Y-60705041D01*
X192930527Y-60727297D01*
X192950935Y-60740219D01*
X192997921Y-60778519D01*
X193013824Y-60810589D01*
X193009962Y-60816786D01*
X192985894Y-60838432D01*
X192947039Y-60867308D01*
X192927174Y-60880824D01*
X192893346Y-60899974D01*
X192871363Y-60901803D01*
X192850953Y-60888585D01*
X192800086Y-60861816D01*
X192731640Y-60850808D01*
X192661694Y-60859236D01*
X192660370Y-60859618D01*
X192611036Y-60881052D01*
X192586616Y-60914603D01*
X192579862Y-60970091D01*
X192579606Y-61022879D01*
X192754010Y-61028577D01*
X192781796Y-61029515D01*
X192851848Y-61032775D01*
X192898809Y-61037897D01*
X192930552Y-61046798D01*
X192954948Y-61061397D01*
X192979869Y-61083612D01*
X193021015Y-61134995D01*
X193051171Y-61211026D01*
X193054128Y-61263344D01*
X193055668Y-61290600D01*
G36*
X193055668Y-61290600D02*
G01*
X193035509Y-61366464D01*
X192991698Y-61431365D01*
X192925241Y-61478051D01*
X192918719Y-61480889D01*
X192846005Y-61501330D01*
X192764071Y-61509299D01*
X192686172Y-61504427D01*
X192625560Y-61486348D01*
X192601348Y-61474554D01*
X192583580Y-61471741D01*
X192579606Y-61486451D01*
X192572078Y-61500055D01*
X192542953Y-61508156D01*
X192486420Y-61510526D01*
X192393235Y-61510526D01*
X192398690Y-61188849D01*
X192399273Y-61159605D01*
X192579606Y-61159605D01*
X192579606Y-61218092D01*
X192585900Y-61261806D01*
X192613027Y-61310000D01*
X192623040Y-61318858D01*
X192664081Y-61337494D01*
X192725823Y-61342290D01*
X192762871Y-61340417D01*
X192832195Y-61326309D01*
X192875163Y-61300024D01*
X192889655Y-61263344D01*
X192873551Y-61218052D01*
X192864154Y-61206200D01*
X192822187Y-61179613D01*
X192755766Y-61164432D01*
X192661070Y-61159605D01*
X192579606Y-61159605D01*
X192399273Y-61159605D01*
X192400172Y-61114462D01*
X192404076Y-61003099D01*
X192410657Y-60917946D01*
X192421214Y-60854360D01*
X192437048Y-60807699D01*
X192459459Y-60773321D01*
X192489747Y-60746583D01*
X192529213Y-60722844D01*
X192549573Y-60713780D01*
X192620008Y-60696673D01*
X192704959Y-60689600D01*
X192792788Y-60692432D01*
X192871857Y-60705041D01*
X192930527Y-60727297D01*
X192950935Y-60740219D01*
X192997921Y-60778519D01*
X193013824Y-60810589D01*
X193009962Y-60816786D01*
X192985894Y-60838432D01*
X192947039Y-60867308D01*
X192927174Y-60880824D01*
X192893346Y-60899974D01*
X192871363Y-60901803D01*
X192850953Y-60888585D01*
X192800086Y-60861816D01*
X192731640Y-60850808D01*
X192661694Y-60859236D01*
X192660370Y-60859618D01*
X192611036Y-60881052D01*
X192586616Y-60914603D01*
X192579862Y-60970091D01*
X192579606Y-61022879D01*
X192754010Y-61028577D01*
X192781796Y-61029515D01*
X192851848Y-61032775D01*
X192898809Y-61037897D01*
X192930552Y-61046798D01*
X192954948Y-61061397D01*
X192979869Y-61083612D01*
X193021015Y-61134995D01*
X193051171Y-61211026D01*
X193054128Y-61263344D01*
X193055668Y-61290600D01*
G37*
X196268912Y-61287796D02*
X196268722Y-61290000D01*
X196248360Y-61375846D01*
X196203067Y-61440412D01*
X196130593Y-61486937D01*
X196093140Y-61498256D01*
X196028990Y-61507078D01*
X195958840Y-61509185D01*
X195895548Y-61504330D01*
X195851976Y-61492268D01*
X195825512Y-61482606D01*
X195799601Y-61492268D01*
X195790123Y-61497866D01*
X195752294Y-61506943D01*
X195701132Y-61510526D01*
X195620922Y-61510526D01*
X195620922Y-61187142D01*
X195620928Y-61159605D01*
X195804737Y-61159605D01*
X195804737Y-61223857D01*
X195810915Y-61272753D01*
X195835297Y-61315765D01*
X195849249Y-61325074D01*
X195899051Y-61339583D01*
X195961225Y-61343205D01*
X196022196Y-61335845D01*
X196068388Y-61317408D01*
X196091399Y-61293030D01*
X196105527Y-61249713D01*
X196092998Y-61215376D01*
X196051582Y-61185520D01*
X195985005Y-61166366D01*
X195897182Y-61159605D01*
X195804737Y-61159605D01*
X195620928Y-61159605D01*
X195620928Y-61159176D01*
X195621232Y-61053767D01*
X195622376Y-60975401D01*
X195624877Y-60918871D01*
X195629256Y-60878970D01*
X195636032Y-60850492D01*
X195645725Y-60828230D01*
X195658853Y-60806978D01*
X195701084Y-60757180D01*
X195760930Y-60719160D01*
X195839543Y-60698184D01*
X195943136Y-60691736D01*
X195946503Y-60691743D01*
X196018513Y-60694995D01*
X196082966Y-60703103D01*
X196126952Y-60714470D01*
X196139010Y-60720166D01*
X196177391Y-60744289D01*
X196212124Y-60772960D01*
X196234977Y-60798760D01*
X196237716Y-60814273D01*
X196232370Y-60818465D01*
X196174127Y-60863218D01*
X196135181Y-60889613D01*
X196109431Y-60900262D01*
X196090772Y-60897780D01*
X196073101Y-60884782D01*
X196040490Y-60868556D01*
X195985533Y-60857737D01*
X195923420Y-60854931D01*
X195867217Y-60860642D01*
X195829984Y-60875376D01*
X195828025Y-60877169D01*
X195811294Y-60910850D01*
X195804737Y-60961125D01*
X195804737Y-61025921D01*
X195959310Y-61025983D01*
X196030314Y-61027107D01*
X196090082Y-61031996D01*
X196132837Y-61042055D01*
X196167380Y-61058665D01*
X196175419Y-61063767D01*
X196233576Y-61119847D01*
X196264510Y-61194004D01*
X196267125Y-61249713D01*
X196268912Y-61287796D01*
G36*
X196268912Y-61287796D02*
G01*
X196268722Y-61290000D01*
X196248360Y-61375846D01*
X196203067Y-61440412D01*
X196130593Y-61486937D01*
X196093140Y-61498256D01*
X196028990Y-61507078D01*
X195958840Y-61509185D01*
X195895548Y-61504330D01*
X195851976Y-61492268D01*
X195825512Y-61482606D01*
X195799601Y-61492268D01*
X195790123Y-61497866D01*
X195752294Y-61506943D01*
X195701132Y-61510526D01*
X195620922Y-61510526D01*
X195620922Y-61187142D01*
X195620928Y-61159605D01*
X195804737Y-61159605D01*
X195804737Y-61223857D01*
X195810915Y-61272753D01*
X195835297Y-61315765D01*
X195849249Y-61325074D01*
X195899051Y-61339583D01*
X195961225Y-61343205D01*
X196022196Y-61335845D01*
X196068388Y-61317408D01*
X196091399Y-61293030D01*
X196105527Y-61249713D01*
X196092998Y-61215376D01*
X196051582Y-61185520D01*
X195985005Y-61166366D01*
X195897182Y-61159605D01*
X195804737Y-61159605D01*
X195620928Y-61159605D01*
X195620928Y-61159176D01*
X195621232Y-61053767D01*
X195622376Y-60975401D01*
X195624877Y-60918871D01*
X195629256Y-60878970D01*
X195636032Y-60850492D01*
X195645725Y-60828230D01*
X195658853Y-60806978D01*
X195701084Y-60757180D01*
X195760930Y-60719160D01*
X195839543Y-60698184D01*
X195943136Y-60691736D01*
X195946503Y-60691743D01*
X196018513Y-60694995D01*
X196082966Y-60703103D01*
X196126952Y-60714470D01*
X196139010Y-60720166D01*
X196177391Y-60744289D01*
X196212124Y-60772960D01*
X196234977Y-60798760D01*
X196237716Y-60814273D01*
X196232370Y-60818465D01*
X196174127Y-60863218D01*
X196135181Y-60889613D01*
X196109431Y-60900262D01*
X196090772Y-60897780D01*
X196073101Y-60884782D01*
X196040490Y-60868556D01*
X195985533Y-60857737D01*
X195923420Y-60854931D01*
X195867217Y-60860642D01*
X195829984Y-60875376D01*
X195828025Y-60877169D01*
X195811294Y-60910850D01*
X195804737Y-60961125D01*
X195804737Y-61025921D01*
X195959310Y-61025983D01*
X196030314Y-61027107D01*
X196090082Y-61031996D01*
X196132837Y-61042055D01*
X196167380Y-61058665D01*
X196175419Y-61063767D01*
X196233576Y-61119847D01*
X196264510Y-61194004D01*
X196267125Y-61249713D01*
X196268912Y-61287796D01*
G37*
X197024606Y-61512273D02*
X196936875Y-61507222D01*
X196849145Y-61502171D01*
X196844974Y-61234802D01*
X196843740Y-61169788D01*
X196840237Y-61072111D01*
X196834224Y-61000434D01*
X196824597Y-60949940D01*
X196810249Y-60915810D01*
X196790075Y-60893227D01*
X196762970Y-60877372D01*
X196712112Y-60861180D01*
X196661534Y-60867472D01*
X196608125Y-60902077D01*
X196556711Y-60945339D01*
X196556711Y-61510526D01*
X196372895Y-61510526D01*
X196372895Y-61204010D01*
X196373072Y-61107935D01*
X196374049Y-61022562D01*
X196376399Y-60960071D01*
X196380691Y-60914794D01*
X196387495Y-60881068D01*
X196397378Y-60853227D01*
X196410910Y-60825605D01*
X196414119Y-60819741D01*
X196456792Y-60762627D01*
X196506735Y-60722714D01*
X196566948Y-60701756D01*
X196646680Y-60692427D01*
X196726527Y-60697480D01*
X196791488Y-60717205D01*
X196840790Y-60742700D01*
X196840790Y-60190931D01*
X196773237Y-60226142D01*
X196745019Y-60238934D01*
X196655950Y-60257023D01*
X196567434Y-60244521D01*
X196485381Y-60202952D01*
X196415704Y-60133843D01*
X196404789Y-60117600D01*
X196394298Y-60093790D01*
X196387455Y-60061418D01*
X196383504Y-60014271D01*
X196381688Y-59946135D01*
X196381362Y-59875142D01*
X196557891Y-59875142D01*
X196558040Y-59934431D01*
X196562573Y-59973969D01*
X196572760Y-60002189D01*
X196589872Y-60027519D01*
X196611610Y-60051069D01*
X196646372Y-60068892D01*
X196698750Y-60073421D01*
X196745020Y-60069480D01*
X196790817Y-60049759D01*
X196820312Y-60009809D01*
X196836104Y-59945600D01*
X196840790Y-59853101D01*
X196839578Y-59803894D01*
X196827481Y-59711006D01*
X196802523Y-59648196D01*
X196764844Y-59615906D01*
X196726789Y-59606822D01*
X196660513Y-59611081D01*
X196604516Y-59637452D01*
X196591114Y-59649545D01*
X196576913Y-59670467D01*
X196568133Y-59701611D01*
X196562919Y-59750710D01*
X196559416Y-59825498D01*
X196557891Y-59875142D01*
X196381362Y-59875142D01*
X196381250Y-59850797D01*
X196381400Y-59807296D01*
X196383962Y-59706111D01*
X196391097Y-59630522D01*
X196404606Y-59574817D01*
X196426294Y-59533283D01*
X196457960Y-59500206D01*
X196501408Y-59469874D01*
X196536640Y-59452468D01*
X196620173Y-59433271D01*
X196708222Y-59435887D01*
X196786481Y-59460772D01*
X196820067Y-59477039D01*
X196836960Y-59478720D01*
X196840790Y-59463916D01*
X196840794Y-59463468D01*
X196849048Y-59448351D01*
X196877517Y-59440603D01*
X196932698Y-59438421D01*
X197024606Y-59438421D01*
X197024606Y-59853101D01*
X197024606Y-61512273D01*
G36*
X197024606Y-61512273D02*
G01*
X196936875Y-61507222D01*
X196849145Y-61502171D01*
X196844974Y-61234802D01*
X196843740Y-61169788D01*
X196840237Y-61072111D01*
X196834224Y-61000434D01*
X196824597Y-60949940D01*
X196810249Y-60915810D01*
X196790075Y-60893227D01*
X196762970Y-60877372D01*
X196712112Y-60861180D01*
X196661534Y-60867472D01*
X196608125Y-60902077D01*
X196556711Y-60945339D01*
X196556711Y-61510526D01*
X196372895Y-61510526D01*
X196372895Y-61204010D01*
X196373072Y-61107935D01*
X196374049Y-61022562D01*
X196376399Y-60960071D01*
X196380691Y-60914794D01*
X196387495Y-60881068D01*
X196397378Y-60853227D01*
X196410910Y-60825605D01*
X196414119Y-60819741D01*
X196456792Y-60762627D01*
X196506735Y-60722714D01*
X196566948Y-60701756D01*
X196646680Y-60692427D01*
X196726527Y-60697480D01*
X196791488Y-60717205D01*
X196840790Y-60742700D01*
X196840790Y-60190931D01*
X196773237Y-60226142D01*
X196745019Y-60238934D01*
X196655950Y-60257023D01*
X196567434Y-60244521D01*
X196485381Y-60202952D01*
X196415704Y-60133843D01*
X196404789Y-60117600D01*
X196394298Y-60093790D01*
X196387455Y-60061418D01*
X196383504Y-60014271D01*
X196381688Y-59946135D01*
X196381362Y-59875142D01*
X196557891Y-59875142D01*
X196558040Y-59934431D01*
X196562573Y-59973969D01*
X196572760Y-60002189D01*
X196589872Y-60027519D01*
X196611610Y-60051069D01*
X196646372Y-60068892D01*
X196698750Y-60073421D01*
X196745020Y-60069480D01*
X196790817Y-60049759D01*
X196820312Y-60009809D01*
X196836104Y-59945600D01*
X196840790Y-59853101D01*
X196839578Y-59803894D01*
X196827481Y-59711006D01*
X196802523Y-59648196D01*
X196764844Y-59615906D01*
X196726789Y-59606822D01*
X196660513Y-59611081D01*
X196604516Y-59637452D01*
X196591114Y-59649545D01*
X196576913Y-59670467D01*
X196568133Y-59701611D01*
X196562919Y-59750710D01*
X196559416Y-59825498D01*
X196557891Y-59875142D01*
X196381362Y-59875142D01*
X196381250Y-59850797D01*
X196381400Y-59807296D01*
X196383962Y-59706111D01*
X196391097Y-59630522D01*
X196404606Y-59574817D01*
X196426294Y-59533283D01*
X196457960Y-59500206D01*
X196501408Y-59469874D01*
X196536640Y-59452468D01*
X196620173Y-59433271D01*
X196708222Y-59435887D01*
X196786481Y-59460772D01*
X196820067Y-59477039D01*
X196836960Y-59478720D01*
X196840790Y-59463916D01*
X196840794Y-59463468D01*
X196849048Y-59448351D01*
X196877517Y-59440603D01*
X196932698Y-59438421D01*
X197024606Y-59438421D01*
X197024606Y-59853101D01*
X197024606Y-61512273D01*
G37*
X194484254Y-53898576D02*
X194559803Y-54299322D01*
X194838567Y-54414238D01*
X195117332Y-54529154D01*
X195451756Y-54301748D01*
X195517946Y-54256917D01*
X195605693Y-54198071D01*
X195681663Y-54147810D01*
X195741911Y-54108715D01*
X195782491Y-54083365D01*
X195799457Y-54074342D01*
X195809877Y-54080759D01*
X195841025Y-54107647D01*
X195888161Y-54151774D01*
X195947293Y-54209087D01*
X196014426Y-54275535D01*
X196085566Y-54347065D01*
X196156719Y-54419626D01*
X196223892Y-54489167D01*
X196283090Y-54551635D01*
X196330319Y-54602978D01*
X196361586Y-54639145D01*
X196372895Y-54656083D01*
X196370264Y-54663361D01*
X196352048Y-54695824D01*
X196318782Y-54749249D01*
X196273164Y-54819449D01*
X196217890Y-54902236D01*
X196155658Y-54993421D01*
X196121506Y-55043152D01*
X196062757Y-55129731D01*
X196012388Y-55205291D01*
X195973086Y-55265733D01*
X195947535Y-55306961D01*
X195938422Y-55324876D01*
X195938571Y-55325869D01*
X195946611Y-55348580D01*
X195965054Y-55394955D01*
X195991331Y-55458937D01*
X196022871Y-55534468D01*
X196057102Y-55615489D01*
X196091454Y-55695943D01*
X196123355Y-55769772D01*
X196150235Y-55830918D01*
X196169522Y-55873322D01*
X196178646Y-55890926D01*
X196184045Y-55892488D01*
X196216846Y-55899531D01*
X196275306Y-55911199D01*
X196354746Y-55926580D01*
X196450486Y-55944760D01*
X196557846Y-55964830D01*
X196614431Y-55975471D01*
X196718289Y-55995773D01*
X196809097Y-56014522D01*
X196881891Y-56030642D01*
X196931708Y-56043056D01*
X196953586Y-56050686D01*
X196957516Y-56058250D01*
X196964034Y-56095209D01*
X196969156Y-56156765D01*
X196972884Y-56237127D01*
X196975223Y-56330503D01*
X196976177Y-56431101D01*
X196975749Y-56533128D01*
X196973945Y-56630793D01*
X196970766Y-56718304D01*
X196966219Y-56789869D01*
X196960306Y-56839696D01*
X196953031Y-56861993D01*
X196948617Y-56864508D01*
X196915694Y-56875296D01*
X196858582Y-56889569D01*
X196783882Y-56905764D01*
X196698196Y-56922319D01*
X196669285Y-56927592D01*
X196535755Y-56952113D01*
X196430813Y-56971821D01*
X196350820Y-56987531D01*
X196292139Y-57000062D01*
X196251132Y-57010229D01*
X196224161Y-57018851D01*
X196207588Y-57026745D01*
X196197775Y-57034727D01*
X196196635Y-57036067D01*
X196180588Y-57063997D01*
X196156843Y-57115104D01*
X196127701Y-57183392D01*
X196095463Y-57262866D01*
X196062430Y-57347529D01*
X196030904Y-57431387D01*
X196003186Y-57508444D01*
X195981577Y-57572704D01*
X195968379Y-57618172D01*
X195965893Y-57638852D01*
X195967555Y-57641535D01*
X195984765Y-57667484D01*
X196017130Y-57715345D01*
X196061650Y-57780710D01*
X196115323Y-57859170D01*
X196175149Y-57946315D01*
X196191567Y-57970292D01*
X196249303Y-58056295D01*
X196299200Y-58133211D01*
X196338409Y-58196477D01*
X196364083Y-58241532D01*
X196373374Y-58263815D01*
X196371372Y-58269673D01*
X196350503Y-58298541D01*
X196309331Y-58345680D01*
X196250803Y-58407920D01*
X196177867Y-58482087D01*
X196093473Y-58565008D01*
X196045234Y-58611421D01*
X195968962Y-58683708D01*
X195902205Y-58745624D01*
X195848546Y-58793911D01*
X195811570Y-58825307D01*
X195794863Y-58836554D01*
X195783385Y-58832384D01*
X195748045Y-58812663D01*
X195696723Y-58780410D01*
X195636113Y-58739711D01*
X195593020Y-58710011D01*
X195506987Y-58651030D01*
X195415179Y-58588390D01*
X195331323Y-58531469D01*
X195167053Y-58420359D01*
X195029160Y-58494916D01*
X194996690Y-58512125D01*
X194937642Y-58541560D01*
X194891979Y-58561883D01*
X194867574Y-58569460D01*
X194859588Y-58559730D01*
X194839756Y-58522679D01*
X194810462Y-58461593D01*
X194773338Y-58380349D01*
X194730013Y-58282823D01*
X194682118Y-58172891D01*
X194631281Y-58054432D01*
X194579133Y-57931321D01*
X194527304Y-57807435D01*
X194477424Y-57686650D01*
X194431123Y-57572844D01*
X194390031Y-57469893D01*
X194355778Y-57381673D01*
X194329993Y-57312062D01*
X194314308Y-57264936D01*
X194310351Y-57244172D01*
X194310619Y-57243565D01*
X194329050Y-57224370D01*
X194367602Y-57194306D01*
X194418316Y-57159609D01*
X194434324Y-57149014D01*
X194556125Y-57048498D01*
X194656929Y-56928777D01*
X194734351Y-56794834D01*
X194786004Y-56651653D01*
X194809500Y-56504216D01*
X194802454Y-56357507D01*
X194773910Y-56227020D01*
X194722659Y-56095257D01*
X194647945Y-55977706D01*
X194545414Y-55866042D01*
X194505127Y-55830369D01*
X194374889Y-55742480D01*
X194234197Y-55683288D01*
X194087127Y-55652265D01*
X193937758Y-55648879D01*
X193790167Y-55672602D01*
X193648429Y-55722904D01*
X193516623Y-55799255D01*
X193398826Y-55901125D01*
X193299114Y-56027984D01*
X193279943Y-56059400D01*
X193214783Y-56202992D01*
X193180177Y-56352517D01*
X193175218Y-56504105D01*
X193199001Y-56653882D01*
X193250619Y-56797976D01*
X193329166Y-56932515D01*
X193433736Y-57053625D01*
X193563422Y-57157434D01*
X193567634Y-57160232D01*
X193617810Y-57195590D01*
X193655417Y-57225653D01*
X193672594Y-57244172D01*
X193670426Y-57258690D01*
X193656951Y-57300965D01*
X193633058Y-57366486D01*
X193600375Y-57451377D01*
X193560533Y-57551759D01*
X193515160Y-57663757D01*
X193465887Y-57783491D01*
X193414341Y-57907084D01*
X193362154Y-58030659D01*
X193310953Y-58150339D01*
X193262368Y-58262245D01*
X193218030Y-58362500D01*
X193179566Y-58447227D01*
X193148606Y-58512547D01*
X193126779Y-58554584D01*
X193115716Y-58569460D01*
X193106516Y-58567446D01*
X193070371Y-58552966D01*
X193016951Y-58527578D01*
X192954131Y-58494916D01*
X192816238Y-58420359D01*
X192651968Y-58531469D01*
X192603436Y-58564370D01*
X192513166Y-58625845D01*
X192423171Y-58687418D01*
X192347177Y-58739711D01*
X192305237Y-58768209D01*
X192250726Y-58803616D01*
X192210309Y-58827855D01*
X192190568Y-58836842D01*
X192182087Y-58833026D01*
X192151429Y-58809656D01*
X192104168Y-58768510D01*
X192044416Y-58713635D01*
X191976288Y-58649077D01*
X191903896Y-58578885D01*
X191831356Y-58507106D01*
X191762780Y-58437786D01*
X191702282Y-58374973D01*
X191653976Y-58322714D01*
X191621976Y-58285057D01*
X191610395Y-58266048D01*
X191611063Y-58262431D01*
X191624847Y-58232993D01*
X191654292Y-58182062D01*
X191696553Y-58114238D01*
X191748785Y-58034123D01*
X191808142Y-57946315D01*
X191824789Y-57922096D01*
X191883244Y-57836868D01*
X191934733Y-57761521D01*
X191976256Y-57700463D01*
X192004811Y-57658104D01*
X192017398Y-57638852D01*
X192017707Y-57638027D01*
X192013993Y-57614473D01*
X191999807Y-57566759D01*
X191977451Y-57500879D01*
X191949227Y-57422830D01*
X191917435Y-57338607D01*
X191884378Y-57254205D01*
X191852356Y-57175621D01*
X191823671Y-57108850D01*
X191800623Y-57059886D01*
X191785515Y-57034727D01*
X191784002Y-57033165D01*
X191773185Y-57025263D01*
X191754915Y-57017294D01*
X191725556Y-57008441D01*
X191681470Y-56997887D01*
X191619018Y-56984815D01*
X191534564Y-56968408D01*
X191424469Y-56947848D01*
X191285095Y-56922319D01*
X191256187Y-56916946D01*
X191173377Y-56900337D01*
X191103718Y-56884600D01*
X191053812Y-56871298D01*
X191030259Y-56861993D01*
X191026319Y-56854230D01*
X191019750Y-56816942D01*
X191014544Y-56755125D01*
X191010706Y-56674572D01*
X191008239Y-56581075D01*
X191007147Y-56480426D01*
X191007435Y-56378417D01*
X191009107Y-56280839D01*
X191012165Y-56193485D01*
X191016615Y-56122147D01*
X191022460Y-56072617D01*
X191029704Y-56050686D01*
X191037101Y-56047446D01*
X191073896Y-56037233D01*
X191136091Y-56022789D01*
X191218723Y-56005189D01*
X191316828Y-55985510D01*
X191425444Y-55964830D01*
X191484750Y-55953781D01*
X191586398Y-55934621D01*
X191673890Y-55917844D01*
X191742549Y-55904361D01*
X191787693Y-55895084D01*
X191804644Y-55890926D01*
X191805281Y-55890069D01*
X191816077Y-55868293D01*
X191836657Y-55822671D01*
X191864449Y-55759258D01*
X191896882Y-55684107D01*
X191931382Y-55603270D01*
X191965378Y-55522799D01*
X191996297Y-55448749D01*
X192021566Y-55387172D01*
X192038615Y-55344121D01*
X192044869Y-55325650D01*
X192042110Y-55319150D01*
X192023750Y-55288222D01*
X191990446Y-55236163D01*
X191944874Y-55167059D01*
X191889711Y-55084993D01*
X191827632Y-54994052D01*
X191793573Y-54944248D01*
X191734797Y-54856931D01*
X191684403Y-54780298D01*
X191645080Y-54718531D01*
X191619514Y-54675806D01*
X191610395Y-54656305D01*
X191616732Y-54645727D01*
X191643237Y-54614119D01*
X191686720Y-54566283D01*
X191743189Y-54506273D01*
X191808653Y-54438142D01*
X191879121Y-54365945D01*
X191950601Y-54293733D01*
X192019100Y-54225562D01*
X192080629Y-54165483D01*
X192131194Y-54117551D01*
X192166805Y-54085820D01*
X192183470Y-54074342D01*
X192192720Y-54078805D01*
X192226689Y-54099502D01*
X192281505Y-54134727D01*
X192353218Y-54181896D01*
X192437878Y-54238431D01*
X192531535Y-54301748D01*
X192865959Y-54529154D01*
X193423487Y-54299322D01*
X193499036Y-53898576D01*
X193574585Y-53497829D01*
X194408706Y-53497829D01*
X194484254Y-53898576D01*
G36*
X194484254Y-53898576D02*
G01*
X194559803Y-54299322D01*
X194838567Y-54414238D01*
X195117332Y-54529154D01*
X195451756Y-54301748D01*
X195517946Y-54256917D01*
X195605693Y-54198071D01*
X195681663Y-54147810D01*
X195741911Y-54108715D01*
X195782491Y-54083365D01*
X195799457Y-54074342D01*
X195809877Y-54080759D01*
X195841025Y-54107647D01*
X195888161Y-54151774D01*
X195947293Y-54209087D01*
X196014426Y-54275535D01*
X196085566Y-54347065D01*
X196156719Y-54419626D01*
X196223892Y-54489167D01*
X196283090Y-54551635D01*
X196330319Y-54602978D01*
X196361586Y-54639145D01*
X196372895Y-54656083D01*
X196370264Y-54663361D01*
X196352048Y-54695824D01*
X196318782Y-54749249D01*
X196273164Y-54819449D01*
X196217890Y-54902236D01*
X196155658Y-54993421D01*
X196121506Y-55043152D01*
X196062757Y-55129731D01*
X196012388Y-55205291D01*
X195973086Y-55265733D01*
X195947535Y-55306961D01*
X195938422Y-55324876D01*
X195938571Y-55325869D01*
X195946611Y-55348580D01*
X195965054Y-55394955D01*
X195991331Y-55458937D01*
X196022871Y-55534468D01*
X196057102Y-55615489D01*
X196091454Y-55695943D01*
X196123355Y-55769772D01*
X196150235Y-55830918D01*
X196169522Y-55873322D01*
X196178646Y-55890926D01*
X196184045Y-55892488D01*
X196216846Y-55899531D01*
X196275306Y-55911199D01*
X196354746Y-55926580D01*
X196450486Y-55944760D01*
X196557846Y-55964830D01*
X196614431Y-55975471D01*
X196718289Y-55995773D01*
X196809097Y-56014522D01*
X196881891Y-56030642D01*
X196931708Y-56043056D01*
X196953586Y-56050686D01*
X196957516Y-56058250D01*
X196964034Y-56095209D01*
X196969156Y-56156765D01*
X196972884Y-56237127D01*
X196975223Y-56330503D01*
X196976177Y-56431101D01*
X196975749Y-56533128D01*
X196973945Y-56630793D01*
X196970766Y-56718304D01*
X196966219Y-56789869D01*
X196960306Y-56839696D01*
X196953031Y-56861993D01*
X196948617Y-56864508D01*
X196915694Y-56875296D01*
X196858582Y-56889569D01*
X196783882Y-56905764D01*
X196698196Y-56922319D01*
X196669285Y-56927592D01*
X196535755Y-56952113D01*
X196430813Y-56971821D01*
X196350820Y-56987531D01*
X196292139Y-57000062D01*
X196251132Y-57010229D01*
X196224161Y-57018851D01*
X196207588Y-57026745D01*
X196197775Y-57034727D01*
X196196635Y-57036067D01*
X196180588Y-57063997D01*
X196156843Y-57115104D01*
X196127701Y-57183392D01*
X196095463Y-57262866D01*
X196062430Y-57347529D01*
X196030904Y-57431387D01*
X196003186Y-57508444D01*
X195981577Y-57572704D01*
X195968379Y-57618172D01*
X195965893Y-57638852D01*
X195967555Y-57641535D01*
X195984765Y-57667484D01*
X196017130Y-57715345D01*
X196061650Y-57780710D01*
X196115323Y-57859170D01*
X196175149Y-57946315D01*
X196191567Y-57970292D01*
X196249303Y-58056295D01*
X196299200Y-58133211D01*
X196338409Y-58196477D01*
X196364083Y-58241532D01*
X196373374Y-58263815D01*
X196371372Y-58269673D01*
X196350503Y-58298541D01*
X196309331Y-58345680D01*
X196250803Y-58407920D01*
X196177867Y-58482087D01*
X196093473Y-58565008D01*
X196045234Y-58611421D01*
X195968962Y-58683708D01*
X195902205Y-58745624D01*
X195848546Y-58793911D01*
X195811570Y-58825307D01*
X195794863Y-58836554D01*
X195783385Y-58832384D01*
X195748045Y-58812663D01*
X195696723Y-58780410D01*
X195636113Y-58739711D01*
X195593020Y-58710011D01*
X195506987Y-58651030D01*
X195415179Y-58588390D01*
X195331323Y-58531469D01*
X195167053Y-58420359D01*
X195029160Y-58494916D01*
X194996690Y-58512125D01*
X194937642Y-58541560D01*
X194891979Y-58561883D01*
X194867574Y-58569460D01*
X194859588Y-58559730D01*
X194839756Y-58522679D01*
X194810462Y-58461593D01*
X194773338Y-58380349D01*
X194730013Y-58282823D01*
X194682118Y-58172891D01*
X194631281Y-58054432D01*
X194579133Y-57931321D01*
X194527304Y-57807435D01*
X194477424Y-57686650D01*
X194431123Y-57572844D01*
X194390031Y-57469893D01*
X194355778Y-57381673D01*
X194329993Y-57312062D01*
X194314308Y-57264936D01*
X194310351Y-57244172D01*
X194310619Y-57243565D01*
X194329050Y-57224370D01*
X194367602Y-57194306D01*
X194418316Y-57159609D01*
X194434324Y-57149014D01*
X194556125Y-57048498D01*
X194656929Y-56928777D01*
X194734351Y-56794834D01*
X194786004Y-56651653D01*
X194809500Y-56504216D01*
X194802454Y-56357507D01*
X194773910Y-56227020D01*
X194722659Y-56095257D01*
X194647945Y-55977706D01*
X194545414Y-55866042D01*
X194505127Y-55830369D01*
X194374889Y-55742480D01*
X194234197Y-55683288D01*
X194087127Y-55652265D01*
X193937758Y-55648879D01*
X193790167Y-55672602D01*
X193648429Y-55722904D01*
X193516623Y-55799255D01*
X193398826Y-55901125D01*
X193299114Y-56027984D01*
X193279943Y-56059400D01*
X193214783Y-56202992D01*
X193180177Y-56352517D01*
X193175218Y-56504105D01*
X193199001Y-56653882D01*
X193250619Y-56797976D01*
X193329166Y-56932515D01*
X193433736Y-57053625D01*
X193563422Y-57157434D01*
X193567634Y-57160232D01*
X193617810Y-57195590D01*
X193655417Y-57225653D01*
X193672594Y-57244172D01*
X193670426Y-57258690D01*
X193656951Y-57300965D01*
X193633058Y-57366486D01*
X193600375Y-57451377D01*
X193560533Y-57551759D01*
X193515160Y-57663757D01*
X193465887Y-57783491D01*
X193414341Y-57907084D01*
X193362154Y-58030659D01*
X193310953Y-58150339D01*
X193262368Y-58262245D01*
X193218030Y-58362500D01*
X193179566Y-58447227D01*
X193148606Y-58512547D01*
X193126779Y-58554584D01*
X193115716Y-58569460D01*
X193106516Y-58567446D01*
X193070371Y-58552966D01*
X193016951Y-58527578D01*
X192954131Y-58494916D01*
X192816238Y-58420359D01*
X192651968Y-58531469D01*
X192603436Y-58564370D01*
X192513166Y-58625845D01*
X192423171Y-58687418D01*
X192347177Y-58739711D01*
X192305237Y-58768209D01*
X192250726Y-58803616D01*
X192210309Y-58827855D01*
X192190568Y-58836842D01*
X192182087Y-58833026D01*
X192151429Y-58809656D01*
X192104168Y-58768510D01*
X192044416Y-58713635D01*
X191976288Y-58649077D01*
X191903896Y-58578885D01*
X191831356Y-58507106D01*
X191762780Y-58437786D01*
X191702282Y-58374973D01*
X191653976Y-58322714D01*
X191621976Y-58285057D01*
X191610395Y-58266048D01*
X191611063Y-58262431D01*
X191624847Y-58232993D01*
X191654292Y-58182062D01*
X191696553Y-58114238D01*
X191748785Y-58034123D01*
X191808142Y-57946315D01*
X191824789Y-57922096D01*
X191883244Y-57836868D01*
X191934733Y-57761521D01*
X191976256Y-57700463D01*
X192004811Y-57658104D01*
X192017398Y-57638852D01*
X192017707Y-57638027D01*
X192013993Y-57614473D01*
X191999807Y-57566759D01*
X191977451Y-57500879D01*
X191949227Y-57422830D01*
X191917435Y-57338607D01*
X191884378Y-57254205D01*
X191852356Y-57175621D01*
X191823671Y-57108850D01*
X191800623Y-57059886D01*
X191785515Y-57034727D01*
X191784002Y-57033165D01*
X191773185Y-57025263D01*
X191754915Y-57017294D01*
X191725556Y-57008441D01*
X191681470Y-56997887D01*
X191619018Y-56984815D01*
X191534564Y-56968408D01*
X191424469Y-56947848D01*
X191285095Y-56922319D01*
X191256187Y-56916946D01*
X191173377Y-56900337D01*
X191103718Y-56884600D01*
X191053812Y-56871298D01*
X191030259Y-56861993D01*
X191026319Y-56854230D01*
X191019750Y-56816942D01*
X191014544Y-56755125D01*
X191010706Y-56674572D01*
X191008239Y-56581075D01*
X191007147Y-56480426D01*
X191007435Y-56378417D01*
X191009107Y-56280839D01*
X191012165Y-56193485D01*
X191016615Y-56122147D01*
X191022460Y-56072617D01*
X191029704Y-56050686D01*
X191037101Y-56047446D01*
X191073896Y-56037233D01*
X191136091Y-56022789D01*
X191218723Y-56005189D01*
X191316828Y-55985510D01*
X191425444Y-55964830D01*
X191484750Y-55953781D01*
X191586398Y-55934621D01*
X191673890Y-55917844D01*
X191742549Y-55904361D01*
X191787693Y-55895084D01*
X191804644Y-55890926D01*
X191805281Y-55890069D01*
X191816077Y-55868293D01*
X191836657Y-55822671D01*
X191864449Y-55759258D01*
X191896882Y-55684107D01*
X191931382Y-55603270D01*
X191965378Y-55522799D01*
X191996297Y-55448749D01*
X192021566Y-55387172D01*
X192038615Y-55344121D01*
X192044869Y-55325650D01*
X192042110Y-55319150D01*
X192023750Y-55288222D01*
X191990446Y-55236163D01*
X191944874Y-55167059D01*
X191889711Y-55084993D01*
X191827632Y-54994052D01*
X191793573Y-54944248D01*
X191734797Y-54856931D01*
X191684403Y-54780298D01*
X191645080Y-54718531D01*
X191619514Y-54675806D01*
X191610395Y-54656305D01*
X191616732Y-54645727D01*
X191643237Y-54614119D01*
X191686720Y-54566283D01*
X191743189Y-54506273D01*
X191808653Y-54438142D01*
X191879121Y-54365945D01*
X191950601Y-54293733D01*
X192019100Y-54225562D01*
X192080629Y-54165483D01*
X192131194Y-54117551D01*
X192166805Y-54085820D01*
X192183470Y-54074342D01*
X192192720Y-54078805D01*
X192226689Y-54099502D01*
X192281505Y-54134727D01*
X192353218Y-54181896D01*
X192437878Y-54238431D01*
X192531535Y-54301748D01*
X192865959Y-54529154D01*
X193423487Y-54299322D01*
X193499036Y-53898576D01*
X193574585Y-53497829D01*
X194408706Y-53497829D01*
X194484254Y-53898576D01*
G37*
%LPC*%
D12*
X177000000Y-44700000D03*
X178767767Y-46467767D03*
X180535534Y-48235534D03*
X180179111Y-55929111D03*
X181946878Y-57696878D03*
X183714645Y-59464645D03*
D13*
X164800000Y-44400000D03*
D14*
X159800000Y-44400000D03*
D12*
X192179111Y-43929111D03*
X193946878Y-45696878D03*
X195714645Y-47464645D03*
X168914466Y-52714466D03*
X170682233Y-54482233D03*
X172450000Y-56250000D03*
X172982233Y-48732233D03*
X174750000Y-50500000D03*
X176517767Y-52267767D03*
X188125989Y-47929111D03*
X189893756Y-49696878D03*
X191661523Y-51464645D03*
X184179111Y-51929111D03*
X185946878Y-53696878D03*
X187714645Y-55464645D03*
X164950000Y-56700000D03*
X166717767Y-58467767D03*
X168485534Y-60235534D03*
D15*
X198000000Y-69450000D03*
X158000000Y-69450000D03*
X162000000Y-69450000D03*
X178000000Y-69450000D03*
X166000000Y-69450000D03*
X182000000Y-69450000D03*
X194000000Y-69450000D03*
X170000000Y-69450000D03*
X174000000Y-69450000D03*
X190000000Y-69450000D03*
X186000000Y-69450000D03*
%LPD*%
M02*
