%TF.GenerationSoftware,KiCad,Pcbnew,9.0.1*%
%TF.CreationDate,2025-05-31T22:38:18+02:00*%
%TF.ProjectId,Sim-module,53696d2d-6d6f-4647-956c-652e6b696361,rev?*%
%TF.SameCoordinates,Original*%
%TF.FileFunction,Drillmap*%
%TF.FilePolarity,Positive*%
%FSLAX45Y45*%
G04 Gerber Fmt 4.5, Leading zero omitted, Abs format (unit mm)*
G04 Created by KiCad (PCBNEW 9.0.1) date 2025-05-31 22:38:18*
%MOMM*%
%LPD*%
G01*
G04 APERTURE LIST*
%ADD10C,0.050000*%
%ADD11C,0.200000*%
%ADD12C,0.100000*%
%ADD13C,0.120000*%
G04 APERTURE END LIST*
D10*
X18700000Y-6500000D02*
X18900000Y-6500000D01*
X17500000Y-6500000D02*
X17700000Y-6500000D01*
X19300000Y-6500000D02*
X19300000Y-7400000D01*
X19100000Y-6500000D02*
X19300000Y-6500000D01*
X18500000Y-7400000D02*
X18700000Y-7400000D01*
X18900000Y-6500000D02*
X18900000Y-7400000D01*
X16300000Y-7400000D02*
X16300000Y-6500000D01*
X17300000Y-6500000D02*
X17300000Y-7400000D01*
X18300000Y-6500000D02*
X18500000Y-6500000D01*
X18100000Y-6500000D02*
X18100000Y-7400000D01*
X18300000Y-7400000D02*
X18300000Y-6500000D01*
X16500000Y-6500000D02*
X16500000Y-7400000D01*
X19100000Y-7400000D02*
X19100000Y-6500000D01*
X19300000Y-7400000D02*
X19500000Y-7400000D01*
X17700000Y-7400000D02*
X17900000Y-7400000D01*
X19700000Y-7400000D02*
X19900000Y-7400000D01*
X16500000Y-7400000D02*
X16700000Y-7400000D01*
X17100000Y-6500000D02*
X17300000Y-6500000D01*
X18900000Y-7400000D02*
X19100000Y-7400000D01*
X17500000Y-7400000D02*
X17500000Y-6500000D01*
X19900000Y-4000000D02*
X15700000Y-4000000D01*
X16300000Y-6500000D02*
X16500000Y-6500000D01*
X15700000Y-4000000D02*
X15700000Y-7400000D01*
X19900000Y-4000000D02*
X19900000Y-6500000D01*
X19900000Y-7400000D02*
X19900000Y-6500000D01*
X16700000Y-6500000D02*
X16900000Y-6500000D01*
X18700000Y-7400000D02*
X18700000Y-6500000D01*
X17300000Y-7400000D02*
X17500000Y-7400000D01*
X16900000Y-6500000D02*
X16900000Y-7400000D01*
X15900000Y-7400000D02*
X15900000Y-6500000D01*
X16900000Y-7400000D02*
X17100000Y-7400000D01*
X18500000Y-6500000D02*
X18500000Y-7400000D01*
X16700000Y-7400000D02*
X16700000Y-6500000D01*
X16100000Y-7400000D02*
X16300000Y-7400000D01*
X18100000Y-7400000D02*
X18300000Y-7400000D01*
X17900000Y-7400000D02*
X17900000Y-6500000D01*
X16100000Y-6500000D02*
X16100000Y-7400000D01*
X17900000Y-6500000D02*
X18100000Y-6500000D01*
X19700000Y-6500000D02*
X19700000Y-7400000D01*
X15900000Y-6500000D02*
X16100000Y-6500000D01*
X17700000Y-6500000D02*
X17700000Y-7400000D01*
X15700000Y-7400000D02*
X15900000Y-7400000D01*
X19500000Y-7400000D02*
X19500000Y-6500000D01*
X17100000Y-7400000D02*
X17100000Y-6500000D01*
X19500000Y-6500000D02*
X19700000Y-6500000D01*
D11*
D12*
X15842500Y-6285000D02*
X15892500Y-6335000D01*
X15892500Y-6285000D02*
X15842500Y-6335000D01*
X16175000Y-6280000D02*
X16225000Y-6330000D01*
X16225000Y-6280000D02*
X16175000Y-6330000D01*
X16575000Y-6280000D02*
X16625000Y-6330000D01*
X16625000Y-6280000D02*
X16575000Y-6330000D01*
X16975000Y-6280000D02*
X17025000Y-6330000D01*
X17025000Y-6280000D02*
X16975000Y-6330000D01*
X17375000Y-6280000D02*
X17425000Y-6330000D01*
X17425000Y-6280000D02*
X17375000Y-6330000D01*
X17775000Y-6280000D02*
X17825000Y-6330000D01*
X17825000Y-6280000D02*
X17775000Y-6330000D01*
X18175000Y-6280000D02*
X18225000Y-6330000D01*
X18225000Y-6280000D02*
X18175000Y-6330000D01*
X18575000Y-6280000D02*
X18625000Y-6330000D01*
X18625000Y-6280000D02*
X18575000Y-6330000D01*
X18975000Y-6280000D02*
X19025000Y-6330000D01*
X19025000Y-6280000D02*
X18975000Y-6330000D01*
X19375000Y-6280000D02*
X19425000Y-6330000D01*
X19425000Y-6280000D02*
X19375000Y-6330000D01*
X19675000Y-6280000D02*
X19725000Y-6330000D01*
X19725000Y-6280000D02*
X19675000Y-6330000D01*
X16545000Y-5670000D02*
G75*
G02*
X16445000Y-5670000I-50000J0D01*
G01*
X16445000Y-5670000D02*
G75*
G02*
X16545000Y-5670000I50000J0D01*
G01*
X16477322Y-5758388D02*
X16583388Y-5652322D01*
X16512678Y-5581612D02*
G75*
G02*
X16583388Y-5652322I35355J-35355D01*
G01*
X16512678Y-5581612D02*
X16406612Y-5687678D01*
X16406612Y-5687678D02*
G75*
G03*
X16477322Y-5758388I35355J-35355D01*
G01*
X16721777Y-5846777D02*
G75*
G02*
X16621777Y-5846777I-50000J0D01*
G01*
X16621777Y-5846777D02*
G75*
G02*
X16721777Y-5846777I50000J0D01*
G01*
X16654099Y-5935165D02*
X16760165Y-5829099D01*
X16689454Y-5758388D02*
G75*
G02*
X16760165Y-5829099I35355J-35355D01*
G01*
X16689454Y-5758388D02*
X16583388Y-5864454D01*
X16583388Y-5864454D02*
G75*
G03*
X16654099Y-5935165I35355J-35355D01*
G01*
X16898553Y-6023553D02*
G75*
G02*
X16798553Y-6023553I-50000J0D01*
G01*
X16798553Y-6023553D02*
G75*
G02*
X16898553Y-6023553I50000J0D01*
G01*
X16830876Y-6111942D02*
X16936942Y-6005876D01*
X16866231Y-5935165D02*
G75*
G02*
X16936942Y-6005876I35355J-35355D01*
G01*
X16866231Y-5935165D02*
X16760165Y-6041231D01*
X16760165Y-6041231D02*
G75*
G03*
X16830876Y-6111942I35355J-35355D01*
G01*
X16941447Y-5271447D02*
G75*
G02*
X16841447Y-5271447I-50000J0D01*
G01*
X16841447Y-5271447D02*
G75*
G02*
X16941447Y-5271447I50000J0D01*
G01*
X16873769Y-5359835D02*
X16979835Y-5253769D01*
X16909124Y-5183058D02*
G75*
G02*
X16979835Y-5253769I35355J-35355D01*
G01*
X16909124Y-5183058D02*
X16803058Y-5289124D01*
X16803058Y-5289124D02*
G75*
G03*
X16873769Y-5359835I35355J-35355D01*
G01*
X17118223Y-5448223D02*
G75*
G02*
X17018223Y-5448223I-50000J0D01*
G01*
X17018223Y-5448223D02*
G75*
G02*
X17118223Y-5448223I50000J0D01*
G01*
X17050546Y-5536612D02*
X17156612Y-5430546D01*
X17085901Y-5359835D02*
G75*
G02*
X17156612Y-5430546I35355J-35355D01*
G01*
X17085901Y-5359835D02*
X16979835Y-5465901D01*
X16979835Y-5465901D02*
G75*
G03*
X17050546Y-5536612I35355J-35355D01*
G01*
X17295000Y-5625000D02*
G75*
G02*
X17195000Y-5625000I-50000J0D01*
G01*
X17195000Y-5625000D02*
G75*
G02*
X17295000Y-5625000I50000J0D01*
G01*
X17227322Y-5713388D02*
X17333388Y-5607322D01*
X17262678Y-5536612D02*
G75*
G02*
X17333388Y-5607322I35355J-35355D01*
G01*
X17262678Y-5536612D02*
X17156612Y-5642678D01*
X17156612Y-5642678D02*
G75*
G03*
X17227322Y-5713388I35355J-35355D01*
G01*
X17348223Y-4873223D02*
G75*
G02*
X17248223Y-4873223I-50000J0D01*
G01*
X17248223Y-4873223D02*
G75*
G02*
X17348223Y-4873223I50000J0D01*
G01*
X17280546Y-4961612D02*
X17386612Y-4855546D01*
X17315901Y-4784835D02*
G75*
G02*
X17386612Y-4855546I35355J-35355D01*
G01*
X17315901Y-4784835D02*
X17209835Y-4890901D01*
X17209835Y-4890901D02*
G75*
G03*
X17280546Y-4961612I35355J-35355D01*
G01*
X17525000Y-5050000D02*
G75*
G02*
X17425000Y-5050000I-50000J0D01*
G01*
X17425000Y-5050000D02*
G75*
G02*
X17525000Y-5050000I50000J0D01*
G01*
X17457322Y-5138388D02*
X17563388Y-5032322D01*
X17492678Y-4961612D02*
G75*
G02*
X17563388Y-5032322I35355J-35355D01*
G01*
X17492678Y-4961612D02*
X17386612Y-5067678D01*
X17386612Y-5067678D02*
G75*
G03*
X17457322Y-5138388I35355J-35355D01*
G01*
X17701777Y-5226777D02*
G75*
G02*
X17601777Y-5226777I-50000J0D01*
G01*
X17601777Y-5226777D02*
G75*
G02*
X17701777Y-5226777I50000J0D01*
G01*
X17634099Y-5315165D02*
X17740165Y-5209099D01*
X17669454Y-5138388D02*
G75*
G02*
X17740165Y-5209099I35355J-35355D01*
G01*
X17669454Y-5138388D02*
X17563388Y-5244454D01*
X17563388Y-5244454D02*
G75*
G03*
X17634099Y-5315165I35355J-35355D01*
G01*
X17750000Y-4470000D02*
G75*
G02*
X17650000Y-4470000I-50000J0D01*
G01*
X17650000Y-4470000D02*
G75*
G02*
X17750000Y-4470000I50000J0D01*
G01*
X17682322Y-4558388D02*
X17788388Y-4452322D01*
X17717678Y-4381612D02*
G75*
G02*
X17788388Y-4452322I35355J-35355D01*
G01*
X17717678Y-4381612D02*
X17611612Y-4487678D01*
X17611612Y-4487678D02*
G75*
G03*
X17682322Y-4558388I35355J-35355D01*
G01*
X17926777Y-4646777D02*
G75*
G02*
X17826777Y-4646777I-50000J0D01*
G01*
X17826777Y-4646777D02*
G75*
G02*
X17926777Y-4646777I50000J0D01*
G01*
X17859099Y-4735165D02*
X17965165Y-4629099D01*
X17894454Y-4558388D02*
G75*
G02*
X17965165Y-4629099I35355J-35355D01*
G01*
X17894454Y-4558388D02*
X17788388Y-4664454D01*
X17788388Y-4664454D02*
G75*
G03*
X17859099Y-4735165I35355J-35355D01*
G01*
X18067911Y-5592911D02*
G75*
G02*
X17967911Y-5592911I-50000J0D01*
G01*
X17967911Y-5592911D02*
G75*
G02*
X18067911Y-5592911I50000J0D01*
G01*
X18000233Y-5681299D02*
X18106299Y-5575233D01*
X18035589Y-5504523D02*
G75*
G02*
X18106299Y-5575233I35355J-35355D01*
G01*
X18035589Y-5504523D02*
X17929523Y-5610589D01*
X17929523Y-5610589D02*
G75*
G03*
X18000233Y-5681299I35355J-35355D01*
G01*
X18103553Y-4823553D02*
G75*
G02*
X18003553Y-4823553I-50000J0D01*
G01*
X18003553Y-4823553D02*
G75*
G02*
X18103553Y-4823553I50000J0D01*
G01*
X18035876Y-4911942D02*
X18141942Y-4805876D01*
X18071231Y-4735165D02*
G75*
G02*
X18141942Y-4805876I35355J-35355D01*
G01*
X18071231Y-4735165D02*
X17965165Y-4841231D01*
X17965165Y-4841231D02*
G75*
G03*
X18035876Y-4911942I35355J-35355D01*
G01*
X18244688Y-5769688D02*
G75*
G02*
X18144688Y-5769688I-50000J0D01*
G01*
X18144688Y-5769688D02*
G75*
G02*
X18244688Y-5769688I50000J0D01*
G01*
X18177010Y-5858076D02*
X18283076Y-5752010D01*
X18212366Y-5681299D02*
G75*
G02*
X18283076Y-5752010I35355J-35355D01*
G01*
X18212366Y-5681299D02*
X18106300Y-5787365D01*
X18106300Y-5787365D02*
G75*
G03*
X18177010Y-5858076I35355J-35355D01*
G01*
X18421465Y-5946464D02*
G75*
G02*
X18321465Y-5946464I-50000J0D01*
G01*
X18321465Y-5946464D02*
G75*
G02*
X18421465Y-5946464I50000J0D01*
G01*
X18353787Y-6034853D02*
X18459853Y-5928787D01*
X18389142Y-5858076D02*
G75*
G02*
X18459853Y-5928787I35355J-35355D01*
G01*
X18389142Y-5858076D02*
X18283076Y-5964142D01*
X18283076Y-5964142D02*
G75*
G03*
X18353787Y-6034853I35355J-35355D01*
G01*
X18467911Y-5192911D02*
G75*
G02*
X18367911Y-5192911I-50000J0D01*
G01*
X18367911Y-5192911D02*
G75*
G02*
X18467911Y-5192911I50000J0D01*
G01*
X18400233Y-5281299D02*
X18506299Y-5175233D01*
X18435589Y-5104523D02*
G75*
G02*
X18506299Y-5175233I35355J-35355D01*
G01*
X18435589Y-5104523D02*
X18329523Y-5210589D01*
X18329523Y-5210589D02*
G75*
G03*
X18400233Y-5281299I35355J-35355D01*
G01*
X18644688Y-5369688D02*
G75*
G02*
X18544688Y-5369688I-50000J0D01*
G01*
X18544688Y-5369688D02*
G75*
G02*
X18644688Y-5369688I50000J0D01*
G01*
X18577010Y-5458076D02*
X18683076Y-5352010D01*
X18612366Y-5281300D02*
G75*
G02*
X18683076Y-5352010I35355J-35355D01*
G01*
X18612366Y-5281300D02*
X18506300Y-5387366D01*
X18506300Y-5387366D02*
G75*
G03*
X18577010Y-5458076I35355J-35355D01*
G01*
X18821465Y-5546465D02*
G75*
G02*
X18721465Y-5546465I-50000J0D01*
G01*
X18721465Y-5546465D02*
G75*
G02*
X18821465Y-5546465I50000J0D01*
G01*
X18753787Y-5634853D02*
X18859853Y-5528787D01*
X18789142Y-5458076D02*
G75*
G02*
X18859853Y-5528787I35355J-35355D01*
G01*
X18789142Y-5458076D02*
X18683076Y-5564142D01*
X18683076Y-5564142D02*
G75*
G03*
X18753787Y-5634853I35355J-35355D01*
G01*
X18862599Y-4792911D02*
G75*
G02*
X18762599Y-4792911I-50000J0D01*
G01*
X18762599Y-4792911D02*
G75*
G02*
X18862599Y-4792911I50000J0D01*
G01*
X18794921Y-4881299D02*
X18900987Y-4775233D01*
X18830277Y-4704523D02*
G75*
G02*
X18900987Y-4775233I35355J-35355D01*
G01*
X18830277Y-4704523D02*
X18724211Y-4810589D01*
X18724211Y-4810589D02*
G75*
G03*
X18794921Y-4881299I35355J-35355D01*
G01*
X19039376Y-4969688D02*
G75*
G02*
X18939376Y-4969688I-50000J0D01*
G01*
X18939376Y-4969688D02*
G75*
G02*
X19039376Y-4969688I50000J0D01*
G01*
X18971698Y-5058076D02*
X19077764Y-4952010D01*
X19007053Y-4881300D02*
G75*
G02*
X19077764Y-4952010I35355J-35355D01*
G01*
X19007053Y-4881300D02*
X18900987Y-4987366D01*
X18900987Y-4987366D02*
G75*
G03*
X18971698Y-5058076I35355J-35355D01*
G01*
X19216152Y-5146465D02*
G75*
G02*
X19116152Y-5146465I-50000J0D01*
G01*
X19116152Y-5146465D02*
G75*
G02*
X19216152Y-5146465I50000J0D01*
G01*
X19148475Y-5234853D02*
X19254541Y-5128787D01*
X19183830Y-5058076D02*
G75*
G02*
X19254541Y-5128787I35355J-35355D01*
G01*
X19183830Y-5058076D02*
X19077764Y-5164142D01*
X19077764Y-5164142D02*
G75*
G03*
X19148475Y-5234853I35355J-35355D01*
G01*
X19267911Y-4392911D02*
G75*
G02*
X19167911Y-4392911I-50000J0D01*
G01*
X19167911Y-4392911D02*
G75*
G02*
X19267911Y-4392911I50000J0D01*
G01*
X19200233Y-4481299D02*
X19306299Y-4375233D01*
X19235589Y-4304523D02*
G75*
G02*
X19306299Y-4375233I35355J-35355D01*
G01*
X19235589Y-4304523D02*
X19129523Y-4410589D01*
X19129523Y-4410589D02*
G75*
G03*
X19200233Y-4481299I35355J-35355D01*
G01*
X19444688Y-4569688D02*
G75*
G02*
X19344688Y-4569688I-50000J0D01*
G01*
X19344688Y-4569688D02*
G75*
G02*
X19444688Y-4569688I50000J0D01*
G01*
X19377010Y-4658076D02*
X19483076Y-4552010D01*
X19412366Y-4481300D02*
G75*
G02*
X19483076Y-4552010I35355J-35355D01*
G01*
X19412366Y-4481300D02*
X19306300Y-4587366D01*
X19306300Y-4587366D02*
G75*
G03*
X19377010Y-4658076I35355J-35355D01*
G01*
X19621465Y-4746465D02*
G75*
G02*
X19521465Y-4746465I-50000J0D01*
G01*
X19521465Y-4746465D02*
G75*
G02*
X19621465Y-4746465I50000J0D01*
G01*
X19553787Y-4834853D02*
X19659853Y-4728787D01*
X19589142Y-4658076D02*
G75*
G02*
X19659853Y-4728787I35355J-35355D01*
G01*
X19589142Y-4658076D02*
X19483076Y-4764142D01*
X19483076Y-4764142D02*
G75*
G03*
X19553787Y-4834853I35355J-35355D01*
G01*
D13*
X15980000Y-4380000D02*
X15980000Y-4500000D01*
X15920000Y-4440000D02*
X16040000Y-4440000D01*
X16480000Y-4380000D02*
X16480000Y-4500000D01*
X16420000Y-4440000D02*
X16540000Y-4440000D01*
D11*
X15958277Y-7713984D02*
X15958277Y-7513984D01*
X15958277Y-7513984D02*
X16005896Y-7513984D01*
X16005896Y-7513984D02*
X16034467Y-7523508D01*
X16034467Y-7523508D02*
X16053515Y-7542555D01*
X16053515Y-7542555D02*
X16063039Y-7561603D01*
X16063039Y-7561603D02*
X16072562Y-7599698D01*
X16072562Y-7599698D02*
X16072562Y-7628269D01*
X16072562Y-7628269D02*
X16063039Y-7666365D01*
X16063039Y-7666365D02*
X16053515Y-7685412D01*
X16053515Y-7685412D02*
X16034467Y-7704460D01*
X16034467Y-7704460D02*
X16005896Y-7713984D01*
X16005896Y-7713984D02*
X15958277Y-7713984D01*
X16158277Y-7713984D02*
X16158277Y-7580650D01*
X16158277Y-7618746D02*
X16167801Y-7599698D01*
X16167801Y-7599698D02*
X16177324Y-7590174D01*
X16177324Y-7590174D02*
X16196372Y-7580650D01*
X16196372Y-7580650D02*
X16215420Y-7580650D01*
X16282086Y-7713984D02*
X16282086Y-7580650D01*
X16282086Y-7513984D02*
X16272562Y-7523508D01*
X16272562Y-7523508D02*
X16282086Y-7533031D01*
X16282086Y-7533031D02*
X16291610Y-7523508D01*
X16291610Y-7523508D02*
X16282086Y-7513984D01*
X16282086Y-7513984D02*
X16282086Y-7533031D01*
X16405896Y-7713984D02*
X16386848Y-7704460D01*
X16386848Y-7704460D02*
X16377324Y-7685412D01*
X16377324Y-7685412D02*
X16377324Y-7513984D01*
X16510658Y-7713984D02*
X16491610Y-7704460D01*
X16491610Y-7704460D02*
X16482086Y-7685412D01*
X16482086Y-7685412D02*
X16482086Y-7513984D01*
X16739229Y-7713984D02*
X16739229Y-7513984D01*
X16739229Y-7513984D02*
X16805896Y-7656841D01*
X16805896Y-7656841D02*
X16872563Y-7513984D01*
X16872563Y-7513984D02*
X16872563Y-7713984D01*
X17053515Y-7713984D02*
X17053515Y-7609222D01*
X17053515Y-7609222D02*
X17043991Y-7590174D01*
X17043991Y-7590174D02*
X17024944Y-7580650D01*
X17024944Y-7580650D02*
X16986848Y-7580650D01*
X16986848Y-7580650D02*
X16967801Y-7590174D01*
X17053515Y-7704460D02*
X17034467Y-7713984D01*
X17034467Y-7713984D02*
X16986848Y-7713984D01*
X16986848Y-7713984D02*
X16967801Y-7704460D01*
X16967801Y-7704460D02*
X16958277Y-7685412D01*
X16958277Y-7685412D02*
X16958277Y-7666365D01*
X16958277Y-7666365D02*
X16967801Y-7647317D01*
X16967801Y-7647317D02*
X16986848Y-7637793D01*
X16986848Y-7637793D02*
X17034467Y-7637793D01*
X17034467Y-7637793D02*
X17053515Y-7628269D01*
X17148753Y-7580650D02*
X17148753Y-7780650D01*
X17148753Y-7590174D02*
X17167801Y-7580650D01*
X17167801Y-7580650D02*
X17205896Y-7580650D01*
X17205896Y-7580650D02*
X17224944Y-7590174D01*
X17224944Y-7590174D02*
X17234467Y-7599698D01*
X17234467Y-7599698D02*
X17243991Y-7618746D01*
X17243991Y-7618746D02*
X17243991Y-7675888D01*
X17243991Y-7675888D02*
X17234467Y-7694936D01*
X17234467Y-7694936D02*
X17224944Y-7704460D01*
X17224944Y-7704460D02*
X17205896Y-7713984D01*
X17205896Y-7713984D02*
X17167801Y-7713984D01*
X17167801Y-7713984D02*
X17148753Y-7704460D01*
X17329705Y-7694936D02*
X17339229Y-7704460D01*
X17339229Y-7704460D02*
X17329705Y-7713984D01*
X17329705Y-7713984D02*
X17320182Y-7704460D01*
X17320182Y-7704460D02*
X17329705Y-7694936D01*
X17329705Y-7694936D02*
X17329705Y-7713984D01*
X17329705Y-7590174D02*
X17339229Y-7599698D01*
X17339229Y-7599698D02*
X17329705Y-7609222D01*
X17329705Y-7609222D02*
X17320182Y-7599698D01*
X17320182Y-7599698D02*
X17329705Y-7590174D01*
X17329705Y-7590174D02*
X17329705Y-7609222D01*
D12*
X15647500Y-8017500D02*
X15697500Y-8067500D01*
X15697500Y-8017500D02*
X15647500Y-8067500D01*
D11*
X15996372Y-7933984D02*
X16015420Y-7933984D01*
X16015420Y-7933984D02*
X16034467Y-7943508D01*
X16034467Y-7943508D02*
X16043991Y-7953031D01*
X16043991Y-7953031D02*
X16053515Y-7972079D01*
X16053515Y-7972079D02*
X16063039Y-8010174D01*
X16063039Y-8010174D02*
X16063039Y-8057793D01*
X16063039Y-8057793D02*
X16053515Y-8095888D01*
X16053515Y-8095888D02*
X16043991Y-8114936D01*
X16043991Y-8114936D02*
X16034467Y-8124460D01*
X16034467Y-8124460D02*
X16015420Y-8133984D01*
X16015420Y-8133984D02*
X15996372Y-8133984D01*
X15996372Y-8133984D02*
X15977324Y-8124460D01*
X15977324Y-8124460D02*
X15967801Y-8114936D01*
X15967801Y-8114936D02*
X15958277Y-8095888D01*
X15958277Y-8095888D02*
X15948753Y-8057793D01*
X15948753Y-8057793D02*
X15948753Y-8010174D01*
X15948753Y-8010174D02*
X15958277Y-7972079D01*
X15958277Y-7972079D02*
X15967801Y-7953031D01*
X15967801Y-7953031D02*
X15977324Y-7943508D01*
X15977324Y-7943508D02*
X15996372Y-7933984D01*
X16148753Y-8114936D02*
X16158277Y-8124460D01*
X16158277Y-8124460D02*
X16148753Y-8133984D01*
X16148753Y-8133984D02*
X16139229Y-8124460D01*
X16139229Y-8124460D02*
X16148753Y-8114936D01*
X16148753Y-8114936D02*
X16148753Y-8133984D01*
X16339229Y-7933984D02*
X16243991Y-7933984D01*
X16243991Y-7933984D02*
X16234467Y-8029222D01*
X16234467Y-8029222D02*
X16243991Y-8019698D01*
X16243991Y-8019698D02*
X16263039Y-8010174D01*
X16263039Y-8010174D02*
X16310658Y-8010174D01*
X16310658Y-8010174D02*
X16329705Y-8019698D01*
X16329705Y-8019698D02*
X16339229Y-8029222D01*
X16339229Y-8029222D02*
X16348753Y-8048269D01*
X16348753Y-8048269D02*
X16348753Y-8095888D01*
X16348753Y-8095888D02*
X16339229Y-8114936D01*
X16339229Y-8114936D02*
X16329705Y-8124460D01*
X16329705Y-8124460D02*
X16310658Y-8133984D01*
X16310658Y-8133984D02*
X16263039Y-8133984D01*
X16263039Y-8133984D02*
X16243991Y-8124460D01*
X16243991Y-8124460D02*
X16234467Y-8114936D01*
X16472562Y-7933984D02*
X16491610Y-7933984D01*
X16491610Y-7933984D02*
X16510658Y-7943508D01*
X16510658Y-7943508D02*
X16520182Y-7953031D01*
X16520182Y-7953031D02*
X16529705Y-7972079D01*
X16529705Y-7972079D02*
X16539229Y-8010174D01*
X16539229Y-8010174D02*
X16539229Y-8057793D01*
X16539229Y-8057793D02*
X16529705Y-8095888D01*
X16529705Y-8095888D02*
X16520182Y-8114936D01*
X16520182Y-8114936D02*
X16510658Y-8124460D01*
X16510658Y-8124460D02*
X16491610Y-8133984D01*
X16491610Y-8133984D02*
X16472562Y-8133984D01*
X16472562Y-8133984D02*
X16453515Y-8124460D01*
X16453515Y-8124460D02*
X16443991Y-8114936D01*
X16443991Y-8114936D02*
X16434467Y-8095888D01*
X16434467Y-8095888D02*
X16424943Y-8057793D01*
X16424943Y-8057793D02*
X16424943Y-8010174D01*
X16424943Y-8010174D02*
X16434467Y-7972079D01*
X16434467Y-7972079D02*
X16443991Y-7953031D01*
X16443991Y-7953031D02*
X16453515Y-7943508D01*
X16453515Y-7943508D02*
X16472562Y-7933984D01*
X16663039Y-7933984D02*
X16682086Y-7933984D01*
X16682086Y-7933984D02*
X16701134Y-7943508D01*
X16701134Y-7943508D02*
X16710658Y-7953031D01*
X16710658Y-7953031D02*
X16720182Y-7972079D01*
X16720182Y-7972079D02*
X16729705Y-8010174D01*
X16729705Y-8010174D02*
X16729705Y-8057793D01*
X16729705Y-8057793D02*
X16720182Y-8095888D01*
X16720182Y-8095888D02*
X16710658Y-8114936D01*
X16710658Y-8114936D02*
X16701134Y-8124460D01*
X16701134Y-8124460D02*
X16682086Y-8133984D01*
X16682086Y-8133984D02*
X16663039Y-8133984D01*
X16663039Y-8133984D02*
X16643991Y-8124460D01*
X16643991Y-8124460D02*
X16634467Y-8114936D01*
X16634467Y-8114936D02*
X16624943Y-8095888D01*
X16624943Y-8095888D02*
X16615420Y-8057793D01*
X16615420Y-8057793D02*
X16615420Y-8010174D01*
X16615420Y-8010174D02*
X16624943Y-7972079D01*
X16624943Y-7972079D02*
X16634467Y-7953031D01*
X16634467Y-7953031D02*
X16643991Y-7943508D01*
X16643991Y-7943508D02*
X16663039Y-7933984D01*
X16815420Y-8133984D02*
X16815420Y-8000650D01*
X16815420Y-8019698D02*
X16824944Y-8010174D01*
X16824944Y-8010174D02*
X16843991Y-8000650D01*
X16843991Y-8000650D02*
X16872563Y-8000650D01*
X16872563Y-8000650D02*
X16891610Y-8010174D01*
X16891610Y-8010174D02*
X16901134Y-8029222D01*
X16901134Y-8029222D02*
X16901134Y-8133984D01*
X16901134Y-8029222D02*
X16910658Y-8010174D01*
X16910658Y-8010174D02*
X16929705Y-8000650D01*
X16929705Y-8000650D02*
X16958277Y-8000650D01*
X16958277Y-8000650D02*
X16977325Y-8010174D01*
X16977325Y-8010174D02*
X16986848Y-8029222D01*
X16986848Y-8029222D02*
X16986848Y-8133984D01*
X17082086Y-8133984D02*
X17082086Y-8000650D01*
X17082086Y-8019698D02*
X17091610Y-8010174D01*
X17091610Y-8010174D02*
X17110658Y-8000650D01*
X17110658Y-8000650D02*
X17139229Y-8000650D01*
X17139229Y-8000650D02*
X17158277Y-8010174D01*
X17158277Y-8010174D02*
X17167801Y-8029222D01*
X17167801Y-8029222D02*
X17167801Y-8133984D01*
X17167801Y-8029222D02*
X17177325Y-8010174D01*
X17177325Y-8010174D02*
X17196372Y-8000650D01*
X17196372Y-8000650D02*
X17224944Y-8000650D01*
X17224944Y-8000650D02*
X17243991Y-8010174D01*
X17243991Y-8010174D02*
X17253515Y-8029222D01*
X17253515Y-8029222D02*
X17253515Y-8133984D01*
X17643991Y-7924460D02*
X17472563Y-8181603D01*
X17901134Y-7933984D02*
X17920182Y-7933984D01*
X17920182Y-7933984D02*
X17939229Y-7943508D01*
X17939229Y-7943508D02*
X17948753Y-7953031D01*
X17948753Y-7953031D02*
X17958277Y-7972079D01*
X17958277Y-7972079D02*
X17967801Y-8010174D01*
X17967801Y-8010174D02*
X17967801Y-8057793D01*
X17967801Y-8057793D02*
X17958277Y-8095888D01*
X17958277Y-8095888D02*
X17948753Y-8114936D01*
X17948753Y-8114936D02*
X17939229Y-8124460D01*
X17939229Y-8124460D02*
X17920182Y-8133984D01*
X17920182Y-8133984D02*
X17901134Y-8133984D01*
X17901134Y-8133984D02*
X17882087Y-8124460D01*
X17882087Y-8124460D02*
X17872563Y-8114936D01*
X17872563Y-8114936D02*
X17863039Y-8095888D01*
X17863039Y-8095888D02*
X17853515Y-8057793D01*
X17853515Y-8057793D02*
X17853515Y-8010174D01*
X17853515Y-8010174D02*
X17863039Y-7972079D01*
X17863039Y-7972079D02*
X17872563Y-7953031D01*
X17872563Y-7953031D02*
X17882087Y-7943508D01*
X17882087Y-7943508D02*
X17901134Y-7933984D01*
X18053515Y-8114936D02*
X18063039Y-8124460D01*
X18063039Y-8124460D02*
X18053515Y-8133984D01*
X18053515Y-8133984D02*
X18043991Y-8124460D01*
X18043991Y-8124460D02*
X18053515Y-8114936D01*
X18053515Y-8114936D02*
X18053515Y-8133984D01*
X18186848Y-7933984D02*
X18205896Y-7933984D01*
X18205896Y-7933984D02*
X18224944Y-7943508D01*
X18224944Y-7943508D02*
X18234468Y-7953031D01*
X18234468Y-7953031D02*
X18243991Y-7972079D01*
X18243991Y-7972079D02*
X18253515Y-8010174D01*
X18253515Y-8010174D02*
X18253515Y-8057793D01*
X18253515Y-8057793D02*
X18243991Y-8095888D01*
X18243991Y-8095888D02*
X18234468Y-8114936D01*
X18234468Y-8114936D02*
X18224944Y-8124460D01*
X18224944Y-8124460D02*
X18205896Y-8133984D01*
X18205896Y-8133984D02*
X18186848Y-8133984D01*
X18186848Y-8133984D02*
X18167801Y-8124460D01*
X18167801Y-8124460D02*
X18158277Y-8114936D01*
X18158277Y-8114936D02*
X18148753Y-8095888D01*
X18148753Y-8095888D02*
X18139229Y-8057793D01*
X18139229Y-8057793D02*
X18139229Y-8010174D01*
X18139229Y-8010174D02*
X18148753Y-7972079D01*
X18148753Y-7972079D02*
X18158277Y-7953031D01*
X18158277Y-7953031D02*
X18167801Y-7943508D01*
X18167801Y-7943508D02*
X18186848Y-7933984D01*
X18443991Y-8133984D02*
X18329706Y-8133984D01*
X18386848Y-8133984D02*
X18386848Y-7933984D01*
X18386848Y-7933984D02*
X18367801Y-7962555D01*
X18367801Y-7962555D02*
X18348753Y-7981603D01*
X18348753Y-7981603D02*
X18329706Y-7991127D01*
X18539229Y-8133984D02*
X18577325Y-8133984D01*
X18577325Y-8133984D02*
X18596372Y-8124460D01*
X18596372Y-8124460D02*
X18605896Y-8114936D01*
X18605896Y-8114936D02*
X18624944Y-8086365D01*
X18624944Y-8086365D02*
X18634468Y-8048269D01*
X18634468Y-8048269D02*
X18634468Y-7972079D01*
X18634468Y-7972079D02*
X18624944Y-7953031D01*
X18624944Y-7953031D02*
X18615420Y-7943508D01*
X18615420Y-7943508D02*
X18596372Y-7933984D01*
X18596372Y-7933984D02*
X18558277Y-7933984D01*
X18558277Y-7933984D02*
X18539229Y-7943508D01*
X18539229Y-7943508D02*
X18529706Y-7953031D01*
X18529706Y-7953031D02*
X18520182Y-7972079D01*
X18520182Y-7972079D02*
X18520182Y-8019698D01*
X18520182Y-8019698D02*
X18529706Y-8038746D01*
X18529706Y-8038746D02*
X18539229Y-8048269D01*
X18539229Y-8048269D02*
X18558277Y-8057793D01*
X18558277Y-8057793D02*
X18596372Y-8057793D01*
X18596372Y-8057793D02*
X18615420Y-8048269D01*
X18615420Y-8048269D02*
X18624944Y-8038746D01*
X18624944Y-8038746D02*
X18634468Y-8019698D01*
X18701134Y-7933984D02*
X18834468Y-7933984D01*
X18834468Y-7933984D02*
X18748753Y-8133984D01*
X18901134Y-7933984D02*
X18901134Y-7972079D01*
X18977325Y-7933984D02*
X18977325Y-7972079D01*
X19272563Y-8210174D02*
X19263039Y-8200650D01*
X19263039Y-8200650D02*
X19243991Y-8172079D01*
X19243991Y-8172079D02*
X19234468Y-8153031D01*
X19234468Y-8153031D02*
X19224944Y-8124460D01*
X19224944Y-8124460D02*
X19215420Y-8076841D01*
X19215420Y-8076841D02*
X19215420Y-8038746D01*
X19215420Y-8038746D02*
X19224944Y-7991127D01*
X19224944Y-7991127D02*
X19234468Y-7962555D01*
X19234468Y-7962555D02*
X19243991Y-7943508D01*
X19243991Y-7943508D02*
X19263039Y-7914936D01*
X19263039Y-7914936D02*
X19272563Y-7905412D01*
X19453515Y-8133984D02*
X19339230Y-8133984D01*
X19396372Y-8133984D02*
X19396372Y-7933984D01*
X19396372Y-7933984D02*
X19377325Y-7962555D01*
X19377325Y-7962555D02*
X19358277Y-7981603D01*
X19358277Y-7981603D02*
X19339230Y-7991127D01*
X19643991Y-8133984D02*
X19529706Y-8133984D01*
X19586849Y-8133984D02*
X19586849Y-7933984D01*
X19586849Y-7933984D02*
X19567801Y-7962555D01*
X19567801Y-7962555D02*
X19548753Y-7981603D01*
X19548753Y-7981603D02*
X19529706Y-7991127D01*
X19882087Y-8133984D02*
X19882087Y-7933984D01*
X19967801Y-8133984D02*
X19967801Y-8029222D01*
X19967801Y-8029222D02*
X19958277Y-8010174D01*
X19958277Y-8010174D02*
X19939230Y-8000650D01*
X19939230Y-8000650D02*
X19910658Y-8000650D01*
X19910658Y-8000650D02*
X19891611Y-8010174D01*
X19891611Y-8010174D02*
X19882087Y-8019698D01*
X20091611Y-8133984D02*
X20072563Y-8124460D01*
X20072563Y-8124460D02*
X20063039Y-8114936D01*
X20063039Y-8114936D02*
X20053515Y-8095888D01*
X20053515Y-8095888D02*
X20053515Y-8038746D01*
X20053515Y-8038746D02*
X20063039Y-8019698D01*
X20063039Y-8019698D02*
X20072563Y-8010174D01*
X20072563Y-8010174D02*
X20091611Y-8000650D01*
X20091611Y-8000650D02*
X20120182Y-8000650D01*
X20120182Y-8000650D02*
X20139230Y-8010174D01*
X20139230Y-8010174D02*
X20148753Y-8019698D01*
X20148753Y-8019698D02*
X20158277Y-8038746D01*
X20158277Y-8038746D02*
X20158277Y-8095888D01*
X20158277Y-8095888D02*
X20148753Y-8114936D01*
X20148753Y-8114936D02*
X20139230Y-8124460D01*
X20139230Y-8124460D02*
X20120182Y-8133984D01*
X20120182Y-8133984D02*
X20091611Y-8133984D01*
X20272563Y-8133984D02*
X20253515Y-8124460D01*
X20253515Y-8124460D02*
X20243992Y-8105412D01*
X20243992Y-8105412D02*
X20243992Y-7933984D01*
X20424944Y-8124460D02*
X20405896Y-8133984D01*
X20405896Y-8133984D02*
X20367801Y-8133984D01*
X20367801Y-8133984D02*
X20348753Y-8124460D01*
X20348753Y-8124460D02*
X20339230Y-8105412D01*
X20339230Y-8105412D02*
X20339230Y-8029222D01*
X20339230Y-8029222D02*
X20348753Y-8010174D01*
X20348753Y-8010174D02*
X20367801Y-8000650D01*
X20367801Y-8000650D02*
X20405896Y-8000650D01*
X20405896Y-8000650D02*
X20424944Y-8010174D01*
X20424944Y-8010174D02*
X20434468Y-8029222D01*
X20434468Y-8029222D02*
X20434468Y-8048269D01*
X20434468Y-8048269D02*
X20339230Y-8067317D01*
X20510658Y-8124460D02*
X20529706Y-8133984D01*
X20529706Y-8133984D02*
X20567801Y-8133984D01*
X20567801Y-8133984D02*
X20586849Y-8124460D01*
X20586849Y-8124460D02*
X20596373Y-8105412D01*
X20596373Y-8105412D02*
X20596373Y-8095888D01*
X20596373Y-8095888D02*
X20586849Y-8076841D01*
X20586849Y-8076841D02*
X20567801Y-8067317D01*
X20567801Y-8067317D02*
X20539230Y-8067317D01*
X20539230Y-8067317D02*
X20520182Y-8057793D01*
X20520182Y-8057793D02*
X20510658Y-8038746D01*
X20510658Y-8038746D02*
X20510658Y-8029222D01*
X20510658Y-8029222D02*
X20520182Y-8010174D01*
X20520182Y-8010174D02*
X20539230Y-8000650D01*
X20539230Y-8000650D02*
X20567801Y-8000650D01*
X20567801Y-8000650D02*
X20586849Y-8010174D01*
X20663039Y-8210174D02*
X20672563Y-8200650D01*
X20672563Y-8200650D02*
X20691611Y-8172079D01*
X20691611Y-8172079D02*
X20701134Y-8153031D01*
X20701134Y-8153031D02*
X20710658Y-8124460D01*
X20710658Y-8124460D02*
X20720182Y-8076841D01*
X20720182Y-8076841D02*
X20720182Y-8038746D01*
X20720182Y-8038746D02*
X20710658Y-7991127D01*
X20710658Y-7991127D02*
X20701134Y-7962555D01*
X20701134Y-7962555D02*
X20691611Y-7943508D01*
X20691611Y-7943508D02*
X20672563Y-7914936D01*
X20672563Y-7914936D02*
X20663039Y-7905412D01*
D12*
X15697500Y-8306500D02*
G75*
G02*
X15597500Y-8306500I-50000J0D01*
G01*
X15597500Y-8306500D02*
G75*
G02*
X15697500Y-8306500I50000J0D01*
G01*
D11*
X16063039Y-8397984D02*
X15948753Y-8397984D01*
X16005896Y-8397984D02*
X16005896Y-8197984D01*
X16005896Y-8197984D02*
X15986848Y-8226555D01*
X15986848Y-8226555D02*
X15967801Y-8245603D01*
X15967801Y-8245603D02*
X15948753Y-8255127D01*
X16148753Y-8378936D02*
X16158277Y-8388460D01*
X16158277Y-8388460D02*
X16148753Y-8397984D01*
X16148753Y-8397984D02*
X16139229Y-8388460D01*
X16139229Y-8388460D02*
X16148753Y-8378936D01*
X16148753Y-8378936D02*
X16148753Y-8397984D01*
X16282086Y-8197984D02*
X16301134Y-8197984D01*
X16301134Y-8197984D02*
X16320182Y-8207508D01*
X16320182Y-8207508D02*
X16329705Y-8217031D01*
X16329705Y-8217031D02*
X16339229Y-8236079D01*
X16339229Y-8236079D02*
X16348753Y-8274174D01*
X16348753Y-8274174D02*
X16348753Y-8321793D01*
X16348753Y-8321793D02*
X16339229Y-8359888D01*
X16339229Y-8359888D02*
X16329705Y-8378936D01*
X16329705Y-8378936D02*
X16320182Y-8388460D01*
X16320182Y-8388460D02*
X16301134Y-8397984D01*
X16301134Y-8397984D02*
X16282086Y-8397984D01*
X16282086Y-8397984D02*
X16263039Y-8388460D01*
X16263039Y-8388460D02*
X16253515Y-8378936D01*
X16253515Y-8378936D02*
X16243991Y-8359888D01*
X16243991Y-8359888D02*
X16234467Y-8321793D01*
X16234467Y-8321793D02*
X16234467Y-8274174D01*
X16234467Y-8274174D02*
X16243991Y-8236079D01*
X16243991Y-8236079D02*
X16253515Y-8217031D01*
X16253515Y-8217031D02*
X16263039Y-8207508D01*
X16263039Y-8207508D02*
X16282086Y-8197984D01*
X16472562Y-8197984D02*
X16491610Y-8197984D01*
X16491610Y-8197984D02*
X16510658Y-8207508D01*
X16510658Y-8207508D02*
X16520182Y-8217031D01*
X16520182Y-8217031D02*
X16529705Y-8236079D01*
X16529705Y-8236079D02*
X16539229Y-8274174D01*
X16539229Y-8274174D02*
X16539229Y-8321793D01*
X16539229Y-8321793D02*
X16529705Y-8359888D01*
X16529705Y-8359888D02*
X16520182Y-8378936D01*
X16520182Y-8378936D02*
X16510658Y-8388460D01*
X16510658Y-8388460D02*
X16491610Y-8397984D01*
X16491610Y-8397984D02*
X16472562Y-8397984D01*
X16472562Y-8397984D02*
X16453515Y-8388460D01*
X16453515Y-8388460D02*
X16443991Y-8378936D01*
X16443991Y-8378936D02*
X16434467Y-8359888D01*
X16434467Y-8359888D02*
X16424943Y-8321793D01*
X16424943Y-8321793D02*
X16424943Y-8274174D01*
X16424943Y-8274174D02*
X16434467Y-8236079D01*
X16434467Y-8236079D02*
X16443991Y-8217031D01*
X16443991Y-8217031D02*
X16453515Y-8207508D01*
X16453515Y-8207508D02*
X16472562Y-8197984D01*
X16663039Y-8197984D02*
X16682086Y-8197984D01*
X16682086Y-8197984D02*
X16701134Y-8207508D01*
X16701134Y-8207508D02*
X16710658Y-8217031D01*
X16710658Y-8217031D02*
X16720182Y-8236079D01*
X16720182Y-8236079D02*
X16729705Y-8274174D01*
X16729705Y-8274174D02*
X16729705Y-8321793D01*
X16729705Y-8321793D02*
X16720182Y-8359888D01*
X16720182Y-8359888D02*
X16710658Y-8378936D01*
X16710658Y-8378936D02*
X16701134Y-8388460D01*
X16701134Y-8388460D02*
X16682086Y-8397984D01*
X16682086Y-8397984D02*
X16663039Y-8397984D01*
X16663039Y-8397984D02*
X16643991Y-8388460D01*
X16643991Y-8388460D02*
X16634467Y-8378936D01*
X16634467Y-8378936D02*
X16624943Y-8359888D01*
X16624943Y-8359888D02*
X16615420Y-8321793D01*
X16615420Y-8321793D02*
X16615420Y-8274174D01*
X16615420Y-8274174D02*
X16624943Y-8236079D01*
X16624943Y-8236079D02*
X16634467Y-8217031D01*
X16634467Y-8217031D02*
X16643991Y-8207508D01*
X16643991Y-8207508D02*
X16663039Y-8197984D01*
X16815420Y-8397984D02*
X16815420Y-8264650D01*
X16815420Y-8283698D02*
X16824944Y-8274174D01*
X16824944Y-8274174D02*
X16843991Y-8264650D01*
X16843991Y-8264650D02*
X16872563Y-8264650D01*
X16872563Y-8264650D02*
X16891610Y-8274174D01*
X16891610Y-8274174D02*
X16901134Y-8293222D01*
X16901134Y-8293222D02*
X16901134Y-8397984D01*
X16901134Y-8293222D02*
X16910658Y-8274174D01*
X16910658Y-8274174D02*
X16929705Y-8264650D01*
X16929705Y-8264650D02*
X16958277Y-8264650D01*
X16958277Y-8264650D02*
X16977325Y-8274174D01*
X16977325Y-8274174D02*
X16986848Y-8293222D01*
X16986848Y-8293222D02*
X16986848Y-8397984D01*
X17082086Y-8397984D02*
X17082086Y-8264650D01*
X17082086Y-8283698D02*
X17091610Y-8274174D01*
X17091610Y-8274174D02*
X17110658Y-8264650D01*
X17110658Y-8264650D02*
X17139229Y-8264650D01*
X17139229Y-8264650D02*
X17158277Y-8274174D01*
X17158277Y-8274174D02*
X17167801Y-8293222D01*
X17167801Y-8293222D02*
X17167801Y-8397984D01*
X17167801Y-8293222D02*
X17177325Y-8274174D01*
X17177325Y-8274174D02*
X17196372Y-8264650D01*
X17196372Y-8264650D02*
X17224944Y-8264650D01*
X17224944Y-8264650D02*
X17243991Y-8274174D01*
X17243991Y-8274174D02*
X17253515Y-8293222D01*
X17253515Y-8293222D02*
X17253515Y-8397984D01*
X17643991Y-8188460D02*
X17472563Y-8445603D01*
X17901134Y-8197984D02*
X17920182Y-8197984D01*
X17920182Y-8197984D02*
X17939229Y-8207508D01*
X17939229Y-8207508D02*
X17948753Y-8217031D01*
X17948753Y-8217031D02*
X17958277Y-8236079D01*
X17958277Y-8236079D02*
X17967801Y-8274174D01*
X17967801Y-8274174D02*
X17967801Y-8321793D01*
X17967801Y-8321793D02*
X17958277Y-8359888D01*
X17958277Y-8359888D02*
X17948753Y-8378936D01*
X17948753Y-8378936D02*
X17939229Y-8388460D01*
X17939229Y-8388460D02*
X17920182Y-8397984D01*
X17920182Y-8397984D02*
X17901134Y-8397984D01*
X17901134Y-8397984D02*
X17882087Y-8388460D01*
X17882087Y-8388460D02*
X17872563Y-8378936D01*
X17872563Y-8378936D02*
X17863039Y-8359888D01*
X17863039Y-8359888D02*
X17853515Y-8321793D01*
X17853515Y-8321793D02*
X17853515Y-8274174D01*
X17853515Y-8274174D02*
X17863039Y-8236079D01*
X17863039Y-8236079D02*
X17872563Y-8217031D01*
X17872563Y-8217031D02*
X17882087Y-8207508D01*
X17882087Y-8207508D02*
X17901134Y-8197984D01*
X18053515Y-8378936D02*
X18063039Y-8388460D01*
X18063039Y-8388460D02*
X18053515Y-8397984D01*
X18053515Y-8397984D02*
X18043991Y-8388460D01*
X18043991Y-8388460D02*
X18053515Y-8378936D01*
X18053515Y-8378936D02*
X18053515Y-8397984D01*
X18186848Y-8197984D02*
X18205896Y-8197984D01*
X18205896Y-8197984D02*
X18224944Y-8207508D01*
X18224944Y-8207508D02*
X18234468Y-8217031D01*
X18234468Y-8217031D02*
X18243991Y-8236079D01*
X18243991Y-8236079D02*
X18253515Y-8274174D01*
X18253515Y-8274174D02*
X18253515Y-8321793D01*
X18253515Y-8321793D02*
X18243991Y-8359888D01*
X18243991Y-8359888D02*
X18234468Y-8378936D01*
X18234468Y-8378936D02*
X18224944Y-8388460D01*
X18224944Y-8388460D02*
X18205896Y-8397984D01*
X18205896Y-8397984D02*
X18186848Y-8397984D01*
X18186848Y-8397984D02*
X18167801Y-8388460D01*
X18167801Y-8388460D02*
X18158277Y-8378936D01*
X18158277Y-8378936D02*
X18148753Y-8359888D01*
X18148753Y-8359888D02*
X18139229Y-8321793D01*
X18139229Y-8321793D02*
X18139229Y-8274174D01*
X18139229Y-8274174D02*
X18148753Y-8236079D01*
X18148753Y-8236079D02*
X18158277Y-8217031D01*
X18158277Y-8217031D02*
X18167801Y-8207508D01*
X18167801Y-8207508D02*
X18186848Y-8197984D01*
X18320182Y-8197984D02*
X18443991Y-8197984D01*
X18443991Y-8197984D02*
X18377325Y-8274174D01*
X18377325Y-8274174D02*
X18405896Y-8274174D01*
X18405896Y-8274174D02*
X18424944Y-8283698D01*
X18424944Y-8283698D02*
X18434468Y-8293222D01*
X18434468Y-8293222D02*
X18443991Y-8312269D01*
X18443991Y-8312269D02*
X18443991Y-8359888D01*
X18443991Y-8359888D02*
X18434468Y-8378936D01*
X18434468Y-8378936D02*
X18424944Y-8388460D01*
X18424944Y-8388460D02*
X18405896Y-8397984D01*
X18405896Y-8397984D02*
X18348753Y-8397984D01*
X18348753Y-8397984D02*
X18329706Y-8388460D01*
X18329706Y-8388460D02*
X18320182Y-8378936D01*
X18539229Y-8397984D02*
X18577325Y-8397984D01*
X18577325Y-8397984D02*
X18596372Y-8388460D01*
X18596372Y-8388460D02*
X18605896Y-8378936D01*
X18605896Y-8378936D02*
X18624944Y-8350365D01*
X18624944Y-8350365D02*
X18634468Y-8312269D01*
X18634468Y-8312269D02*
X18634468Y-8236079D01*
X18634468Y-8236079D02*
X18624944Y-8217031D01*
X18624944Y-8217031D02*
X18615420Y-8207508D01*
X18615420Y-8207508D02*
X18596372Y-8197984D01*
X18596372Y-8197984D02*
X18558277Y-8197984D01*
X18558277Y-8197984D02*
X18539229Y-8207508D01*
X18539229Y-8207508D02*
X18529706Y-8217031D01*
X18529706Y-8217031D02*
X18520182Y-8236079D01*
X18520182Y-8236079D02*
X18520182Y-8283698D01*
X18520182Y-8283698D02*
X18529706Y-8302746D01*
X18529706Y-8302746D02*
X18539229Y-8312269D01*
X18539229Y-8312269D02*
X18558277Y-8321793D01*
X18558277Y-8321793D02*
X18596372Y-8321793D01*
X18596372Y-8321793D02*
X18615420Y-8312269D01*
X18615420Y-8312269D02*
X18624944Y-8302746D01*
X18624944Y-8302746D02*
X18634468Y-8283698D01*
X18805896Y-8264650D02*
X18805896Y-8397984D01*
X18758277Y-8188460D02*
X18710658Y-8331317D01*
X18710658Y-8331317D02*
X18834468Y-8331317D01*
X18901134Y-8197984D02*
X18901134Y-8236079D01*
X18977325Y-8197984D02*
X18977325Y-8236079D01*
X19272563Y-8474174D02*
X19263039Y-8464650D01*
X19263039Y-8464650D02*
X19243991Y-8436079D01*
X19243991Y-8436079D02*
X19234468Y-8417031D01*
X19234468Y-8417031D02*
X19224944Y-8388460D01*
X19224944Y-8388460D02*
X19215420Y-8340841D01*
X19215420Y-8340841D02*
X19215420Y-8302746D01*
X19215420Y-8302746D02*
X19224944Y-8255127D01*
X19224944Y-8255127D02*
X19234468Y-8226555D01*
X19234468Y-8226555D02*
X19243991Y-8207508D01*
X19243991Y-8207508D02*
X19263039Y-8178936D01*
X19263039Y-8178936D02*
X19272563Y-8169412D01*
X19386849Y-8197984D02*
X19405896Y-8197984D01*
X19405896Y-8197984D02*
X19424944Y-8207508D01*
X19424944Y-8207508D02*
X19434468Y-8217031D01*
X19434468Y-8217031D02*
X19443991Y-8236079D01*
X19443991Y-8236079D02*
X19453515Y-8274174D01*
X19453515Y-8274174D02*
X19453515Y-8321793D01*
X19453515Y-8321793D02*
X19443991Y-8359888D01*
X19443991Y-8359888D02*
X19434468Y-8378936D01*
X19434468Y-8378936D02*
X19424944Y-8388460D01*
X19424944Y-8388460D02*
X19405896Y-8397984D01*
X19405896Y-8397984D02*
X19386849Y-8397984D01*
X19386849Y-8397984D02*
X19367801Y-8388460D01*
X19367801Y-8388460D02*
X19358277Y-8378936D01*
X19358277Y-8378936D02*
X19348753Y-8359888D01*
X19348753Y-8359888D02*
X19339230Y-8321793D01*
X19339230Y-8321793D02*
X19339230Y-8274174D01*
X19339230Y-8274174D02*
X19348753Y-8236079D01*
X19348753Y-8236079D02*
X19358277Y-8217031D01*
X19358277Y-8217031D02*
X19367801Y-8207508D01*
X19367801Y-8207508D02*
X19386849Y-8197984D01*
X19691611Y-8397984D02*
X19691611Y-8197984D01*
X19777325Y-8397984D02*
X19777325Y-8293222D01*
X19777325Y-8293222D02*
X19767801Y-8274174D01*
X19767801Y-8274174D02*
X19748753Y-8264650D01*
X19748753Y-8264650D02*
X19720182Y-8264650D01*
X19720182Y-8264650D02*
X19701134Y-8274174D01*
X19701134Y-8274174D02*
X19691611Y-8283698D01*
X19901134Y-8397984D02*
X19882087Y-8388460D01*
X19882087Y-8388460D02*
X19872563Y-8378936D01*
X19872563Y-8378936D02*
X19863039Y-8359888D01*
X19863039Y-8359888D02*
X19863039Y-8302746D01*
X19863039Y-8302746D02*
X19872563Y-8283698D01*
X19872563Y-8283698D02*
X19882087Y-8274174D01*
X19882087Y-8274174D02*
X19901134Y-8264650D01*
X19901134Y-8264650D02*
X19929706Y-8264650D01*
X19929706Y-8264650D02*
X19948753Y-8274174D01*
X19948753Y-8274174D02*
X19958277Y-8283698D01*
X19958277Y-8283698D02*
X19967801Y-8302746D01*
X19967801Y-8302746D02*
X19967801Y-8359888D01*
X19967801Y-8359888D02*
X19958277Y-8378936D01*
X19958277Y-8378936D02*
X19948753Y-8388460D01*
X19948753Y-8388460D02*
X19929706Y-8397984D01*
X19929706Y-8397984D02*
X19901134Y-8397984D01*
X20082087Y-8397984D02*
X20063039Y-8388460D01*
X20063039Y-8388460D02*
X20053515Y-8369412D01*
X20053515Y-8369412D02*
X20053515Y-8197984D01*
X20234468Y-8388460D02*
X20215420Y-8397984D01*
X20215420Y-8397984D02*
X20177325Y-8397984D01*
X20177325Y-8397984D02*
X20158277Y-8388460D01*
X20158277Y-8388460D02*
X20148753Y-8369412D01*
X20148753Y-8369412D02*
X20148753Y-8293222D01*
X20148753Y-8293222D02*
X20158277Y-8274174D01*
X20158277Y-8274174D02*
X20177325Y-8264650D01*
X20177325Y-8264650D02*
X20215420Y-8264650D01*
X20215420Y-8264650D02*
X20234468Y-8274174D01*
X20234468Y-8274174D02*
X20243992Y-8293222D01*
X20243992Y-8293222D02*
X20243992Y-8312269D01*
X20243992Y-8312269D02*
X20148753Y-8331317D01*
X20320182Y-8388460D02*
X20339230Y-8397984D01*
X20339230Y-8397984D02*
X20377325Y-8397984D01*
X20377325Y-8397984D02*
X20396373Y-8388460D01*
X20396373Y-8388460D02*
X20405896Y-8369412D01*
X20405896Y-8369412D02*
X20405896Y-8359888D01*
X20405896Y-8359888D02*
X20396373Y-8340841D01*
X20396373Y-8340841D02*
X20377325Y-8331317D01*
X20377325Y-8331317D02*
X20348753Y-8331317D01*
X20348753Y-8331317D02*
X20329706Y-8321793D01*
X20329706Y-8321793D02*
X20320182Y-8302746D01*
X20320182Y-8302746D02*
X20320182Y-8293222D01*
X20320182Y-8293222D02*
X20329706Y-8274174D01*
X20329706Y-8274174D02*
X20348753Y-8264650D01*
X20348753Y-8264650D02*
X20377325Y-8264650D01*
X20377325Y-8264650D02*
X20396373Y-8274174D01*
X20643992Y-8321793D02*
X20796373Y-8321793D01*
X20720182Y-8397984D02*
X20720182Y-8245603D01*
X21034468Y-8217031D02*
X21043992Y-8207508D01*
X21043992Y-8207508D02*
X21063039Y-8197984D01*
X21063039Y-8197984D02*
X21110658Y-8197984D01*
X21110658Y-8197984D02*
X21129706Y-8207508D01*
X21129706Y-8207508D02*
X21139230Y-8217031D01*
X21139230Y-8217031D02*
X21148754Y-8236079D01*
X21148754Y-8236079D02*
X21148754Y-8255127D01*
X21148754Y-8255127D02*
X21139230Y-8283698D01*
X21139230Y-8283698D02*
X21024944Y-8397984D01*
X21024944Y-8397984D02*
X21148754Y-8397984D01*
X21320182Y-8264650D02*
X21320182Y-8397984D01*
X21272563Y-8188460D02*
X21224944Y-8331317D01*
X21224944Y-8331317D02*
X21348754Y-8331317D01*
X21567801Y-8388460D02*
X21586849Y-8397984D01*
X21586849Y-8397984D02*
X21624944Y-8397984D01*
X21624944Y-8397984D02*
X21643992Y-8388460D01*
X21643992Y-8388460D02*
X21653516Y-8369412D01*
X21653516Y-8369412D02*
X21653516Y-8359888D01*
X21653516Y-8359888D02*
X21643992Y-8340841D01*
X21643992Y-8340841D02*
X21624944Y-8331317D01*
X21624944Y-8331317D02*
X21596373Y-8331317D01*
X21596373Y-8331317D02*
X21577325Y-8321793D01*
X21577325Y-8321793D02*
X21567801Y-8302746D01*
X21567801Y-8302746D02*
X21567801Y-8293222D01*
X21567801Y-8293222D02*
X21577325Y-8274174D01*
X21577325Y-8274174D02*
X21596373Y-8264650D01*
X21596373Y-8264650D02*
X21624944Y-8264650D01*
X21624944Y-8264650D02*
X21643992Y-8274174D01*
X21767801Y-8397984D02*
X21748754Y-8388460D01*
X21748754Y-8388460D02*
X21739230Y-8369412D01*
X21739230Y-8369412D02*
X21739230Y-8197984D01*
X21872563Y-8397984D02*
X21853516Y-8388460D01*
X21853516Y-8388460D02*
X21843992Y-8378936D01*
X21843992Y-8378936D02*
X21834468Y-8359888D01*
X21834468Y-8359888D02*
X21834468Y-8302746D01*
X21834468Y-8302746D02*
X21843992Y-8283698D01*
X21843992Y-8283698D02*
X21853516Y-8274174D01*
X21853516Y-8274174D02*
X21872563Y-8264650D01*
X21872563Y-8264650D02*
X21901135Y-8264650D01*
X21901135Y-8264650D02*
X21920182Y-8274174D01*
X21920182Y-8274174D02*
X21929706Y-8283698D01*
X21929706Y-8283698D02*
X21939230Y-8302746D01*
X21939230Y-8302746D02*
X21939230Y-8359888D01*
X21939230Y-8359888D02*
X21929706Y-8378936D01*
X21929706Y-8378936D02*
X21920182Y-8388460D01*
X21920182Y-8388460D02*
X21901135Y-8397984D01*
X21901135Y-8397984D02*
X21872563Y-8397984D01*
X21996373Y-8264650D02*
X22072563Y-8264650D01*
X22024944Y-8197984D02*
X22024944Y-8369412D01*
X22024944Y-8369412D02*
X22034468Y-8388460D01*
X22034468Y-8388460D02*
X22053516Y-8397984D01*
X22053516Y-8397984D02*
X22072563Y-8397984D01*
X22129706Y-8388460D02*
X22148754Y-8397984D01*
X22148754Y-8397984D02*
X22186849Y-8397984D01*
X22186849Y-8397984D02*
X22205897Y-8388460D01*
X22205897Y-8388460D02*
X22215420Y-8369412D01*
X22215420Y-8369412D02*
X22215420Y-8359888D01*
X22215420Y-8359888D02*
X22205897Y-8340841D01*
X22205897Y-8340841D02*
X22186849Y-8331317D01*
X22186849Y-8331317D02*
X22158277Y-8331317D01*
X22158277Y-8331317D02*
X22139230Y-8321793D01*
X22139230Y-8321793D02*
X22129706Y-8302746D01*
X22129706Y-8302746D02*
X22129706Y-8293222D01*
X22129706Y-8293222D02*
X22139230Y-8274174D01*
X22139230Y-8274174D02*
X22158277Y-8264650D01*
X22158277Y-8264650D02*
X22186849Y-8264650D01*
X22186849Y-8264650D02*
X22205897Y-8274174D01*
X22282087Y-8474174D02*
X22291611Y-8464650D01*
X22291611Y-8464650D02*
X22310658Y-8436079D01*
X22310658Y-8436079D02*
X22320182Y-8417031D01*
X22320182Y-8417031D02*
X22329706Y-8388460D01*
X22329706Y-8388460D02*
X22339230Y-8340841D01*
X22339230Y-8340841D02*
X22339230Y-8302746D01*
X22339230Y-8302746D02*
X22329706Y-8255127D01*
X22329706Y-8255127D02*
X22320182Y-8226555D01*
X22320182Y-8226555D02*
X22310658Y-8207508D01*
X22310658Y-8207508D02*
X22291611Y-8178936D01*
X22291611Y-8178936D02*
X22282087Y-8169412D01*
D13*
X15637500Y-8510500D02*
X15637500Y-8630500D01*
X15577500Y-8570500D02*
X15697500Y-8570500D01*
D11*
X16063039Y-8661984D02*
X15948753Y-8661984D01*
X16005896Y-8661984D02*
X16005896Y-8461984D01*
X16005896Y-8461984D02*
X15986848Y-8490555D01*
X15986848Y-8490555D02*
X15967801Y-8509603D01*
X15967801Y-8509603D02*
X15948753Y-8519127D01*
X16148753Y-8642936D02*
X16158277Y-8652460D01*
X16158277Y-8652460D02*
X16148753Y-8661984D01*
X16148753Y-8661984D02*
X16139229Y-8652460D01*
X16139229Y-8652460D02*
X16148753Y-8642936D01*
X16148753Y-8642936D02*
X16148753Y-8661984D01*
X16234467Y-8481031D02*
X16243991Y-8471508D01*
X16243991Y-8471508D02*
X16263039Y-8461984D01*
X16263039Y-8461984D02*
X16310658Y-8461984D01*
X16310658Y-8461984D02*
X16329705Y-8471508D01*
X16329705Y-8471508D02*
X16339229Y-8481031D01*
X16339229Y-8481031D02*
X16348753Y-8500079D01*
X16348753Y-8500079D02*
X16348753Y-8519127D01*
X16348753Y-8519127D02*
X16339229Y-8547698D01*
X16339229Y-8547698D02*
X16224943Y-8661984D01*
X16224943Y-8661984D02*
X16348753Y-8661984D01*
X16472562Y-8461984D02*
X16491610Y-8461984D01*
X16491610Y-8461984D02*
X16510658Y-8471508D01*
X16510658Y-8471508D02*
X16520182Y-8481031D01*
X16520182Y-8481031D02*
X16529705Y-8500079D01*
X16529705Y-8500079D02*
X16539229Y-8538174D01*
X16539229Y-8538174D02*
X16539229Y-8585793D01*
X16539229Y-8585793D02*
X16529705Y-8623889D01*
X16529705Y-8623889D02*
X16520182Y-8642936D01*
X16520182Y-8642936D02*
X16510658Y-8652460D01*
X16510658Y-8652460D02*
X16491610Y-8661984D01*
X16491610Y-8661984D02*
X16472562Y-8661984D01*
X16472562Y-8661984D02*
X16453515Y-8652460D01*
X16453515Y-8652460D02*
X16443991Y-8642936D01*
X16443991Y-8642936D02*
X16434467Y-8623889D01*
X16434467Y-8623889D02*
X16424943Y-8585793D01*
X16424943Y-8585793D02*
X16424943Y-8538174D01*
X16424943Y-8538174D02*
X16434467Y-8500079D01*
X16434467Y-8500079D02*
X16443991Y-8481031D01*
X16443991Y-8481031D02*
X16453515Y-8471508D01*
X16453515Y-8471508D02*
X16472562Y-8461984D01*
X16663039Y-8461984D02*
X16682086Y-8461984D01*
X16682086Y-8461984D02*
X16701134Y-8471508D01*
X16701134Y-8471508D02*
X16710658Y-8481031D01*
X16710658Y-8481031D02*
X16720182Y-8500079D01*
X16720182Y-8500079D02*
X16729705Y-8538174D01*
X16729705Y-8538174D02*
X16729705Y-8585793D01*
X16729705Y-8585793D02*
X16720182Y-8623889D01*
X16720182Y-8623889D02*
X16710658Y-8642936D01*
X16710658Y-8642936D02*
X16701134Y-8652460D01*
X16701134Y-8652460D02*
X16682086Y-8661984D01*
X16682086Y-8661984D02*
X16663039Y-8661984D01*
X16663039Y-8661984D02*
X16643991Y-8652460D01*
X16643991Y-8652460D02*
X16634467Y-8642936D01*
X16634467Y-8642936D02*
X16624943Y-8623889D01*
X16624943Y-8623889D02*
X16615420Y-8585793D01*
X16615420Y-8585793D02*
X16615420Y-8538174D01*
X16615420Y-8538174D02*
X16624943Y-8500079D01*
X16624943Y-8500079D02*
X16634467Y-8481031D01*
X16634467Y-8481031D02*
X16643991Y-8471508D01*
X16643991Y-8471508D02*
X16663039Y-8461984D01*
X16815420Y-8661984D02*
X16815420Y-8528650D01*
X16815420Y-8547698D02*
X16824944Y-8538174D01*
X16824944Y-8538174D02*
X16843991Y-8528650D01*
X16843991Y-8528650D02*
X16872563Y-8528650D01*
X16872563Y-8528650D02*
X16891610Y-8538174D01*
X16891610Y-8538174D02*
X16901134Y-8557222D01*
X16901134Y-8557222D02*
X16901134Y-8661984D01*
X16901134Y-8557222D02*
X16910658Y-8538174D01*
X16910658Y-8538174D02*
X16929705Y-8528650D01*
X16929705Y-8528650D02*
X16958277Y-8528650D01*
X16958277Y-8528650D02*
X16977325Y-8538174D01*
X16977325Y-8538174D02*
X16986848Y-8557222D01*
X16986848Y-8557222D02*
X16986848Y-8661984D01*
X17082086Y-8661984D02*
X17082086Y-8528650D01*
X17082086Y-8547698D02*
X17091610Y-8538174D01*
X17091610Y-8538174D02*
X17110658Y-8528650D01*
X17110658Y-8528650D02*
X17139229Y-8528650D01*
X17139229Y-8528650D02*
X17158277Y-8538174D01*
X17158277Y-8538174D02*
X17167801Y-8557222D01*
X17167801Y-8557222D02*
X17167801Y-8661984D01*
X17167801Y-8557222D02*
X17177325Y-8538174D01*
X17177325Y-8538174D02*
X17196372Y-8528650D01*
X17196372Y-8528650D02*
X17224944Y-8528650D01*
X17224944Y-8528650D02*
X17243991Y-8538174D01*
X17243991Y-8538174D02*
X17253515Y-8557222D01*
X17253515Y-8557222D02*
X17253515Y-8661984D01*
X17643991Y-8452460D02*
X17472563Y-8709603D01*
X17901134Y-8461984D02*
X17920182Y-8461984D01*
X17920182Y-8461984D02*
X17939229Y-8471508D01*
X17939229Y-8471508D02*
X17948753Y-8481031D01*
X17948753Y-8481031D02*
X17958277Y-8500079D01*
X17958277Y-8500079D02*
X17967801Y-8538174D01*
X17967801Y-8538174D02*
X17967801Y-8585793D01*
X17967801Y-8585793D02*
X17958277Y-8623889D01*
X17958277Y-8623889D02*
X17948753Y-8642936D01*
X17948753Y-8642936D02*
X17939229Y-8652460D01*
X17939229Y-8652460D02*
X17920182Y-8661984D01*
X17920182Y-8661984D02*
X17901134Y-8661984D01*
X17901134Y-8661984D02*
X17882087Y-8652460D01*
X17882087Y-8652460D02*
X17872563Y-8642936D01*
X17872563Y-8642936D02*
X17863039Y-8623889D01*
X17863039Y-8623889D02*
X17853515Y-8585793D01*
X17853515Y-8585793D02*
X17853515Y-8538174D01*
X17853515Y-8538174D02*
X17863039Y-8500079D01*
X17863039Y-8500079D02*
X17872563Y-8481031D01*
X17872563Y-8481031D02*
X17882087Y-8471508D01*
X17882087Y-8471508D02*
X17901134Y-8461984D01*
X18053515Y-8642936D02*
X18063039Y-8652460D01*
X18063039Y-8652460D02*
X18053515Y-8661984D01*
X18053515Y-8661984D02*
X18043991Y-8652460D01*
X18043991Y-8652460D02*
X18053515Y-8642936D01*
X18053515Y-8642936D02*
X18053515Y-8661984D01*
X18186848Y-8461984D02*
X18205896Y-8461984D01*
X18205896Y-8461984D02*
X18224944Y-8471508D01*
X18224944Y-8471508D02*
X18234468Y-8481031D01*
X18234468Y-8481031D02*
X18243991Y-8500079D01*
X18243991Y-8500079D02*
X18253515Y-8538174D01*
X18253515Y-8538174D02*
X18253515Y-8585793D01*
X18253515Y-8585793D02*
X18243991Y-8623889D01*
X18243991Y-8623889D02*
X18234468Y-8642936D01*
X18234468Y-8642936D02*
X18224944Y-8652460D01*
X18224944Y-8652460D02*
X18205896Y-8661984D01*
X18205896Y-8661984D02*
X18186848Y-8661984D01*
X18186848Y-8661984D02*
X18167801Y-8652460D01*
X18167801Y-8652460D02*
X18158277Y-8642936D01*
X18158277Y-8642936D02*
X18148753Y-8623889D01*
X18148753Y-8623889D02*
X18139229Y-8585793D01*
X18139229Y-8585793D02*
X18139229Y-8538174D01*
X18139229Y-8538174D02*
X18148753Y-8500079D01*
X18148753Y-8500079D02*
X18158277Y-8481031D01*
X18158277Y-8481031D02*
X18167801Y-8471508D01*
X18167801Y-8471508D02*
X18186848Y-8461984D01*
X18424944Y-8528650D02*
X18424944Y-8661984D01*
X18377325Y-8452460D02*
X18329706Y-8595317D01*
X18329706Y-8595317D02*
X18453515Y-8595317D01*
X18510658Y-8461984D02*
X18643991Y-8461984D01*
X18643991Y-8461984D02*
X18558277Y-8661984D01*
X18710658Y-8481031D02*
X18720182Y-8471508D01*
X18720182Y-8471508D02*
X18739229Y-8461984D01*
X18739229Y-8461984D02*
X18786849Y-8461984D01*
X18786849Y-8461984D02*
X18805896Y-8471508D01*
X18805896Y-8471508D02*
X18815420Y-8481031D01*
X18815420Y-8481031D02*
X18824944Y-8500079D01*
X18824944Y-8500079D02*
X18824944Y-8519127D01*
X18824944Y-8519127D02*
X18815420Y-8547698D01*
X18815420Y-8547698D02*
X18701134Y-8661984D01*
X18701134Y-8661984D02*
X18824944Y-8661984D01*
X18901134Y-8461984D02*
X18901134Y-8500079D01*
X18977325Y-8461984D02*
X18977325Y-8500079D01*
X19272563Y-8738174D02*
X19263039Y-8728650D01*
X19263039Y-8728650D02*
X19243991Y-8700079D01*
X19243991Y-8700079D02*
X19234468Y-8681031D01*
X19234468Y-8681031D02*
X19224944Y-8652460D01*
X19224944Y-8652460D02*
X19215420Y-8604841D01*
X19215420Y-8604841D02*
X19215420Y-8566746D01*
X19215420Y-8566746D02*
X19224944Y-8519127D01*
X19224944Y-8519127D02*
X19234468Y-8490555D01*
X19234468Y-8490555D02*
X19243991Y-8471508D01*
X19243991Y-8471508D02*
X19263039Y-8442936D01*
X19263039Y-8442936D02*
X19272563Y-8433412D01*
X19339230Y-8481031D02*
X19348753Y-8471508D01*
X19348753Y-8471508D02*
X19367801Y-8461984D01*
X19367801Y-8461984D02*
X19415420Y-8461984D01*
X19415420Y-8461984D02*
X19434468Y-8471508D01*
X19434468Y-8471508D02*
X19443991Y-8481031D01*
X19443991Y-8481031D02*
X19453515Y-8500079D01*
X19453515Y-8500079D02*
X19453515Y-8519127D01*
X19453515Y-8519127D02*
X19443991Y-8547698D01*
X19443991Y-8547698D02*
X19329706Y-8661984D01*
X19329706Y-8661984D02*
X19453515Y-8661984D01*
X19691611Y-8661984D02*
X19691611Y-8461984D01*
X19777325Y-8661984D02*
X19777325Y-8557222D01*
X19777325Y-8557222D02*
X19767801Y-8538174D01*
X19767801Y-8538174D02*
X19748753Y-8528650D01*
X19748753Y-8528650D02*
X19720182Y-8528650D01*
X19720182Y-8528650D02*
X19701134Y-8538174D01*
X19701134Y-8538174D02*
X19691611Y-8547698D01*
X19901134Y-8661984D02*
X19882087Y-8652460D01*
X19882087Y-8652460D02*
X19872563Y-8642936D01*
X19872563Y-8642936D02*
X19863039Y-8623889D01*
X19863039Y-8623889D02*
X19863039Y-8566746D01*
X19863039Y-8566746D02*
X19872563Y-8547698D01*
X19872563Y-8547698D02*
X19882087Y-8538174D01*
X19882087Y-8538174D02*
X19901134Y-8528650D01*
X19901134Y-8528650D02*
X19929706Y-8528650D01*
X19929706Y-8528650D02*
X19948753Y-8538174D01*
X19948753Y-8538174D02*
X19958277Y-8547698D01*
X19958277Y-8547698D02*
X19967801Y-8566746D01*
X19967801Y-8566746D02*
X19967801Y-8623889D01*
X19967801Y-8623889D02*
X19958277Y-8642936D01*
X19958277Y-8642936D02*
X19948753Y-8652460D01*
X19948753Y-8652460D02*
X19929706Y-8661984D01*
X19929706Y-8661984D02*
X19901134Y-8661984D01*
X20082087Y-8661984D02*
X20063039Y-8652460D01*
X20063039Y-8652460D02*
X20053515Y-8633412D01*
X20053515Y-8633412D02*
X20053515Y-8461984D01*
X20234468Y-8652460D02*
X20215420Y-8661984D01*
X20215420Y-8661984D02*
X20177325Y-8661984D01*
X20177325Y-8661984D02*
X20158277Y-8652460D01*
X20158277Y-8652460D02*
X20148753Y-8633412D01*
X20148753Y-8633412D02*
X20148753Y-8557222D01*
X20148753Y-8557222D02*
X20158277Y-8538174D01*
X20158277Y-8538174D02*
X20177325Y-8528650D01*
X20177325Y-8528650D02*
X20215420Y-8528650D01*
X20215420Y-8528650D02*
X20234468Y-8538174D01*
X20234468Y-8538174D02*
X20243992Y-8557222D01*
X20243992Y-8557222D02*
X20243992Y-8576270D01*
X20243992Y-8576270D02*
X20148753Y-8595317D01*
X20320182Y-8652460D02*
X20339230Y-8661984D01*
X20339230Y-8661984D02*
X20377325Y-8661984D01*
X20377325Y-8661984D02*
X20396373Y-8652460D01*
X20396373Y-8652460D02*
X20405896Y-8633412D01*
X20405896Y-8633412D02*
X20405896Y-8623889D01*
X20405896Y-8623889D02*
X20396373Y-8604841D01*
X20396373Y-8604841D02*
X20377325Y-8595317D01*
X20377325Y-8595317D02*
X20348753Y-8595317D01*
X20348753Y-8595317D02*
X20329706Y-8585793D01*
X20329706Y-8585793D02*
X20320182Y-8566746D01*
X20320182Y-8566746D02*
X20320182Y-8557222D01*
X20320182Y-8557222D02*
X20329706Y-8538174D01*
X20329706Y-8538174D02*
X20348753Y-8528650D01*
X20348753Y-8528650D02*
X20377325Y-8528650D01*
X20377325Y-8528650D02*
X20396373Y-8538174D01*
X20472563Y-8738174D02*
X20482087Y-8728650D01*
X20482087Y-8728650D02*
X20501134Y-8700079D01*
X20501134Y-8700079D02*
X20510658Y-8681031D01*
X20510658Y-8681031D02*
X20520182Y-8652460D01*
X20520182Y-8652460D02*
X20529706Y-8604841D01*
X20529706Y-8604841D02*
X20529706Y-8566746D01*
X20529706Y-8566746D02*
X20520182Y-8519127D01*
X20520182Y-8519127D02*
X20510658Y-8490555D01*
X20510658Y-8490555D02*
X20501134Y-8471508D01*
X20501134Y-8471508D02*
X20482087Y-8442936D01*
X20482087Y-8442936D02*
X20472563Y-8433412D01*
M02*
