G04 #@! TF.GenerationSoftware,KiCad,Pcbnew,9.0.1*
G04 #@! TF.CreationDate,2025-05-31T22:37:51+02:00*
G04 #@! TF.ProjectId,Sim-module,53696d2d-6d6f-4647-956c-652e6b696361,rev?*
G04 #@! TF.SameCoordinates,Original*
G04 #@! TF.FileFunction,Profile,NP*
%FSLAX46Y46*%
G04 Gerber Fmt 4.6, Leading zero omitted, Abs format (unit mm)*
G04 Created by KiCad (PCBNEW 9.0.1) date 2025-05-31 22:37:51*
%MOMM*%
%LPD*%
G01*
G04 APERTURE LIST*
G04 #@! TA.AperFunction,Profile*
%ADD10C,0.050000*%
G04 #@! TD*
G04 APERTURE END LIST*
D10*
X187000000Y-65000000D02*
X189000000Y-65000000D01*
X175000000Y-65000000D02*
X177000000Y-65000000D01*
X193000000Y-65000000D02*
X193000000Y-74000000D01*
X191000000Y-65000000D02*
X193000000Y-65000000D01*
X185000000Y-74000000D02*
X187000000Y-74000000D01*
X189000000Y-65000000D02*
X189000000Y-74000000D01*
X163000000Y-74000000D02*
X163000000Y-65000000D01*
X173000000Y-65000000D02*
X173000000Y-74000000D01*
X183000000Y-65000000D02*
X185000000Y-65000000D01*
X181000000Y-65000000D02*
X181000000Y-74000000D01*
X183000000Y-74000000D02*
X183000000Y-65000000D01*
X165000000Y-65000000D02*
X165000000Y-74000000D01*
X191000000Y-74000000D02*
X191000000Y-65000000D01*
X193000000Y-74000000D02*
X195000000Y-74000000D01*
X177000000Y-74000000D02*
X179000000Y-74000000D01*
X197000000Y-74000000D02*
X199000000Y-74000000D01*
X165000000Y-74000000D02*
X167000000Y-74000000D01*
X171000000Y-65000000D02*
X173000000Y-65000000D01*
X189000000Y-74000000D02*
X191000000Y-74000000D01*
X175000000Y-74000000D02*
X175000000Y-65000000D01*
X199000000Y-40000000D02*
X157000000Y-40000000D01*
X163000000Y-65000000D02*
X165000000Y-65000000D01*
X157000000Y-40000000D02*
X157000000Y-74000000D01*
X199000000Y-40000000D02*
X199000000Y-65000000D01*
X199000000Y-74000000D02*
X199000000Y-65000000D01*
X167000000Y-65000000D02*
X169000000Y-65000000D01*
X187000000Y-74000000D02*
X187000000Y-65000000D01*
X173000000Y-74000000D02*
X175000000Y-74000000D01*
X169000000Y-65000000D02*
X169000000Y-74000000D01*
X159000000Y-74000000D02*
X159000000Y-65000000D01*
X169000000Y-74000000D02*
X171000000Y-74000000D01*
X185000000Y-65000000D02*
X185000000Y-74000000D01*
X167000000Y-74000000D02*
X167000000Y-65000000D01*
X161000000Y-74000000D02*
X163000000Y-74000000D01*
X181000000Y-74000000D02*
X183000000Y-74000000D01*
X179000000Y-74000000D02*
X179000000Y-65000000D01*
X161000000Y-65000000D02*
X161000000Y-74000000D01*
X179000000Y-65000000D02*
X181000000Y-65000000D01*
X197000000Y-65000000D02*
X197000000Y-74000000D01*
X159000000Y-65000000D02*
X161000000Y-65000000D01*
X177000000Y-65000000D02*
X177000000Y-74000000D01*
X157000000Y-74000000D02*
X159000000Y-74000000D01*
X195000000Y-74000000D02*
X195000000Y-65000000D01*
X171000000Y-74000000D02*
X171000000Y-65000000D01*
X195000000Y-65000000D02*
X197000000Y-65000000D01*
M02*
